<svg viewBox="0 0 24 24" fill="none" xmlns="http://www.w3.org/2000/svg"><path d="M12.978 1.5C8.714 1.5 4.5 4.342 4.5 8.943c0 2.926 1.645 4.589 2.643 4.589.411 0 .65-1.148.65-1.472 0-.386-.986-1.21-.986-2.818 0-3.342 2.543-5.71 5.835-5.71 2.83 0 4.925 1.608 4.925 4.563 0 2.207-.886 6.346-3.754 6.346-1.035 0-1.92-.748-1.92-1.82 0-1.57 1.007-3.092 1.007-4.713 0-2.752-3.811-2.253-3.811 1.073 0 .698.087 1.47.398 2.106-.573 2.469-1.627 6.404-1.627 8.948 0 .785.112 1.558.187 2.344.141.158.071.141.287.063 2.095-2.868 1.9-3.686 2.848-7.439.511.973 1.833 1.497 2.88 1.497 4.415 0 6.397-4.302 6.397-8.18 0-4.127-3.566-6.82-7.48-6.82" fill="#fff"/></svg>