<svg viewBox="0 0 24 24" fill="none" xmlns="http://www.w3.org/2000/svg"><path d="M2.16 4.5h15.938s.937 0 .937.938v9.375s0 .937-.937.937H2.16s-.938 0-.938-.937V5.438s0-.938.938-.938" stroke="#3A3D40" stroke-width="1.25" stroke-linecap="round" stroke-linejoin="round"/><path d="M20.906 6.375v10.313a.937.937 0 0 1-.937.937H3.094" stroke="#3A3D40" stroke-width="1.25" stroke-linecap="round" stroke-linejoin="round"/><path d="M22.781 8.25v10.313a.937.937 0 0 1-.937.937H4.969M7.316 10.125a2.812 2.812 0 1 0 5.625 0 2.812 2.812 0 0 0-5.625 0M3.097 13.875h1.875M15.285 6.375h1.875" stroke="#3A3D40" stroke-width="1.25" stroke-linecap="round" stroke-linejoin="round"/></svg>