<svg xmlns="http://www.w3.org/2000/svg" fill="none" viewBox="-0.75 -0.75 24 24"><desc>App Window Eye Streamline Icon: https://streamlinehq.com</desc><path stroke="#3A3D40" stroke-linecap="round" stroke-linejoin="round" d="M20.156 1.879H2.344A1.875 1.875 0 0 0 .469 3.754v15a1.875 1.875 0 0 0 1.875 1.875h17.812a1.875 1.875 0 0 0 1.875-1.875v-15a1.875 1.875 0 0 0-1.875-1.875M.469 6.566H22.03" stroke-width="1.25"/><path stroke="#3A3D40" stroke-linecap="round" stroke-linejoin="round" d="M11.25 17.344c-3.624 0-6.562-3.75-6.562-3.75s2.938-3.75 6.562-3.75 6.563 3.75 6.563 3.75-2.939 3.75-6.563 3.75" stroke-width="1.25"/><path stroke="#3A3D40" stroke-linecap="round" stroke-linejoin="round" d="M11.25 15.941a2.344 2.344 0 1 0 0-4.687 2.344 2.344 0 0 0 0 4.687" stroke-width="1.25"/><path stroke="#3A3D40" d="M3.75 4.457a.234.234 0 0 1 0-.469M3.75 4.457a.234.234 0 0 0 0-.469M6.563 4.457a.234.234 0 0 1 0-.469M6.563 4.457a.234.234 0 0 0 0-.469" stroke-width="1.25"/><g stroke="#3A3D40" stroke-width="1.25"><path d="M9.375 4.457a.234.234 0 0 1 0-.469M9.375 4.457a.234.234 0 1 0 0-.469"/></g></svg>