<svg xmlns="http://www.w3.org/2000/svg" viewBox="-0.75 -0.75 24 24"><desc>Award Ribbon Star 1 Streamline Icon: https://streamlinehq.com</desc><path d="M3.973 13.515 1 18.648a.469.469 0 0 0 .484.697l2.625-.444.914 2.512a.469.469 0 0 0 .844.08l2.553-4.32M18.527 13.515l2.973 5.133a.469.469 0 0 1-.484.697l-2.625-.444-.914 2.512a.469.469 0 0 1-.844.08l-2.553-4.32" fill="none" stroke="#3A3D40" stroke-linecap="round" stroke-linejoin="round" stroke-width="1.25"/><path d="M2.798 9.216a8.438 8.438 0 1 0 16.875 0 8.438 8.438 0 1 0-16.875 0" fill="none" stroke="#3A3D40" stroke-linecap="round" stroke-linejoin="round" stroke-width="1.25"/><path d="m11.786 4.865 1.202 2.478h2.344a.575.575 0 0 1 .4 1l-2.03 2.002 1.125 2.589a.613.613 0 0 1-.873.767l-2.719-1.532L8.516 13.7a.613.613 0 0 1-.873-.767l1.125-2.589-2.03-2.001a.574.574 0 0 1 .402-1.002h2.344l1.204-2.477a.62.62 0 0 1 1.098 0" fill="none" stroke="#3A3D40" stroke-linecap="round" stroke-linejoin="round" stroke-width="1.25"/></svg>