<svg viewBox="0 0 24 24" fill="none" xmlns="http://www.w3.org/2000/svg"><g clip-path="url(#a)" stroke="#3A3D40" stroke-width="1.25" stroke-linecap="round" stroke-linejoin="round"><path d="M17.156 4.5h5.625M15.281 4.031a2.344 2.344 0 0 1 2.344-2.343H7.313A2.344 2.344 0 0 0 4.969 4.03v17.813a.47.47 0 0 0 .468.468h9.375a.47.47 0 0 0 .47-.468zM17.625 1.688a2.485 2.485 0 0 1 2.344 2.343V4.5M19.969 8.25v6.094a.47.47 0 0 1-.469.469h-2.344"/><path d="M4.969 16.688H15.28V19.5H4.97zM1.219 4.5h3.75M4.969 6.375h-3.75M22.781 6.375h-5.625"/></g><defs><clipPath id="a"><path d="M0 0h24v24H0z"/></clipPath></defs></svg>