<svg viewBox="0 0 24 24" fill="none" xmlns="http://www.w3.org/2000/svg"><g clip-path="url(#a)" stroke="#3A3D40" stroke-width="1.25" stroke-linecap="round" stroke-linejoin="round"><path d="M3.094 15.75a2.344 2.344 0 1 0 4.688 0 2.344 2.344 0 0 0-4.688 0M1.219 13.406v9.375M22.781 15.75v7.031"/><path d="M1.219 18.094H22.78v2.812H1.22zM9.656 18.094h11.25a2.4 2.4 0 0 0-1.819-2.33l-5.936-1.484a2.812 2.812 0 0 0-3.495 2.73zM18.094 13.406v-7.5M20.334 5.906h-4.48a.47.47 0 0 1-.46-.562l.75-3.75a.47.47 0 0 1 .46-.375h2.98a.47.47 0 0 1 .46.375l.75 3.75a.468.468 0 0 1-.46.562M19.969 5.906v1.875"/></g><defs><clipPath id="a"><path d="M0 0h24v24H0z"/></clipPath></defs></svg>