<svg xmlns="http://www.w3.org/2000/svg" viewBox="-0.75 -0.75 24 24"><desc>Business Climb Top 1 Streamline Icon: https://streamlinehq.com</desc><path d="m3.984 22.031 7.97-12.656a1.18 1.18 0 0 1 1.874 0l7.969 12.656Z" fill="none" stroke="#3A3D40" stroke-linecap="round" stroke-linejoin="round" stroke-width="1.25"/><path d="M3.984 22.031H.704l3.28-5.156a1.26 1.26 0 0 1 .938-.469 1.26 1.26 0 0 1 .937.469l.61 1.219M8.16 15.397l2.197 1.859a.94.94 0 0 0 1.269-.054l.602-.602a.94.94 0 0 1 1.325 0l.602.602a.94.94 0 0 0 1.269.054l2.201-1.859M12.89 8.906V.47M12.89.469h5.157a.47.47 0 0 1 .469.469v3.75a.47.47 0 0 1-.47.468h-5.155" fill="none" stroke="#3A3D40" stroke-linecap="round" stroke-linejoin="round" stroke-width="1.25"/><path d="M18.516 2.344h2.343a.47.47 0 0 1 .47.469v3.75a.47.47 0 0 1-.47.468h-2.812a.47.47 0 0 1-.469-.468V5.156" fill="none" stroke="#3A3D40" stroke-linecap="round" stroke-linejoin="round" stroke-width="1.25"/></svg>