<svg xmlns="http://www.w3.org/2000/svg" viewBox="-0.75 -0.75 24 24"><desc>Calendar Share Streamline Icon: https://streamlinehq.com</desc><path d="M10.781 17.11a2.11 2.11 0 1 0 4.219 0 2.11 2.11 0 1 0-4.219 0M17.813 19.923a2.11 2.11 0 1 0 4.218 0 2.11 2.11 0 1 0-4.218 0M17.813 12.892a2.11 2.11 0 1 0 4.218 0 2.11 2.11 0 1 0-4.218 0M14.695 16.028l3.422-2.054M14.848 17.893l3.116 1.247M8.906 17.344h-7.5a.94.94 0 0 1-.937-.938V3.281a.94.94 0 0 1 .937-.937h16.875a.94.94 0 0 1 .938.937v5.625M5.156.47v4.687M14.531.47v4.687M.469 7.032h18.75" fill="none" stroke="#3A3D40" stroke-linecap="round" stroke-linejoin="round" stroke-width="1.25"/></svg>