<svg viewBox="0 0 24 24" fill="none" xmlns="http://www.w3.org/2000/svg"><g clip-path="url(#a)" stroke="#3A3D40" stroke-width="1.25" stroke-linecap="round" stroke-linejoin="round"><path d="M12.469 16.039v6.743h8.437V16.04"/><path d="m10.594 17.626 6.094-5.156 6.093 5.156M18.094 22.781H15.28V19.97a1.406 1.406 0 0 1 2.813 0z"/><path d="M8.719 18.094H2.156a.94.94 0 0 1-.937-.938V4.031a.937.937 0 0 1 .937-.937h16.875a.94.94 0 0 1 .938.937v8.438M5.906 1.22v4.687M15.281 1.22v4.687M1.219 7.782h18.75"/></g><defs><clipPath id="a"><path d="M0 0h24v24H0z"/></clipPath></defs></svg>