<svg viewBox="0 0 24 24" fill="none" xmlns="http://www.w3.org/2000/svg"><g clip-path="url(#a)" stroke="#3A3D40" stroke-width="1.25" stroke-linecap="round" stroke-linejoin="round"><path d="M19.427 7.512a1.756 1.756 0 0 0 .998 2.41l1.186.422a1.758 1.758 0 0 1 0 3.314l-1.186.421a1.756 1.756 0 0 0-.998 2.41l.542 1.136a1.759 1.759 0 0 1-2.344 2.344l-1.137-.54a1.757 1.757 0 0 0-2.41.998l-.422 1.186a1.757 1.757 0 0 1-3.313 0l-.421-1.186a1.757 1.757 0 0 0-2.412-.998l-1.135.54a1.758 1.758 0 0 1-2.344-2.344l.54-1.137a1.756 1.756 0 0 0-.998-2.41l-1.186-.422a1.757 1.757 0 0 1 0-3.314l1.186-.421a1.757 1.757 0 0 0 .998-2.409l-.54-1.137a1.757 1.757 0 0 1 2.344-2.344l1.137.54a1.76 1.76 0 0 0 2.41-.996l.421-1.186a1.758 1.758 0 0 1 3.313 0l.422 1.186a1.757 1.757 0 0 0 2.41.998l1.137-.542a1.758 1.758 0 0 1 2.344 2.344z"/><path d="M7.78 12a4.219 4.219 0 1 0 8.437.001 4.219 4.219 0 0 0-8.437 0"/></g><defs><clipPath id="a"><path d="M0 0h24v24H0z"/></clipPath></defs></svg>