<svg viewBox="0 0 24 24" fill="none" xmlns="http://www.w3.org/2000/svg"><g clip-path="url(#a)" stroke="#3A3D40" stroke-width="1.25" stroke-linecap="round" stroke-linejoin="round"><path d="M4.969 8.719h8.906M4.969 11.531h7.5M4.969 5.906h6.562M4.969 14.344h4.687M4.969 17.156H7.78M8.719 22.781H2.156a.937.937 0 0 1-.937-.937V2.156a.937.937 0 0 1 .937-.937h12.462c.25 0 .487.099.663.274l3.476 3.476a.94.94 0 0 1 .274.663v4.962"/><path d="M12.469 16.039v5.805a.937.937 0 0 0 .937.937h6.563a.94.94 0 0 0 .937-.937v-5.805"/><path d="m10.594 17.625 5.488-4.643a.94.94 0 0 1 1.211 0l5.488 4.643M18.094 22.781H15.28V19.97a1.406 1.406 0 0 1 2.813 0z"/></g><defs><clipPath id="a"><path d="M0 0h24v24H0z"/></clipPath></defs></svg>