<svg xmlns="http://www.w3.org/2000/svg" viewBox="-0.75 -0.75 24 24"><desc>Common File Text Edit Streamline Icon: https://streamlinehq.com</desc><path d="M4.219 7.969h8.906M4.219 10.781h8.906M4.219 5.156h6.562M4.219 13.594h7.031M4.219 16.406h3.75M7.969 22.031H1.406a.94.94 0 0 1-.937-.937V1.406A.94.94 0 0 1 1.406.47h12.462a.94.94 0 0 1 .663.274l3.476 3.476a.94.94 0 0 1 .274.663v3.087M14.719 20.906l-3.938 1.125 1.125-3.937 6.73-6.73a1.988 1.988 0 0 1 2.813 2.812ZM17.793 12.207l2.812 2.813M11.906 18.094l2.813 2.812" fill="none" stroke="#3A3D40" stroke-linecap="round" stroke-linejoin="round" stroke-width="1.25"/></svg>