<svg viewBox="0 0 24 24" fill="none" xmlns="http://www.w3.org/2000/svg"><path d="M3.097 4.031H20.91s1.875 0 1.875 1.875v12.188s0 1.875-1.875 1.875H3.097s-1.875 0-1.875-1.875V5.906s0-1.875 1.875-1.875" stroke="#3A3D40" stroke-width="1.25" stroke-linecap="round" stroke-linejoin="round"/><path d="M5.397 10.125h1.201l.34 3.375a.42.42 0 0 0 .796.139l1.735-3.616M11.168 10.096l-.76 3.808M14.655 10.052s-1.289-.338-1.729.396c-.44.733.25 1.2.703 1.479.454.278.953.703.82 1.2-.131.499-.687 1.232-2.155.719M15.75 13.904l1.762-3.552a.409.409 0 0 1 .774.148l.281 3.346M16.31 12.776h2.183" stroke="#3A3D40" stroke-width="1.25" stroke-linecap="round" stroke-linejoin="round"/></svg>