<svg viewBox="0 0 24 24" fill="none" xmlns="http://www.w3.org/2000/svg"><g clip-path="url(#a)" stroke="#3A3D40" stroke-width="1.25" stroke-linecap="round" stroke-linejoin="round"><path d="M1.219 11.986a10.781 10.781 0 1 0 21.562 0 10.781 10.781 0 0 0-21.562 0"/><path d="M1.38 10.11h5.705a2.81 2.81 0 0 1 1.989.824l1.051 1.051a2.81 2.81 0 0 1 .113 3.858L8.961 17.28a2.8 2.8 0 0 0-.711 1.868v2.949M19.745 4.486h-5.438a2.11 2.11 0 1 0 0 4.219h.405a2.81 2.81 0 0 1 2.344 1.251l2.08 3.121a2.81 2.81 0 0 0 2.343 1.253h1.051"/></g><defs><clipPath id="a"><path d="M0 0h24v24H0z"/></clipPath></defs></svg>