<svg viewBox="0 0 24 24" fill="none" xmlns="http://www.w3.org/2000/svg"><path d="M4.031 11.834v9.844a.47.47 0 0 0 .469.469h15a.47.47 0 0 0 .469-.47v-9.843M1.219 11.365 11.369 2.1a.937.937 0 0 1 1.263 0l10.15 9.266" stroke="#3A3D40" stroke-width="1.25" stroke-linecap="round" stroke-linejoin="round"/><path d="M9.641 10.755c-1.594.983-2.306 2.516.364 4.177.273 3.135 1.794 3.3 3.563 2.215 1.768-1.085 3.568-4.938 3.141-7.427-2.646 1.073-5.069-.19-7.068 1.035" stroke="#3A3D40" stroke-width="1.25" stroke-linecap="round" stroke-linejoin="round"/><path d="M6.057 19.733s4.195-6.518 8.071-7.524" stroke="#3A3D40" stroke-width="1.25" stroke-linecap="round" stroke-linejoin="round"/></svg>