<svg viewBox="0 0 24 24" fill="none" xmlns="http://www.w3.org/2000/svg"><path d="M3.094 11.531h17.812a.94.94 0 0 1 .938.938v3.75H2.156v-3.75a.94.94 0 0 1 .938-.938M22.781 16.219v1.406a.937.937 0 0 1-.937.938H2.156a.94.94 0 0 1-.937-.938v-1.406zM2.156 18.563v1.875M21.844 18.563v1.875M3.094 11.531V6.844a1.875 1.875 0 0 1 1.875-1.875H19.03a1.875 1.875 0 0 1 1.875 1.875v4.687" stroke="#3A3D40" stroke-width="1.25" stroke-linecap="round" stroke-linejoin="round"/><path d="M16.219 10.594a.94.94 0 0 1-.938.937H8.72a.937.937 0 0 1-.938-.937v-.938a.94.94 0 0 1 .6-.872c1.154-.45 2.38-.686 3.619-.693 1.239.007 2.465.243 3.619.693a.94.94 0 0 1 .6.872zM3.094 6.844V3.562M20.906 6.844V3.562" stroke="#3A3D40" stroke-width="1.25" stroke-linecap="round" stroke-linejoin="round"/></svg>