<svg viewBox="0 0 24 24" fill="none" xmlns="http://www.w3.org/2000/svg"><g clip-path="url(#a)" stroke="#3A3D40" stroke-width="1.25" stroke-linecap="round" stroke-linejoin="round"><path d="M19.006 4.969h1.9l1.875 11.25H1.22l1.875-11.25h2.135M22.781 16.219v4.218a1.406 1.406 0 0 1-1.406 1.407H2.625a1.406 1.406 0 0 1-1.406-1.407V16.22M2.468 8.719h19.064"/><path d="M10.643 6.384a.47.47 0 0 1-.47.46H5.508a.47.47 0 0 1-.469-.534l.26-1.875a.47.47 0 0 1 .47-.404h4.445a.47.47 0 0 1 .469.478zM13.594 6.384a.47.47 0 0 0 .469.46h4.665a.47.47 0 0 0 .47-.534l-.261-1.875a.47.47 0 0 0-.468-.404h-4.447a.47.47 0 0 0-.469.478z"/><path d="M3.094 4.969V2.625A1.406 1.406 0 0 1 4.5 1.219h15a1.406 1.406 0 0 1 1.406 1.406v2.344M4.031 21.844v.937M19.969 21.844v.937M10.692 5.076h2.852"/></g><defs><clipPath id="a"><path d="M0 0h24v24H0z"/></clipPath></defs></svg>