<svg viewBox="0 0 24 24" fill="none" xmlns="http://www.w3.org/2000/svg"><g clip-path="url(#a)" stroke="#3A3D40" stroke-width="1.25" stroke-linecap="round" stroke-linejoin="round"><path d="M10.594 19.854h10.312V17.98a1.875 1.875 0 0 0-1.875-1.875h-7.968a.47.47 0 0 0-.47.47zM5.438 17.98a1.875 1.875 0 1 0 3.75 0 1.875 1.875 0 0 0-3.75 0M20.906 12.354V7.688M3.094 7.688v4.67M22.781 9.073 12.557 1.516a.94.94 0 0 0-1.115 0L1.22 9.073M3.094 16.104v6.563"/><path d="M3.094 19.854h17.812v2.813"/></g><defs><clipPath id="a"><path d="M0 0h24v24H0z"/></clipPath></defs></svg>