<svg viewBox="0 0 24 24" fill="none" xmlns="http://www.w3.org/2000/svg"><path d="M3.094 11.531h17.812a.94.94 0 0 1 .938.938v3.75H2.156v-3.75a.94.94 0 0 1 .938-.938M22.781 16.219v1.406a.937.937 0 0 1-.937.938H2.156a.94.94 0 0 1-.937-.938v-1.406zM2.156 18.563v1.875M21.844 18.563v1.875M3.094 11.531V6.844a1.875 1.875 0 0 1 1.875-1.875H19.03a1.875 1.875 0 0 1 1.875 1.875v4.687" stroke="#3A3D40" stroke-width="1.25" stroke-linecap="round" stroke-linejoin="round"/><path d="M12 10.594a.94.94 0 0 1-.937.937H5.906a.937.937 0 0 1-.937-.937v-.778c0-1.285 2.784-1.566 3.515-1.566.432 0 3.516.29 3.516 1.566z" stroke="#3A3D40" stroke-width="1.25" stroke-linecap="round" stroke-linejoin="round"/><path d="M19.031 10.594a.94.94 0 0 1-.937.937h-5.157a.937.937 0 0 1-.937-.937v-.778c0-1.285 2.813-1.566 3.516-1.566.43 0 3.515.29 3.515 1.566zM3.094 6.844V3.562M20.906 6.844V3.562" stroke="#3A3D40" stroke-width="1.25" stroke-linecap="round" stroke-linejoin="round"/></svg>