<svg viewBox="0 0 24 24" fill="none" xmlns="http://www.w3.org/2000/svg"><g clip-path="url(#a)" stroke="#3A3D40" stroke-width="1.25" stroke-linecap="round" stroke-linejoin="round"><path d="M1.219 22.781H22.78M2.156 22.781V16.22M12.469 16.219v6.562M5.906 22.781v-3.75a.94.94 0 0 1 .938-.937h.937a.937.937 0 0 1 .938.937v3.75M22.781 16.688a3.54 3.54 0 0 1-3.75 3.28 3.54 3.54 0 0 1-3.75-3.28c0-1.55 2.739-7.981 3.536-9.82a.233.233 0 0 1 .429 0c.797 1.839 3.535 8.27 3.535 9.82M19.031 13.348v9.433M17.625 16.688l1.406 1.406M1.219 17.156l5.762-5.762a.467.467 0 0 1 .663 0l5.762 5.762M6.83 3.75a1.875 1.875 0 1 1 1.42 3.094H4.031A2.812 2.812 0 1 1 6.83 3.75"/></g><defs><clipPath id="a"><path d="M0 0h24v24H0z"/></clipPath></defs></svg>