<svg viewBox="0 0 24 24" fill="none" xmlns="http://www.w3.org/2000/svg"><path d="M11.023 11.531h8.438a1.407 1.407 0 0 1 0 2.813h-4.688" stroke="#3A3D40" stroke-width="1.25" stroke-linecap="round" stroke-linejoin="round"/><path d="M2.117 12.938h2.115a.94.94 0 0 0 .834-.509c1.138-2.206 3.61-3.71 5.02-3.71h3.75a1.406 1.406 0 0 1 1.406 1.406v1.406M19.463 14.344h.937a1.406 1.406 0 1 1 0 2.812h-3.75M19.46 17.156a1.407 1.407 0 0 1 0 2.813h-1.874M13.836 19.969h3.75a1.406 1.406 0 1 1 0 2.812H9.148a4.68 4.68 0 0 1-3.804-1.952.94.94 0 0 0-.764-.392H2.117" stroke="#3A3D40" stroke-width="1.25" stroke-linecap="round" stroke-linejoin="round"/><path d="M11.259 1.688a.234.234 0 1 1 0-.47M11.259 1.688a.234.234 0 0 0 0-.47M10.537 3.918a.234.234 0 0 1 0-.469M10.537 3.918a.234.234 0 1 0 0-.469M9.816 6.149a.234.234 0 1 1 0-.469M9.816 6.149a.234.234 0 0 0 0-.469M19.262 6.149a.234.234 0 0 1 0-.469M19.262 6.149a.234.234 0 0 0 0-.469M19.982 8.38a.234.234 0 1 1 0-.47M19.982 8.38a.234.234 0 0 0 0-.47M18.54 3.918a.234.234 0 1 1 0-.469M18.54 3.918a.234.234 0 1 0 0-.469M14.539 4.031a.234.234 0 1 1 0-.468M14.539 4.031a.234.234 0 1 0 0-.468M14.539 6.383a.234.234 0 1 1 0-.468M14.539 6.383a.234.234 0 1 0 0-.468M14.539 1.688a.234.234 0 1 1 0-.47M14.539 1.688a.234.234 0 1 0 0-.47M17.818 1.688a.234.234 0 0 1 0-.47M17.818 1.688a.234.234 0 0 0 0-.47" stroke="#3A3D40" stroke-width="1.25"/></svg>