<svg xmlns="http://www.w3.org/2000/svg" viewBox="-0.75 -0.75 24 24"><desc>Microphone Podcast 2 Streamline Icon: https://streamlinehq.com</desc><path d="M16.875 11.719a5.625 5.625 0 0 1-11.25 0V6.094a5.625 5.625 0 0 1 11.25 0Z" fill="none" stroke="#3A3D40" stroke-linecap="round" stroke-linejoin="round" stroke-width="1.25"/><path d="M3.75 9.844v1.875a7.433 7.433 0 0 0 7.5 7.5 7.434 7.434 0 0 0 7.5-7.5V9.844M11.25 19.219v2.812M11.25.469V3.28M13.126.79l-.001 2.491M9.375.79V3.28M3.75 11.719h15M5.625 6.094h3.75M5.625 7.969h3.75M16.875 6.094h-3.75M16.875 7.969h-3.75M5.625 9.844h3.75M16.875 9.844h-3.75" fill="none" stroke="#3A3D40" stroke-linecap="round" stroke-linejoin="round" stroke-width="1.25"/></svg>