<svg viewBox="0 0 24 24" fill="none" xmlns="http://www.w3.org/2000/svg"><g clip-path="url(#a)" stroke="#3A3D40" stroke-width="1.25" stroke-linecap="round" stroke-linejoin="round"><path d="M22.078 4.734a.94.94 0 0 1 .703.938v12.656a.94.94 0 0 1-.637.89l-9.835 3.516c-.2.07-.418.07-.618 0l-9.854-3.506a.94.94 0 0 1-.618-.881V5.644a.94.94 0 0 1 .703-.938l9.844-3.46a1 1 0 0 1 .468 0zM12 8.69v14.091"/><path d="M22.528 5.006 12 8.691 1.472 5.006"/></g><defs><clipPath id="a"><path d="M0 0h24v24H0z"/></clipPath></defs></svg>