<svg xmlns="http://www.w3.org/2000/svg" viewBox="-0.75 -0.75 24 24"><desc>Monitor Users Streamline Icon: https://streamlinehq.com</desc><path d="M18.75 12.188v6.48a1.45 1.45 0 0 1-1.406 1.488H5.156a1.45 1.45 0 0 1-1.406-1.488v-6.48M7.969 22.031h6.562M11.25 20.156v1.875M3.75 17.344h15M13.125 12.656l3.75-3.75M14.063 8.906h2.812v2.813M9.375 12.656l-3.75-3.75M8.438 8.906H5.624v2.813M16.406 2.344a1.875 1.875 0 1 0 3.75 0 1.875 1.875 0 1 0-3.75 0" fill="none" stroke="#3A3D40" stroke-linecap="round" stroke-linejoin="round" stroke-width="1.25"/><path d="M18.281 4.219C15.938 4.219 15 5.625 15 7.03h6.563c0-1.406-.938-2.812-3.282-2.812M2.344 2.344a1.875 1.875 0 1 0 3.75 0 1.875 1.875 0 1 0-3.75 0" fill="none" stroke="#3A3D40" stroke-linecap="round" stroke-linejoin="round" stroke-width="1.25"/><path d="M4.219 4.219C1.875 4.219.937 5.625.937 7.03H7.5c0-1.406-.937-2.812-3.281-2.812" fill="none" stroke="#3A3D40" stroke-linecap="round" stroke-linejoin="round" stroke-width="1.25"/></svg>