<svg xmlns="http://www.w3.org/2000/svg" viewBox="-0.75 -0.75 24 24"><desc>Multiple Users 1 Streamline Icon: https://streamlinehq.com</desc><path d="M21.094 22.031a5.032 5.032 0 0 0-8.438 0M9.844 22.031a5.032 5.032 0 0 0-8.438 0M15.469 10.313a5.032 5.032 0 0 0-8.438 0M8.67 1.969a5.06 5.06 0 0 0 3.642 1.547 5.1 5.1 0 0 0 2.005-.413" fill="none" stroke="#3A3D40" stroke-linecap="round" stroke-linejoin="round" stroke-width="1.25"/><path d="M8.25 3.516a3.047 3.047 0 1 0 6.094 0 3.047 3.047 0 1 0-6.094 0M3.046 13.688a5.06 5.06 0 0 0 5.646 1.134" fill="none" stroke="#3A3D40" stroke-linecap="round" stroke-linejoin="round" stroke-width="1.25"/><path d="M2.625 15.234a3.047 3.047 0 1 0 6.094 0 3.047 3.047 0 1 0-6.094 0M14.296 13.688a5.06 5.06 0 0 0 5.646 1.134" fill="none" stroke="#3A3D40" stroke-linecap="round" stroke-linejoin="round" stroke-width="1.25"/><path d="M13.875 15.234a3.047 3.047 0 1 0 6.094 0 3.047 3.047 0 1 0-6.094 0" fill="none" stroke="#3A3D40" stroke-linecap="round" stroke-linejoin="round" stroke-width="1.25"/></svg>