<svg xmlns="http://www.w3.org/2000/svg" viewBox="-0.75 -0.75 24 24"><desc>Multiple Circle Streamline Icon: https://streamlinehq.com</desc><path d="M15.938 18.469c3.607.304 6.093.947 6.093 1.687 0 1.032-4.826 1.875-10.781 1.875S.469 21.188.469 20.156c0-.74 2.47-1.38 6.054-1.687M17.11 4.453a2.11 2.11 0 1 0 4.218 0 2.11 2.11 0 1 0-4.219 0M19.219 7.5a2.813 2.813 0 0 0-2.813 2.813v2.343h1.407l.468 4.219h1.875l.469-4.219h1.406v-2.344A2.813 2.813 0 0 0 19.22 7.5M1.172 4.453a2.11 2.11 0 1 0 4.219 0 2.11 2.11 0 1 0-4.22 0M3.281 7.5A2.813 2.813 0 0 0 .47 10.313v2.343h1.406l.469 4.219h1.875l.468-4.219h1.407v-2.344A2.813 2.813 0 0 0 3.28 7.5" fill="none" stroke="#3A3D40" stroke-linecap="round" stroke-linejoin="round" stroke-width="1.25"/><g fill="none" stroke="#3A3D40" stroke-linecap="round" stroke-linejoin="round" stroke-width="1.25"><path d="M8.672 3.047a2.578 2.578 0 1 0 5.156 0 2.578 2.578 0 1 0-5.156 0M14.531 9.844a3.281 3.281 0 0 0-6.562 0v2.812h1.484l.39 4.688h2.813l.391-4.688h1.484Z"/></g></svg>