<svg xmlns="http://www.w3.org/2000/svg" viewBox="-0.75 -0.75 24 24"><desc>Notes Checklist Flip Streamline Icon: https://streamlinehq.com</desc><path d="M16.406 16.406a.94.94 0 0 0-.937.938v4.687H2.344a.94.94 0 0 1-.938-.937V3.28a.94.94 0 0 1 .938-.937h17.812a.94.94 0 0 1 .938.937v13.125ZM21.094 16.406l-5.625 5.625M4.219.469v4.219M8.906.469v4.219M13.594.469v4.219M18.281.469v4.219" fill="none" stroke="#3A3D40" stroke-linecap="round" stroke-linejoin="round" stroke-width="1.25"/><path d="M8.906 7.031 6.094 9.844 4.687 8.438M8.906 12.188 6.094 15l-1.407-1.406M10.781 8.906h6.094M10.781 13.594h6.094" fill="none" stroke="#3A3D40" stroke-linecap="round" stroke-linejoin="round" stroke-width="1.25"/></svg>