<svg viewBox="0 0 24 24" fill="none" xmlns="http://www.w3.org/2000/svg"><g clip-path="url(#a)" stroke="#3A3D40" stroke-width="1.25" stroke-linecap="round" stroke-linejoin="round"><path d="M18.094 22.313H5.906l-1.584-6.338a.94.94 0 0 1 .503-1.068.9.9 0 0 1 .406-.095H18.77a.94.94 0 0 1 .74.357.94.94 0 0 1 .17.806zM1.688 22.313h20.625M12 12v1.406M9.188 3.31a5.45 5.45 0 0 0 3.909 1.659 5.5 5.5 0 0 0 2.156-.469"/><path d="M8.719 4.969a3.281 3.281 0 1 0 6.562 0 3.281 3.281 0 0 0-6.562 0M10.828 18.328a1.172 1.172 0 1 0 2.344 0 1.172 1.172 0 0 0-2.344 0M16.453 12.938a4.688 4.688 0 0 0-8.906 0"/></g><defs><clipPath id="a"><path d="M0 0h24v24H0z"/></clipPath></defs></svg>