<svg xmlns="http://www.w3.org/2000/svg" viewBox="-0.75 -0.75 24 24"><desc>Paper Write Streamline Icon: https://streamlinehq.com</desc><path d="M17.344 17.813v3.28a.94.94 0 0 1-.938.938h-15a.94.94 0 0 1-.937-.937V4.219a.94.94 0 0 1 .937-.938H4.22M13.594 3.281h2.812a.94.94 0 0 1 .938.938V7.5M7.5 1.874a1.406 1.406 0 1 0 2.813 0 1.406 1.406 0 1 0-2.813 0" fill="none" stroke="#3A3D40" stroke-linecap="round" stroke-linejoin="round" stroke-width="1.25"/><path d="M10.233 2.344h2.423a.94.94 0 0 1 .938.937v.938a.94.94 0 0 1-.938.937h-7.5a.94.94 0 0 1-.937-.937V3.28a.94.94 0 0 1 .937-.937H7.58M3.281 8.905h11.25M3.281 12.655h8.875M3.281 16.405h7.484M15.938 16.406l-3.282.938.938-3.282 5.608-5.608a1.658 1.658 0 0 1 2.344 2.344Z" fill="none" stroke="#3A3D40" stroke-linecap="round" stroke-linejoin="round" stroke-width="1.25"/></svg>