<svg viewBox="0 0 24 24" fill="none" xmlns="http://www.w3.org/2000/svg"><path d="M8.719 8.719h6.562M8.719 11.531h6.562M8.719 14.344h4.219M16.219 1.219H7.78a1.875 1.875 0 0 0-1.875 1.875v17.812a1.875 1.875 0 0 0 1.875 1.875h8.438a1.875 1.875 0 0 0 1.875-1.875V3.094a1.875 1.875 0 0 0-1.875-1.875M18.094 19.031H5.906M18.094 4.969H5.906M10.594 3.094h2.812" stroke="#3A3D40" stroke-width="1.25" stroke-linecap="round" stroke-linejoin="round"/><path d="M12 21.14a.234.234 0 1 1 0-.468M12 21.14a.234.234 0 1 0 0-.468" stroke="#3A3D40" stroke-width="1.25"/></svg>