<svg viewBox="0 0 24 24" fill="none" xmlns="http://www.w3.org/2000/svg"><g clip-path="url(#a)" stroke="#3A3D40" stroke-width="1.25" stroke-linecap="round" stroke-linejoin="round"><path d="M8.719 7.313a3.281 3.281 0 1 0 6.562 0 3.281 3.281 0 0 0-6.562 0"/><path d="M12 1.219a6.43 6.43 0 0 1 6.427 6.427c0 3.014-4.633 10.486-6.032 12.672a.468.468 0 0 1-.79 0c-1.398-2.186-6.032-9.656-6.032-12.672A6.426 6.426 0 0 1 12 1.22"/><path d="M16.688 19.219c3.607.303 6.093.946 6.093 1.687 0 1.036-4.826 1.875-10.781 1.875s-10.781-.839-10.781-1.875c0-.74 2.47-1.38 6.054-1.687"/></g><defs><clipPath id="a"><path d="M0 0h24v24H0z"/></clipPath></defs></svg>