<svg viewBox="0 0 24 24" fill="none" xmlns="http://www.w3.org/2000/svg"><path d="M20.906 1.219h-15a1.875 1.875 0 0 0-1.875 1.875m0 0a1.875 1.875 0 0 0 1.875 1.875h14.532a.47.47 0 0 1 .468.468v16.876a.47.47 0 0 1-.468.468H5.906a1.875 1.875 0 0 1-1.875-1.875zM5.906 3.094H19.97M3.094 7.781h1.875M3.094 10.594h1.875M3.094 13.406h1.875M3.094 16.219h1.875M3.094 19.031h1.875" stroke="#3A3D40" stroke-width="1.25" stroke-linecap="round" stroke-linejoin="round"/><path d="m17.625 13.406-4.356-4.355a.47.47 0 0 0-.663 0L8.25 13.406" stroke="#3A3D40" stroke-width="1.25" stroke-linecap="round" stroke-linejoin="round"/><path d="M16.219 12v5.156a.94.94 0 0 1-.938.938h-4.687a.94.94 0 0 1-.938-.938V12" stroke="#3A3D40" stroke-width="1.25" stroke-linecap="round" stroke-linejoin="round"/></svg>