<svg viewBox="0 0 24 24" fill="none" xmlns="http://www.w3.org/2000/svg"><g clip-path="url(#a)" stroke="#3A3D40" stroke-width="1.25" stroke-linecap="round" stroke-linejoin="round"><path d="M13.406 17.156v-2.343a1.407 1.407 0 0 1 2.813 0v2.343"/><path d="M11.531 11.702v4.986a.47.47 0 0 0 .469.468h5.625a.47.47 0 0 0 .469-.468v-4.986"/><path d="m9.656 13.406 4.842-4.4a.47.47 0 0 1 .63 0l4.84 4.4M1.219 19.5a3.281 3.281 0 1 0 6.563 0 3.281 3.281 0 0 0-6.563 0"/><path d="M3.094 19.5a1.406 1.406 0 1 0 2.813 0 1.406 1.406 0 0 0-2.813 0"/><path d="M1.219 19.5v-15a3.281 3.281 0 1 1 6.562 0v15"/><path d="M4.5 22.781h17.344a.94.94 0 0 0 .937-.937V4.969a.937.937 0 0 0-.937-.938H10.125"/></g><defs><clipPath id="a"><path d="M0 0h24v24H0z"/></clipPath></defs></svg>