<svg viewBox="0 0 24 24" fill="none" xmlns="http://www.w3.org/2000/svg"><g clip-path="url(#a)" stroke="#3A3D40" stroke-width="1.25" stroke-linecap="round" stroke-linejoin="round"><path d="M17.625 16.922a2.813 2.813 0 1 1 0 5.625zM11.063 21.14a1.406 1.406 0 0 1-2.813 0v-2.812a1.406 1.406 0 0 1 2.813 0zM12.938 16.922v4.687a.94.94 0 0 0 .937.938h1.875M6.375 16.922H4.781a1.22 1.22 0 0 0-1.075 1.798c.095.178.233.33.4.443l1.725 1.143a1.23 1.23 0 0 1 .544 1.069 1.22 1.22 0 0 1-1.219 1.219H3.563M4.031 8.634v6.413M1.219 11.297l10.144-9.61a.937.937 0 0 1 1.265 0l10.153 9.61"/><path d="M11.063 6.14h1.874s.47 0 .47.47v1.874s0 .47-.47.47h-1.874s-.47 0-.47-.47V6.61s0-.468.47-.468M19.969 8.634v6.413"/></g><defs><clipPath id="a"><path d="M0 0h24v24H0z"/></clipPath></defs></svg>