<svg viewBox="0 0 24 24" fill="none" xmlns="http://www.w3.org/2000/svg"><g clip-path="url(#a)" stroke="#3A3D40" stroke-width="1.25" stroke-linecap="round" stroke-linejoin="round"><path d="M20.438 13.406v7.031a.94.94 0 0 1-.938.938h-8.437a.94.94 0 0 1-.938-.937v-7.032"/><path d="m8.25 15.281 6.7-6.7a.47.47 0 0 1 .663 0l6.7 6.7M5.438 5.438h-3.75v16.406a.47.47 0 0 0 .468.468H4.97a.47.47 0 0 0 .468-.468zM21.844 5.438a.47.47 0 0 0 .468-.47V2.157a.47.47 0 0 0-.468-.469H5.438v3.75z"/><path d="M1.688 5.438V2.156a.47.47 0 0 1 .468-.469h3.282M8.25 5.438V3.563M12 5.438V3.563M15.75 5.438V3.563M19.5 5.438V3.563M5.438 19.5H3.563M5.438 15.75H3.563M5.438 12H3.563M5.438 8.25H3.563M16.688 21.375v-3.75a1.407 1.407 0 0 0-2.813 0v3.75"/></g><defs><clipPath id="a"><path d="M0 0h24v24H0z"/></clipPath></defs></svg>