<svg viewBox="0 0 24 24" fill="none" xmlns="http://www.w3.org/2000/svg"><g clip-path="url(#a)" stroke="#3A3D40" stroke-width="1.25" stroke-linecap="round" stroke-linejoin="round"><path d="M22.355 22.588a.28.28 0 0 0 .426-.276V4.666a.79.79 0 0 0-.426-.662l-5.682-2.572a1.35 1.35 0 0 0-.869-.039l-7.508 2.63a1.37 1.37 0 0 1-.871-.035l-5.778-2.56a.281.281 0 0 0-.428.281l.018 17.645a.79.79 0 0 0 .429.656l5.745 2.557c.279.107.584.12.87.037l7.523-2.625c.286-.083.592-.07.87.038z"/><path d="M3.528 4.627a.294.294 0 0 0-.435.292v13.18a.75.75 0 0 0 .436.64l3.877 1.535a1.5 1.5 0 0 0 .88.024l7.964-2.668 4.218 1.664a.297.297 0 0 0 .436-.297v-12.7a.82.82 0 0 0-.42-.672l-3.816-1.857a1.32 1.32 0 0 0-.865-.056l-7.5 2.514a1.47 1.47 0 0 1-.88-.026zM14.343 9.168V4.2"/><path d="m3.094 14.202 4.834 1.77 3.16-1.085a.313.313 0 0 1 .443.316v4.007M14.344 18.268v-3.944a.82.82 0 0 1 .424-.671l.95-.455c.274-.112.579-.124.86-.034l4.328 1.668M3.093 8.2l4.687 1.875 3.721-.937M4.968 8.95V7.293M8.718 9.84V8.23M6.843 9.7V8.23"/></g><defs><clipPath id="a"><path d="M0 0h24v24H0z"/></clipPath></defs></svg>