<svg viewBox="0 0 24 24" fill="none" xmlns="http://www.w3.org/2000/svg"><g clip-path="url(#a)" stroke="#3A3D40" stroke-width="1.25" stroke-linecap="round" stroke-linejoin="round"><path d="M13.406 15.593v6.72a.47.47 0 0 0 .469.468h6.563a.47.47 0 0 0 .468-.468v-6.72"/><path d="m11.531 17.156 5.625-4.687 5.625 4.687M11.531 8.25a5.156 5.156 0 1 0-6.562 4.957v1.137l-.772.771a.235.235 0 0 0 0 .332l.772.772v.937l-.772.772a.235.235 0 0 0 0 .332l.772.771v1.407l1.24 1.24a.233.233 0 0 0 .332 0l1.24-1.24v-7.231a5.156 5.156 0 0 0 3.75-4.957"/><path d="M4.969 6.375a1.406 1.406 0 1 0 2.812 0 1.406 1.406 0 0 0-2.812 0"/><path d="M6.623 4.99a5.392 5.392 0 0 1 10.533 1.62v8.671"/><path d="M15.75 16.688a1.407 1.407 0 1 0 2.813 0 1.407 1.407 0 0 0-2.813 0"/></g><defs><clipPath id="a"><path d="M0 0h24v24H0z"/></clipPath></defs></svg>