<svg viewBox="0 0 24 24" fill="none" xmlns="http://www.w3.org/2000/svg"><path d="M19.031 21.82a.468.468 0 0 1-.773.357l-2.508-2.15-3.469 2.601a.47.47 0 0 1-.562 0l-3.469-2.6-2.508 2.149a.469.469 0 0 1-.773-.357V2.215a.94.94 0 0 1 .937-.937h12.188a.94.94 0 0 1 .937.937zM7.313 5.965h3.75M7.313 8.778h5.156M7.313 11.59h5.625M7.313 14.403h4.218" stroke="#3A3D40" stroke-width="1.25" stroke-linecap="round" stroke-linejoin="round"/><path d="M16.219 14.637a.234.234 0 1 1 0-.469M16.219 14.637a.234.234 0 0 0 0-.469M16.219 11.825a.234.234 0 1 1 0-.47M16.219 11.825a.234.234 0 0 0 0-.47M16.219 9.012a.235.235 0 1 1 0-.469M16.219 9.012a.234.234 0 0 0 0-.469M16.219 6.2a.235.235 0 1 1 0-.47M16.219 6.2a.234.234 0 0 0 0-.47" stroke="#3A3D40" stroke-width="1.25"/></svg>