<svg viewBox="0 0 24 24" fill="none" xmlns="http://www.w3.org/2000/svg"><g clip-path="url(#a)" stroke="#3A3D40" stroke-width="1.25" stroke-linecap="round" stroke-linejoin="round"><path d="M17.564 10.413a2.813 2.813 0 1 0-3.978-3.978l-4.312 4.313a.94.94 0 0 0 0 1.326l2.656 2.645a.94.94 0 0 0 1.325 0z"/><path d="M10.603 18.7a3.75 3.75 0 0 0-5.302-5.304.47.47 0 0 0 0 .663l4.636 4.64a.47.47 0 0 0 .666 0M18.947 4.115a.938.938 0 1 0 1.875 0 .938.938 0 0 0-1.875 0M19.222 4.778l-1.658 1.657M5.963 20.025a1.407 1.407 0 1 1-1.989-1.988"/><path d="M7.62 21.683a3.75 3.75 0 0 1-5.303-5.304M6.294 1.493l3.977 3.978s.663.662 0 1.325L8.945 8.122s-.663.663-1.325 0L3.642 4.145s-.663-.663 0-1.326l1.326-1.326s.663-.663 1.326 0M9.61 7.459l1.476 1.476M19.854 20.356l-3.977-3.977s-.663-.663 0-1.326l1.326-1.326s.663-.663 1.326 0l3.977 3.977s.663.663 0 1.326l-1.326 1.326s-.663.663-1.326 0M16.54 14.39l-1.476-1.477"/></g><defs><clipPath id="a"><path d="M0 0h24v24H0z"/></clipPath></defs></svg>