<svg viewBox="0 0 24 24" fill="none" xmlns="http://www.w3.org/2000/svg"><g clip-path="url(#a)" stroke="#3A3D40" stroke-width="1.25" stroke-linecap="round" stroke-linejoin="round"><path d="M2.156 1.22h19.688s.937 0 .937.937v19.688s0 .937-.937.937H2.156s-.937 0-.937-.937V2.157s0-.937.937-.937"/><path d="M10.125 5.907a1.875 1.875 0 1 0 3.75 0 1.875 1.875 0 0 0-3.75 0M13.873 5.907h6.115M4.05 5.907h6.071M6.375 12a1.875 1.875 0 1 0 3.75 0 1.875 1.875 0 0 0-3.75 0M10.121 12h9.867M4.05 12h2.321M8.25 18.095a1.875 1.875 0 1 0 3.75 0 1.875 1.875 0 0 0-3.75 0M11.996 18.095h7.992M4.05 18.095h4.2"/></g><defs><clipPath id="a"><path d="M0 0h24v24H0z"/></clipPath></defs></svg>