<svg viewBox="0 0 24 24" fill="none" xmlns="http://www.w3.org/2000/svg"><g clip-path="url(#a)" stroke="#3A3D40" stroke-width="1.25" stroke-linecap="round" stroke-linejoin="round"><path d="M2.156 1.219h19.688s.937 0 .937.937v19.688s0 .937-.937.937H2.156s-.937 0-.937-.937V2.156s0-.937.937-.937M12 12.938v-7.97M12 19.031v-2.343"/><path d="M10.125 14.813a1.875 1.875 0 1 0 3.75 0 1.875 1.875 0 0 0-3.75 0M6.844 12v7.031M6.844 4.969V8.25M4.969 10.125a1.875 1.875 0 1 0 3.75 0 1.875 1.875 0 0 0-3.75 0M17.156 12v7.031M17.156 4.969V8.25M15.281 10.125a1.875 1.875 0 1 0 3.75 0 1.875 1.875 0 0 0-3.75 0"/></g><defs><clipPath id="a"><path d="M0 0h24v24H0z"/></clipPath></defs></svg>