<svg viewBox="0 0 24 24" fill="none" xmlns="http://www.w3.org/2000/svg"><g clip-path="url(#a)" stroke="#3A3D40" stroke-width="1.25" stroke-linecap="round" stroke-linejoin="round"><path d="m1.537 22.463 6.15-6.15M6.928 1.978a3.02 3.02 0 0 1 1.875-.76h12.938a1.087 1.087 0 0 1 1.04 1.079v12.937a3.02 3.02 0 0 1-.76 1.875l-4.95 4.95a3.02 3.02 0 0 1-1.874.76h-12.9a1.087 1.087 0 0 1-1.078-1.116V8.766c.03-.694.298-1.356.76-1.875z"/><path d="M22.519 16.313H7.688V1.48"/><path d="M16.313 22.519V7.688l6.15-6.15M16.313 7.688H1.48"/></g><defs><clipPath id="a"><path d="M0 0h24v24H0z"/></clipPath></defs></svg>