<svg viewBox="0 0 24 24" fill="none" xmlns="http://www.w3.org/2000/svg"><path d="M5.422 6.913h14.784a.8.8 0 0 1 .631.308.78.78 0 0 1 .135.68l-1.629 5.89a2.35 2.35 0 0 1-.85 1.249 2.4 2.4 0 0 1-1.445.482h-9.79" stroke="#3A3D40" stroke-width="1.25" stroke-linecap="round" stroke-linejoin="round"/><path d="M3 3h.3a1.6 1.6 0 0 1 1 .35c.282.226.477.541.552.893l2.643 12.384c.075.351.27.667.552.893a1.6 1.6 0 0 0 1 .35h9.025M7.363 19.826c0 .311.125.61.349.83a1.2 1.2 0 0 0 1.682 0 1.166 1.166 0 0 0 0-1.66 1.2 1.2 0 0 0-1.682 0c-.224.22-.349.519-.349.83M15.296 19.826c0 .311.125.61.348.83a1.2 1.2 0 0 0 1.683 0 1.166 1.166 0 0 0 0-1.66 1.2 1.2 0 0 0-1.683 0c-.223.22-.348.519-.348.83" stroke="#3A3D40" stroke-width="1.25" stroke-linecap="round" stroke-linejoin="round"/></svg>