<svg viewBox="0 0 24 24" fill="none" xmlns="http://www.w3.org/2000/svg"><path d="M3.094 16.688v1.875M20.906 16.688v1.875M1.219 11.063v3.75a1.875 1.875 0 0 0 1.875 1.874h17.812a1.875 1.875 0 0 0 1.875-1.875v-3.75" stroke="#3A3D40" stroke-width="1.25" stroke-linecap="round" stroke-linejoin="round"/><path d="M19.969 11.063V12a.94.94 0 0 1-.938.938H4.97A.94.94 0 0 1 4.03 12v-.937M20.906 9.715v-.527a3.75 3.75 0 0 0-3.75-3.75H6.844a3.75 3.75 0 0 0-3.75 3.75v.54" stroke="#3A3D40" stroke-width="1.25" stroke-linecap="round" stroke-linejoin="round"/><path d="M1.219 11.063a1.406 1.406 0 0 1 2.812 0M22.781 11.063a1.406 1.406 0 1 0-2.812 0M12 5.438v7.5" stroke="#3A3D40" stroke-width="1.25" stroke-linecap="round" stroke-linejoin="round"/></svg>