<svg viewBox="0 0 24 24" fill="none" xmlns="http://www.w3.org/2000/svg"><path d="m1.307 19.061 1.574 2.372m7.13-12.935 5.983 9.013M9.39 18.917a1.992 1.992 0 1 1-3.157 2.417l-.823-1.239m-1.296-7.664-.63-.666a.47.47 0 0 1 0-.644l1.688-1.78-.562-2.388a.47.47 0 0 1 .322-.556l2.351-.7.7-2.352a.47.47 0 0 1 .548-.325l2.386.567 1.781-1.688a.47.47 0 0 1 .644 0l1.78 1.688 2.388-.563a.47.47 0 0 1 .557.323l.7 2.351 2.351.7a.47.47 0 0 1 .323.563l-.56 2.376 1.688 1.782a.47.47 0 0 1 0 .643l-1.687 1.781.567 2.386a.47.47 0 0 1-.322.558l-2.352.7-.7 2.351a.47.47 0 0 1-.558.322l-2.386-.562-1.781 1.687a.47.47 0 0 1-.643 0l-.339-.32m3.312-3.629L2.566 20.96l-.944-1.423 8.704-10.563z" stroke="currentColor" vector-effect="non-scaling-stroke" stroke-width="1.5" stroke-linecap="round" stroke-linejoin="round"/></svg>