<svg viewBox="0 0 24 24" fill="none" xmlns="http://www.w3.org/2000/svg"><path d="M1.219 7.316H22.78M4.25 4.973h.5m2.305 0h.5m2.304 0h.5m10.547-2.344H3.094a1.875 1.875 0 0 0-1.875 1.875v15a1.875 1.875 0 0 0 1.875 1.875h17.812a1.875 1.875 0 0 0 1.875-1.875v-15a1.875 1.875 0 0 0-1.875-1.875M12 18.094c-3.624 0-6.562-3.75-6.562-3.75s2.938-3.75 6.562-3.75 6.563 3.75 6.563 3.75-2.939 3.75-6.563 3.75m0-1.403a2.344 2.344 0 1 0 0-4.687 2.344 2.344 0 0 0 0 4.687" stroke="currentColor" vector-effect="non-scaling-stroke" stroke-width="1.5" stroke-linecap="round" stroke-linejoin="round"/></svg>