<svg viewBox="0 0 24 24" fill="none" xmlns="http://www.w3.org/2000/svg"><path d="M16.55 4.969h2.481m0 0 3.75 11.25m-3.75-11.25V2.625a1.406 1.406 0 0 0-1.406-1.406H6.375a1.406 1.406 0 0 0-1.406 1.406v2.344m17.812 11.25H1.22m21.562 0v4.218a1.406 1.406 0 0 1-1.406 1.407H2.625a1.406 1.406 0 0 1-1.406-1.407V16.22m0 0 3.75-11.25m0 0h2.5m-3.75 3.75H20.28M4.03 21.844v.937m15.938-.937v.937M16.95 6.227a.47.47 0 0 1-.445.617H7.5a.47.47 0 0 1-.445-.617L7.78 4.03h8.1a.47.47 0 0 1 .445.32z" stroke="currentColor" vector-effect="non-scaling-stroke" stroke-width="1.5" stroke-linecap="round" stroke-linejoin="round"/></svg>