<svg viewBox="0 0 24 24" fill="none" xmlns="http://www.w3.org/2000/svg"><path d="M20.906 1.219h-15a1.875 1.875 0 0 0-1.875 1.875m0 0a1.875 1.875 0 0 0 1.875 1.875h14.532a.47.47 0 0 1 .468.468v16.876a.47.47 0 0 1-.468.468H5.906a1.875 1.875 0 0 1-1.875-1.875zm1.875 0H19.97M3.094 7.78h1.875m-1.875 2.813h1.875m-1.875 2.812h1.875M3.094 16.22h1.875M3.094 19.03h1.875m12.656-5.625-4.356-4.355a.47.47 0 0 0-.663 0L8.25 13.406M16.219 12v5.156a.94.94 0 0 1-.938.938h-4.687a.94.94 0 0 1-.938-.938V12" stroke="currentColor" vector-effect="non-scaling-stroke" stroke-width="1.5" stroke-linecap="round" stroke-linejoin="round"/></svg>