<svg viewBox="0 0 24 24" fill="none" xmlns="http://www.w3.org/2000/svg"><path d="m2.156 15.281.693 4.5a1.875 1.875 0 0 0 1.853 1.594h14.595a1.875 1.875 0 0 0 1.854-1.594l.693-4.5m-19.688 0a.937.937 0 0 1-.937-.937V8.25a1.875 1.875 0 0 1 1.875-1.875h17.812a1.875 1.875 0 0 1 1.875 1.875v6.094a.94.94 0 0 1-.937.937m-19.688 0h7.969m11.719 0h-7.969m-3.75 0c0 .622.197 1.218.55 1.658.35.44.828.686 1.325.686s.974-.247 1.326-.686c.351-.44.549-1.036.549-1.658m-3.75 0c0-.621.197-1.218.55-1.657.35-.44.828-.687 1.325-.687s.974.247 1.326.687c.351.44.549 1.036.549 1.657m2.344-8.906H7.78v-.937a2.813 2.813 0 0 1 2.813-2.813h2.812a2.813 2.813 0 0 1 2.813 2.813z" stroke="currentColor" vector-effect="non-scaling-stroke" stroke-width="1.5" stroke-linecap="round" stroke-linejoin="round"/></svg>