<svg viewBox="0 0 24 24" fill="none" xmlns="http://www.w3.org/2000/svg"><path d="M20.906 6.375v10.313a.937.937 0 0 1-.937.937H3.094M22.78 8.25v10.313a.937.937 0 0 1-.937.937H4.969m-1.872-5.625h1.875m10.313-7.5h1.875M2.16 4.5h15.938s.937 0 .937.938v9.375s0 .937-.937.937H2.16s-.938 0-.938-.937V5.438s0-.938.938-.938m5.156 5.625a2.812 2.812 0 1 0 5.625 0 2.812 2.812 0 0 0-5.625 0" stroke="currentColor" vector-effect="non-scaling-stroke" stroke-width="1.5" stroke-linecap="round" stroke-linejoin="round"/></svg>