<svg viewBox="0 0 24 24" fill="none" xmlns="http://www.w3.org/2000/svg"><path d="M10.594 9.656v3.281a.47.47 0 0 1-.469.47H5.438a.47.47 0 0 1-.47-.47v-3.28m-1.876-.47L7.779 4.97l4.688 4.219m2.814-3.282 1.082 1.219a.47.47 0 0 0 .706.05l2.9-2.675m-4.688 7.031 1.082 1.219a.468.468 0 0 0 .706.05l2.9-2.675m-15.94 6.094h7.5m-7.5 2.812h7.5m11.168-1.875h-4.603a.94.94 0 0 0-.938.938v4.603m5.625-5.929a.94.94 0 0 1-.274.663l-5.076 5.076a.94.94 0 0 1-.663.274H2.156a.937.937 0 0 1-.937-.937V2.156a.937.937 0 0 1 .937-.937h19.688a.94.94 0 0 1 .937.937z" stroke="currentColor" vector-effect="non-scaling-stroke" stroke-width="1.5" stroke-linecap="round" stroke-linejoin="round"/></svg>