<svg viewBox="0 0 24 24" fill="none" xmlns="http://www.w3.org/2000/svg"><path d="M15.281 1.336v5.039a.47.47 0 0 0 .469.469h5.042m-6.429 7.031v3.75a.47.47 0 0 1-.468.469H9.207a.47.47 0 0 1-.469-.469v-3.75m-1.836 0 4.332-3.96a.52.52 0 0 1 .691 0l4.294 3.96m4.687 8.438a.47.47 0 0 1-.468.468H3.563a.47.47 0 0 1-.47-.468V1.688a.47.47 0 0 1 .47-.47h11.25c.296.017.579.134.8.333l4.961 4.96c.199.222.316.505.332.801z" stroke="currentColor" vector-effect="non-scaling-stroke" stroke-width="1.5" stroke-linecap="round" stroke-linejoin="round"/></svg>