<svg viewBox="0 0 24 24" fill="none" xmlns="http://www.w3.org/2000/svg"><path d="M8.719 22.781H2.156a.937.937 0 0 1-.937-.937V2.156a.937.937 0 0 1 .937-.937h12.462a.94.94 0 0 1 .663.275l3.476 3.475a.94.94 0 0 1 .274.663v4.962m-9.86 4.663a4.687 4.687 0 1 1 5.151-4.21M9.656 7.782v2.813h1.875m.938 5.444v5.805a.94.94 0 0 0 .937.937h6.563a.94.94 0 0 0 .937-.937v-5.805m-10.312 1.586 5.488-4.644a.94.94 0 0 1 1.211 0l5.488 4.644m-4.687 5.156H15.28V19.97a1.406 1.406 0 0 1 2.813 0z" stroke="currentColor" vector-effect="non-scaling-stroke" stroke-width="1.5" stroke-linecap="round" stroke-linejoin="round"/></svg>