<svg viewBox="0 0 24 24" fill="none" xmlns="http://www.w3.org/2000/svg"><path d="M1.38 10.111h5.705a2.8 2.8 0 0 1 1.99.823l1.05 1.051a2.813 2.813 0 0 1 .113 3.858L8.961 17.28a2.8 2.8 0 0 0-.711 1.868v2.949M19.745 4.486h-5.438a2.11 2.11 0 1 0 0 4.219h.405a2.81 2.81 0 0 1 2.344 1.251l2.08 3.121a2.81 2.81 0 0 0 2.343 1.253h1.051M1.219 11.986a10.781 10.781 0 1 0 21.563 0 10.781 10.781 0 0 0-21.563 0" stroke="currentColor" vector-effect="non-scaling-stroke" stroke-width="1.5" stroke-linecap="round" stroke-linejoin="round"/></svg>