<svg viewBox="0 0 24 24" fill="none" xmlns="http://www.w3.org/2000/svg"><path d="M13.873 5.907h6.115m-15.937 0h6.07m0 6.094h9.867M4.051 12h2.32m1.879 6.094a1.875 1.875 0 1 0 3.75 0 1.875 1.875 0 0 0-3.75 0m0 0h-4.2m7.946 0h7.992M2.156 1.22h19.688s.937 0 .937.937v19.688s0 .937-.937.937H2.156s-.937 0-.937-.937V2.157s0-.937.937-.937m7.969 4.687a1.875 1.875 0 1 0 3.75 0 1.875 1.875 0 0 0-3.75 0m-3.75 6.094a1.875 1.875 0 1 0 3.75 0 1.875 1.875 0 0 0-3.75 0" stroke="currentColor" vector-effect="non-scaling-stroke" stroke-width="1.5" stroke-linecap="round" stroke-linejoin="round"/></svg>