<svg viewBox="0 0 24 24" fill="none" xmlns="http://www.w3.org/2000/svg"><path d="m4.716 18.395 3.787-6.699m2.933-.514 3.003 2.574m2.574-.682 2.63-7.307M1.218 20.437a2.344 2.344 0 1 0 4.688 0 2.344 2.344 0 0 0-4.688 0M7.313 9.655a2.344 2.344 0 1 0 4.687 0 2.344 2.344 0 0 0-4.687 0m6.562 5.625a2.343 2.343 0 1 0 4.687 0 2.343 2.343 0 0 0-4.687 0m4.219-11.718a2.343 2.343 0 1 0 4.687 0 2.343 2.343 0 0 0-4.687 0" stroke="currentColor" vector-effect="non-scaling-stroke" stroke-width="1.5" stroke-linecap="round" stroke-linejoin="round"/></svg>