<svg viewBox="0 0 24 24" fill="none" xmlns="http://www.w3.org/2000/svg"><path d="M20.438 13.406v7.031a.94.94 0 0 1-.938.938h-8.437a.94.94 0 0 1-.938-.937v-7.032M8.25 15.281l6.7-6.7a.47.47 0 0 1 .663 0l6.7 6.7M5.438 5.438h-3.75m3.75 0v16.406a.47.47 0 0 1-.47.468H2.157a.47.47 0 0 1-.469-.468V5.438m3.75 0v-3.75m0 3.75h16.407a.47.47 0 0 0 .468-.47V2.157a.47.47 0 0 0-.468-.469H5.438m-3.75 3.75v-3.28a.47.47 0 0 1 .468-.47h3.282m2.812 3.75V3.563M12 5.438V3.563m3.75 1.874V3.563m3.75 1.876V3.563M5.439 19.5H3.563m1.874-3.75H3.563M5.438 12H3.563m1.874-3.75H3.563m13.126 13.125v-3.75a1.407 1.407 0 0 0-2.813 0v3.75" stroke="currentColor" vector-effect="non-scaling-stroke" stroke-width="1.5" stroke-linecap="round" stroke-linejoin="round"/></svg>