<svg viewBox="0 0 24 24" fill="none" xmlns="http://www.w3.org/2000/svg"><path d="M4.031 11.531v9.844a.47.47 0 0 0 .469.469h7.969M1.219 11.062l10.145-9.266a.937.937 0 0 1 1.265 0l10.152 9.267m0 11.718-3.045-3.045M11.06 5.906h1.875s.468 0 .468.469V8.25s0 .469-.468.469H11.06s-.47 0-.47-.469V6.375s0-.469.47-.469m1.409 10.809a4.244 4.244 0 0 0 5.87 3.922 4.244 4.244 0 0 0 1.378-6.925 4.246 4.246 0 0 0-7.248 3.003" stroke="currentColor" vector-effect="non-scaling-stroke" stroke-width="1.5" stroke-linecap="round" stroke-linejoin="round"/></svg>