<svg viewBox="0 0 24 24" fill="none" xmlns="http://www.w3.org/2000/svg"><path d="M10.438 9.786h1.406a.47.47 0 0 1 .469.469v5.437a.94.94 0 0 0 .937.938h1.406-4.219m1.559-10.214a.246.246 0 0 0-.241.255.255.255 0 0 0 .254.245h.005a.246.246 0 0 0 .24-.255.255.255 0 0 0-.25-.245H12m0 15.898c5.695 0 10.313-4.618 10.313-10.313S17.694 1.688 12 1.688 1.688 6.306 1.688 12.001 6.305 22.314 12 22.314" stroke="currentColor" vector-effect="non-scaling-stroke" stroke-width="1.5" stroke-linecap="round" stroke-linejoin="round"/></svg>