<svg viewBox="0 0 24 24" fill="none" xmlns="http://www.w3.org/2000/svg"><path d="M7.781 5.803v15m0-15L1.96 1.275a.46.46 0 0 0-.487 0 .45.45 0 0 0-.253.413v14.287a.48.48 0 0 0 .197.384l6.093 4.35a.45.45 0 0 0 .544 0l4.388-3.084M7.78 5.803l6.29-4.5a.48.48 0 0 1 .273-.084m0 9.375V1.219m0 0c.097 0 .192.029.272.084l6.093 4.36a.46.46 0 0 1 .197.374v4.088m-2.344 1.406a4.21 4.21 0 0 1 4.22 4.219c0 1.875-2.738 5.512-3.75 6.853a.544.544 0 0 1-.643.147.5.5 0 0 1-.183-.147c-1.06-1.34-3.75-4.978-3.75-6.853a4.21 4.21 0 0 1 4.106-4.219m-1.64 4.219a1.641 1.641 0 1 0 3.282 0 1.641 1.641 0 0 0-3.282 0" stroke="currentColor" vector-effect="non-scaling-stroke" stroke-width="1.5" stroke-linecap="round" stroke-linejoin="round"/></svg>