<svg viewBox="0 0 24 24" fill="none" xmlns="http://www.w3.org/2000/svg"><path d="M16.219 22.781v-2.343a1.406 1.406 0 1 1 2.812 0v2.343m-4.687-5.454v4.985a.47.47 0 0 0 .469.47h5.624a.47.47 0 0 0 .47-.47v-4.985m-8.438 1.704 4.841-4.4a.47.47 0 0 1 .63 0l4.841 4.4m-4.5-6.576a4.686 4.686 0 0 0-6.808-2.643m-3.692 12.97.469-5.626h2.344v-3.281a4.688 4.688 0 0 0-9.375 0v3.281h2.343l.47 5.625zM2.625 4.5a3.281 3.281 0 1 0 6.562 0 3.281 3.281 0 0 0-6.562 0m8.438.469a2.812 2.812 0 1 0 5.624 0 2.812 2.812 0 0 0-5.625 0" stroke="currentColor" vector-effect="non-scaling-stroke" stroke-width="1.5" stroke-linecap="round" stroke-linejoin="round"/></svg>