<svg viewBox="0 0 24 24" fill="none" xmlns="http://www.w3.org/2000/svg"><path d="M10.594 16.219H2.156a.94.94 0 0 1-.937-.938V2.156a.937.937 0 0 1 .937-.937h15.938a.94.94 0 0 1 .937.937V8.72m-14.175 2.09 2.99-2.962a.937.937 0 0 1 1.342 0l.937.937a.94.94 0 0 0 .694.282.94.94 0 0 0 .675-.328L15.28 4.5m0 0H12.47m2.812 0v2.813m-.058 10.669v-.5m.25.25h-.5m5.054.25v-.5m.25.25h-.5m-2.152.25v-.5m.25.25h-.5m-2.152 2.742v-.5m.25.25h-.5m5.054.25v-.5m.25.25h-.5m-2.152.25v-.5m.25.25h-.5m3.531-5.411a.442.442 0 0 1-.468.468h-5.625a.45.45 0 0 1-.47-.487v-1.857a.442.442 0 0 1 .47-.468h5.624a.44.44 0 0 1 .47.469zm.938-4.22h-8.438a.94.94 0 0 0-.937.938v10.313a.94.94 0 0 0 .937.937h8.438a.94.94 0 0 0 .937-.937V11.53a.94.94 0 0 0-.937-.937" stroke="currentColor" vector-effect="non-scaling-stroke" stroke-width="1.5" stroke-linecap="round" stroke-linejoin="round"/></svg>