<svg viewBox="0 0 24 24" fill="none" xmlns="http://www.w3.org/2000/svg"><path d="M1.223 22.313h21.562m-17.816 0v-4.22a.47.47 0 0 0-.469-.468H2.625a.47.47 0 0 0-.469.469v4.218m8.438 0v-8.906a.47.47 0 0 0-.469-.469H8.25a.47.47 0 0 0-.469.47v8.906m8.438 0V15.28a.47.47 0 0 0-.469-.469h-1.875a.47.47 0 0 0-.469.47v7.03m8.438 0V8.72a.47.47 0 0 0-.469-.469H19.5a.47.47 0 0 0-.469.469v13.594m1.875-20.625-5.268 5.677a1.88 1.88 0 0 1-1.97.503l-3.486-1.163a1.88 1.88 0 0 0-1.793.338l-4.826 4.02M17.16 1.688h3.75v3.75" stroke="currentColor" vector-effect="non-scaling-stroke" stroke-width="1.5" stroke-linecap="round" stroke-linejoin="round"/></svg>