<svg viewBox="0 0 24 24" fill="none" xmlns="http://www.w3.org/2000/svg"><path d="M1.688 22.313h20.625M12 12v1.406M9.188 3.31a5.45 5.45 0 0 0 3.909 1.66 5.5 5.5 0 0 0 2.156-.469m1.2 8.438a4.688 4.688 0 0 0-8.906 0m10.547 9.375H5.906l-1.584-6.338a.94.94 0 0 1 .503-1.068.9.9 0 0 1 .406-.095H18.77a.94.94 0 0 1 .74.357.94.94 0 0 1 .17.806zM8.719 4.968a3.281 3.281 0 1 0 6.562 0 3.281 3.281 0 0 0-6.562 0m2.11 13.36a1.172 1.172 0 1 0 2.343-.001 1.172 1.172 0 0 0-2.344 0" stroke="currentColor" vector-effect="non-scaling-stroke" stroke-width="1.5" stroke-linecap="round" stroke-linejoin="round"/></svg>