<svg viewBox="0 0 24 24" fill="none" xmlns="http://www.w3.org/2000/svg"><path d="M12.004 20.906a.938.938 0 1 1 0 1.876.938.938 0 0 1 0-1.876m0 0v-1.875m-9.844 0h19.688M12.004 8.25v2.813h1.875M3.098 3.093H20.91v15.938H3.098zm19.683-.937a.937.937 0 0 1-.937.938H2.156a.937.937 0 1 1 0-1.875h19.688a.94.94 0 0 1 .937.937M7.316 11.063a4.688 4.688 0 1 0 9.375 0 4.688 4.688 0 0 0-9.375 0" stroke="currentColor" vector-effect="non-scaling-stroke" stroke-width="1.5" stroke-linecap="round" stroke-linejoin="round"/></svg>