<svg viewBox="0 0 24 24" fill="none" xmlns="http://www.w3.org/2000/svg"><path d="M1.219 17.156h17.344a2.345 2.345 0 0 0 2.343-2.343c0-1.207-.005-.91-7.5-8.672a5.82 5.82 0 0 0-3.515-1.172H1.219m17.429 6.562h-7.585a2.34 2.34 0 0 1-1.876-.937L6.376 7.78h8.62m4.177 4.298a3.48 3.48 0 0 0-2.485 3.202c.012.67.219 1.321.595 1.875m-7.157 0-2.344-2.343a2.33 2.33 0 0 0-1.406-.47H1.219m21.562 4.69H1.22m8.437-1.877a1.406 1.406 0 0 0 2.813 0m-7.5 0a1.406 1.406 0 0 0 2.812 0" stroke="currentColor" vector-effect="non-scaling-stroke" stroke-width="1.5" stroke-linecap="round" stroke-linejoin="round"/></svg>