<svg viewBox="0 0 24 24" fill="none" xmlns="http://www.w3.org/2000/svg"><path d="M1.213 5.438h21.563M8.244 16.218a2.344 2.344 0 1 1-2.343-2.343m2.343 2.344a2.344 2.344 0 0 0-2.343-2.344m2.343 2.344a2.343 2.343 0 1 0 2.344-2.344m-2.344 2.344a2.344 2.344 0 0 1 2.344-2.344m-4.687 0V5.438m4.687 8.437V5.438m8.63 7.192-4.411-7.193m7.634 7.97a2.343 2.343 0 1 1-3.995 2.448 2.343 2.343 0 0 1 3.995-2.449" stroke="currentColor" vector-effect="non-scaling-stroke" stroke-width="1.5" stroke-linecap="round" stroke-linejoin="round"/></svg>