<svg viewBox="0 0 24 24" fill="none" xmlns="http://www.w3.org/2000/svg"><path d="M3.084 10.228a8 8 0 0 1-.056-.937 7.04 7.04 0 0 1 13.585-2.607m-1.566 7.585 2.034 2.034m.553-14.381h3.75v3.75M17.1 9.712a7.04 7.04 0 0 1-13.34 2.7m17.615-10.49-8.344 8.353a.937.937 0 0 1-1.322 0l-2.24-2.25a.937.937 0 0 0-1.322 0l-6.881 6.881m21.047 4.772a1.405 1.405 0 1 1-1.988 1.988l-3.637-3.647a.937.937 0 0 1 0-1.331l.665-.666a.94.94 0 0 1 1.331 0z" stroke="currentColor" vector-effect="non-scaling-stroke" stroke-width="1.5" stroke-linecap="round" stroke-linejoin="round"/></svg>