<svg viewBox="0 0 24 24" fill="none" xmlns="http://www.w3.org/2000/svg"><path d="M17.223 17.223A9.376 9.376 0 1 1 3.964 3.963a9.376 9.376 0 0 1 13.259 13.26m0 0 5.558 5.558M15.75 15.75s-1.894-.836-3.217-1.327c-.869-.322-.745-1.787-.242-2.338a4.01 4.01 0 0 0 1.18-3.31A2.812 2.812 0 0 0 10.594 5.7a2.813 2.813 0 0 0-2.877 3.074 4.01 4.01 0 0 0 1.18 3.31c.502.55.626 2.016-.242 2.339-1.324.49-3.217 1.327-3.217 1.327" stroke="currentColor" vector-effect="non-scaling-stroke" stroke-width="1.5" stroke-linecap="round" stroke-linejoin="round"/></svg>