<svg viewBox="0 0 24 24" fill="none" xmlns="http://www.w3.org/2000/svg"><path d="m4.5 8.719 2.813-5.625M19.5 8.719l-2.812-5.625m-5.157 11.25v3.281m4.219-3.281-.469 3.281m-7.969-3.281.47 3.281m13.593-6.094H2.625l1.594 7.976a1.836 1.836 0 0 0 1.846 1.4h11.87a1.836 1.836 0 0 0 1.846-1.4zM2.156 8.72h19.688s.937 0 .937.937v.938s0 .937-.937.937H2.156s-.937 0-.937-.937v-.938s0-.937.937-.937" stroke="currentColor" vector-effect="non-scaling-stroke" stroke-width="1.5" stroke-linecap="round" stroke-linejoin="round"/></svg>