<svg viewBox="0 0 24 24" fill="none" xmlns="http://www.w3.org/2000/svg"><path d="M22.781 22.781V2.156a.937.937 0 0 0-.937-.937H2.098m13.183 3.75v-3.75M4.97 4.969v-3.75m11.25 12.187V8.72m-.938 0h1.875M4.031 13.406V8.72h.703a1.172 1.172 0 1 1 0 2.344h-.703m1.875 2.343L4.5 11.062m7.031 2.344V8.72l1.875 4.687V8.72m-3.75 4.687H8.72a.937.937 0 0 1-.938-.937V9.656a.937.937 0 0 1 .938-.937h.937M7.781 11.53h1.875m-7.5-6.562h16.875s.938 0 .938.937V16.22s0 .937-.938.937H2.156s-.937 0-.937-.937V5.906s0-.937.937-.937" stroke="currentColor" vector-effect="non-scaling-stroke" stroke-width="1.5" stroke-linecap="round" stroke-linejoin="round"/></svg>