<svg viewBox="0 0 24 24" fill="none" xmlns="http://www.w3.org/2000/svg"><path d="M4.219 6.512h1.75m-1.75 10.879h1.75m2.86-10.879h1.75m-1.75 10.879h1.75m2.858-10.879h1.75m-1.75 10.879h1.75m2.86-10.879h1.75m-1.75 10.879h1.75m2.515-8.672a.47.47 0 0 0 .47-.469V5.906a1.875 1.875 0 0 0-1.876-1.875H3.094a1.875 1.875 0 0 0-1.875 1.875V8.25a.47.47 0 0 0 .468.469 3.281 3.281 0 1 1 0 6.562.47.47 0 0 0-.468.469v2.344a1.875 1.875 0 0 0 1.875 1.875h17.812a1.875 1.875 0 0 0 1.875-1.875V15.75a.47.47 0 0 0-.468-.469 3.281 3.281 0 1 1 0-6.562m-10.745.179a.468.468 0 0 1 .864 0l.778 1.86h1.51a.47.47 0 0 1 .294.833l-1.396 1.125.674 1.798a.47.47 0 0 1-.71.547L12 13.936l-1.58 1.125a.469.469 0 0 1-.712-.546l.674-1.798-1.396-1.125a.468.468 0 0 1 .294-.833h1.501z" stroke="currentColor" vector-effect="non-scaling-stroke" stroke-width="1.5" stroke-linecap="round" stroke-linejoin="round"/></svg>