<svg viewBox="0 0 24 24" fill="none" xmlns="http://www.w3.org/2000/svg"><path d="M11.023 11.531h8.438a1.406 1.406 0 0 1 0 2.813h-4.688M2.117 12.938h2.115a.94.94 0 0 0 .834-.509c1.138-2.206 3.61-3.71 5.02-3.71h3.75a1.406 1.406 0 0 1 1.406 1.406v1.406m4.22 2.813h.938a1.407 1.407 0 0 1 0 2.812h-3.75m2.81 0a1.406 1.406 0 0 1 0 2.813h-1.874m0 0h-3.75m3.75 0a1.406 1.406 0 1 1 0 2.812H9.148a4.68 4.68 0 0 1-3.804-1.952.94.94 0 0 0-.764-.392H2.117M14.565 1.22v1.3m0 2.216v1.3m3.136-4.816.423 1.229m.721 2.095.424 1.23m.721 2.095.424 1.23m-9.007-7.88-.423 1.23m-.722 2.095-.423 1.23" stroke="currentColor" vector-effect="non-scaling-stroke" stroke-width="1.5" stroke-linecap="round" stroke-linejoin="round"/></svg>