<svg viewBox="0 0 24 24" fill="none" xmlns="http://www.w3.org/2000/svg"><path d="M13.875 20.906a1.875 1.875 0 1 1-3.75 0M4.031 9.188A5.156 5.156 0 0 1 9.188 4.03m-7.97 5.157a7.97 7.97 0 0 1 7.97-7.97m10.78 7.97a5.157 5.157 0 0 0-5.155-5.157m7.968 5.157a7.97 7.97 0 0 0-7.968-7.97m3.28 17.813v-4.218a6.09 6.09 0 0 0-3.75-5.626 2.344 2.344 0 0 0-4.687 0 6.09 6.09 0 0 0-3.75 5.626v4.218a1.875 1.875 0 0 1-1.875 1.875H19.97a1.875 1.875 0 0 1-1.875-1.875" stroke="#8897A6" stroke-linecap="round" stroke-linejoin="round"/></svg>