<svg viewBox="0 0 24 24" fill="none" xmlns="http://www.w3.org/2000/svg"><path d="M3.094 11.531h17.812m-17.812 0a.94.94 0 0 0-.938.938v3.75h19.688v-3.75a.94.94 0 0 0-.938-.938m-17.812 0V6.844m17.812 4.687V6.844m.938 11.718a.94.94 0 0 0 .937-.937v-1.406H1.22v1.406a.937.937 0 0 0 .937.938m19.688 0H2.156m19.688 0v1.875M2.156 18.563v1.875m.938-13.594a1.875 1.875 0 0 1 1.875-1.875H19.03a1.875 1.875 0 0 1 1.875 1.875m-17.812 0V3.562m17.812 3.282V3.562m-4.687 7.032a.94.94 0 0 1-.938.937H8.72a.937.937 0 0 1-.938-.937v-.938a.94.94 0 0 1 .6-.872c1.154-.45 2.38-.686 3.619-.693 1.239.007 2.465.243 3.619.693a.94.94 0 0 1 .6.872z" stroke="#8897A6" stroke-linecap="round" stroke-linejoin="round"/></svg>