<svg viewBox="0 0 24 24" fill="none" xmlns="http://www.w3.org/2000/svg"><path d="M17.625 13.406H19.5a.47.47 0 0 0 .469-.469V8.72M8.719 7.313 15.44 1.48a.48.48 0 0 1 .618 0l6.722 5.832m-4.218-6.094h1.875a.47.47 0 0 1 .468.468v1.876M8.72 8.718V22.78m-7.5-7.031h15M3.562 12.469h2.813m4.688 0h2.812m-2.812 5.625h2.812m-2.812 1.875h2.812m-8.906-8.907v2.813m-.994 4.163 1.988 1.987m0-1.987-1.988 1.987M3.431 8.719h10.575s2.213 0 2.213 2.212v9.638s0 2.212-2.213 2.212H3.431s-2.212 0-2.212-2.212V10.93s0-2.212 2.212-2.212" stroke="#8897A6" stroke-linecap="round" stroke-linejoin="round"/></svg>