<svg viewBox="0 0 24 24" fill="none" xmlns="http://www.w3.org/2000/svg"><path d="m15.445 16.778 3.422-2.054m-3.269 3.92 3.116 1.246m-9.058-1.796h-7.5a.94.94 0 0 1-.937-.938V4.031a.937.937 0 0 1 .937-.937h16.875a.94.94 0 0 1 .938.937v5.625M5.906 1.22v4.687m9.375-4.687v4.687M1.22 7.782h18.75M11.53 17.86a2.11 2.11 0 1 0 4.219 0 2.11 2.11 0 0 0-4.219 0m7.031 2.813a2.11 2.11 0 1 0 4.22 0 2.11 2.11 0 0 0-4.22 0m0-7.031a2.11 2.11 0 1 0 4.219 0 2.11 2.11 0 0 0-4.218 0" stroke="#8897A6" stroke-linecap="round" stroke-linejoin="round"/></svg>