<svg viewBox="0 0 24 24" fill="none" xmlns="http://www.w3.org/2000/svg"><path d="m2.156 13.406 7.848-7.844a.94.94 0 0 1 1.246-.07l3.355 2.685a.94.94 0 0 0 1.27-.094l6.438-6.864m-6.56 0h6.563v6.094m-7.968 4.218h7.5s.468 0 .468.469v1.875s0 .469-.468.469h-7.5s-.47 0-.47-.469V12s0-.469.47-.469m-.938 2.813h7.5s.469 0 .469.469v1.874s0 .47-.469.47h-7.5s-.469 0-.469-.47v-1.875s0-.468.469-.468m.938 2.812h7.5s.468 0 .468.469V19.5s0 .469-.468.469h-7.5s-.47 0-.47-.469v-1.875s0-.469.47-.469m-.938 2.813h7.5s.469 0 .469.468v1.875s0 .47-.469.47h-7.5s-.469 0-.469-.47v-1.875s0-.468.469-.468M2.16 17.156h7.5s.469 0 .469.469V19.5s0 .469-.469.469h-7.5s-.469 0-.469-.469v-1.875s0-.469.469-.469m.938 2.813h7.5s.468 0 .468.468v1.875s0 .47-.469.47h-7.5s-.468 0-.468-.47v-1.875s0-.468.469-.468" stroke="#8897A6" stroke-linecap="round" stroke-linejoin="round"/></svg>