<svg viewBox="0 0 24 24" fill="none" xmlns="http://www.w3.org/2000/svg"><path d="m13.406 12.656-1.475-2.361a.47.47 0 0 0-.795 0L8.66 14.25l-1.01-1.614a.468.468 0 0 0-.794 0l-2.826 4.52h3.75m1.875 5.625h-7.5a.937.937 0 0 1-.937-.937V2.156a.937.937 0 0 1 .937-.937h12.462c.25 0 .487.099.663.274l3.476 3.476a.94.94 0 0 1 .274.663v4.962m-6.562 5.445v5.805a.94.94 0 0 0 .937.937h6.563a.94.94 0 0 0 .937-.937v-5.805m-10.312 1.586 5.488-4.643a.94.94 0 0 1 1.211 0l5.488 4.643M4.97 7.781a1.875 1.875 0 1 0 3.75 0 1.875 1.875 0 0 0-3.75 0m13.125 15H15.28V19.97a1.406 1.406 0 0 1 2.813 0z" stroke="#8897A6" stroke-linecap="round" stroke-linejoin="round"/></svg>