<svg viewBox="0 0 24 24" fill="none" xmlns="http://www.w3.org/2000/svg"><path d="M12 14.63c-.808-2.482-3.665-1.737-3.665.492 0 1.832 3.136 4.243 3.665 4.637.529-.394 3.665-2.806 3.665-4.637 0-2.227-2.857-2.972-3.665-.492" stroke="#8897A6" stroke-linecap="round" stroke-linejoin="round"/><path d="M20.896 13.671c-.007 6.848-7.425 11.12-13.352 7.69a8.9 8.9 0 0 1-4.44-7.69 8.76 8.76 0 0 1 2.643-6.28.468.468 0 0 1 .769.175c.361.93.88 1.79 1.533 2.543a8.84 8.84 0 0 0 .341-8.024.458.458 0 0 1 .542-.634c6.322 1.57 9.07 7.726 8.677 11.3a8.5 8.5 0 0 0 2.382-1.199.464.464 0 0 1 .712.299c.128.598.193 1.208.193 1.82" stroke="#8897A6" stroke-linecap="round" stroke-linejoin="round"/></svg>