<svg viewBox="0 0 24 24" fill="none" xmlns="http://www.w3.org/2000/svg"><path d="M16.96 12.938c-.694.806.674 1.087 0 1.874m2.324-3.28c-1.19 1.406 1.182 1.874 0 3.262M6.375 18.562h6.563m.937-3.75H2.156a1.08 1.08 0 0 1-.937-.937V2.625a1.08 1.08 0 0 1 .937-.937h15.938a1.08 1.08 0 0 1 .937.937v7.031M4.5 11.062h10.313m0 0V8.72a.47.47 0 0 0-.47-.469h-.937a.47.47 0 0 0-.469.469v2.344zm6.093 7.032h.469a1.406 1.406 0 1 1 0 2.812h-.525m-4.163 1.407a1.875 1.875 0 0 1-1.875-1.875v-3.75h6.094v3.75a1.875 1.875 0 0 1-1.875 1.875zm-4.218-3.75H7.78a9.4 9.4 0 0 0 1.407-3.75h1.874a9.5 9.5 0 0 0 1.407 3.75M5.906 4.969h.938a.47.47 0 0 1 .468.468v5.626H5.438V5.437a.47.47 0 0 1 .47-.468m3.75 1.406h.938a.47.47 0 0 1 .469.469v4.219H9.187v-4.22a.47.47 0 0 1 .47-.468" stroke="#8897A6" stroke-linecap="round" stroke-linejoin="round"/></svg>