<svg viewBox="0 0 24 24" fill="none" xmlns="http://www.w3.org/2000/svg"><path d="M5.906 5.906H1.22m4.687 0v16.875m0-16.875V1.22m0 4.687h16.875m-21.562 0v15.938a.94.94 0 0 0 .937.937h3.75M1.22 5.906v-3.75a.937.937 0 0 1 .937-.937h3.75m0 21.562h10.782a2.6 2.6 0 0 0 1.6-.663l3.83-3.83c.397-.442.631-1.007.663-1.6V5.906m0 0v-3.75a.937.937 0 0 0-.937-.937H5.906m11.25 21.498v-4.623a.94.94 0 0 1 .938-.938h4.623M8.719 5.906V3.094m3.75 2.812V4.031m3.75 1.875V4.031m3.75 1.875V3.094M5.906 19.969H3.094m2.812-3.75H4.031m1.875-3.75H4.031m1.875-3.75H3.094" stroke="#8897A6" stroke-linecap="round" stroke-linejoin="round"/></svg>