<svg viewBox="0 0 24 24" fill="none" xmlns="http://www.w3.org/2000/svg"><path d="M22.781 9.188 12 1.218 1.219 9.189M8.965 19.5a3.23 3.23 0 0 0 1.407-2.344 3.23 3.23 0 0 0-1.407-2.343 3.23 3.23 0 0 1-1.406-2.344 3.23 3.23 0 0 1 1.406-2.344M15.64 19.5a3.23 3.23 0 0 0 1.407-2.344 3.23 3.23 0 0 0-1.407-2.343 3.23 3.23 0 0 1-1.406-2.344 3.23 3.23 0 0 1 1.406-2.344m5.267-2.323v14.042a.94.94 0 0 1-.937.937H4.03a.937.937 0 0 1-.937-.937V7.802" stroke="#8897A6" stroke-linecap="round" stroke-linejoin="round"/></svg>