<svg viewBox="0 0 24 24" fill="none" xmlns="http://www.w3.org/2000/svg"><path d="M18.094 21.375v-4.687m0 4.687a1.407 1.407 0 0 1-2.813 0V10.959c-.694 1.004-.984 4.322-4.687 4.322a1.406 1.406 0 1 1 0-2.812 1.426 1.426 0 0 0 1.472-1.21 4.22 4.22 0 0 1 4.153-3.478h3.75a2.813 2.813 0 0 1 2.812 2.813v4.687a.94.94 0 0 1-.937.938h-.938m-2.812 5.156a1.406 1.406 0 1 0 2.812 0v-5.156m0 0v-5.157m-19.687.47v-.938A2.813 2.813 0 0 1 4.03 7.78H7.37a1.88 1.88 0 0 0 1.444-.675l1.874-2.287M7.781 15.28H1.688a.47.47 0 0 1-.47-.469v-.937a.47.47 0 0 1 .47-.469h5.625m-4.22 1.875v7.5M15.282 3.563a2.344 2.344 0 1 0 4.688 0 2.344 2.344 0 0 0-4.688 0m-12.187 0a2.344 2.344 0 1 0 4.687 0 2.344 2.344 0 0 0-4.687 0m9.844 1.406h-1.876a.47.47 0 0 1-.468-.469V1.688a.47.47 0 0 1 .469-.47h1.874a.47.47 0 0 1 .47.47V4.5a.47.47 0 0 1-.47.469" stroke="#8897A6" stroke-linecap="round" stroke-linejoin="round"/></svg>