<svg viewBox="0 0 24 24" fill="none" xmlns="http://www.w3.org/2000/svg"><path d="m14.4 10.677 5.966 6.63a1.406 1.406 0 0 0 1.989-1.99l-6.63-5.965M2.157 19.969H8.72a.94.94 0 0 1 .937.937v1.407a.47.47 0 0 1-.469.468h-7.5a.47.47 0 0 1-.468-.468v-1.407a.937.937 0 0 1 .937-.937M6.61 10.18a1.172 1.172 0 0 1 1.658-1.657l4.312 4.312a1.172 1.172 0 1 1-1.657 1.658zm6.961-6.96a1.172 1.172 0 0 1 1.658-1.658l4.312 4.312a1.172 1.172 0 1 1-1.661 1.654zM8.434 8.687l5.303-5.304 3.978 3.977-5.303 5.304z" stroke="#8897A6" stroke-linecap="round" stroke-linejoin="round"/></svg>