<svg viewBox="0 0 24 24" fill="none" xmlns="http://www.w3.org/2000/svg"><path d="M7.781 5.803v15m0-15L1.96 1.275a.46.46 0 0 0-.487 0 .45.45 0 0 0-.253.413v14.287a.48.48 0 0 0 .197.384l6.093 4.35a.45.45 0 0 0 .544 0l2.54-1.809M7.782 5.803l6.29-4.5a.48.48 0 0 1 .273-.084m0 9.375V1.219m0 0c.097 0 .192.029.272.084l6.093 4.36a.46.46 0 0 1 .197.374v5.494M19.67 19.67l3.112 3.112m-1.875-6.093a4.218 4.218 0 1 1-8.437 0 4.218 4.218 0 0 1 8.437 0" stroke="#8897A6" stroke-linecap="round" stroke-linejoin="round"/></svg>