<svg viewBox="0 0 24 24" fill="none" xmlns="http://www.w3.org/2000/svg"><path d="M5.72 22.5V17c0-.55.45-1 1-1H8c.55 0 1 .45 1 1v5.5M23 7.65l-6.42-6.1a.73.73 0 0 0-1.08.07l-3.01 3.75c-.27.34-.5.62-.5.62s-.23-.28-.5-.62L8.48 1.62a.72.72 0 0 0-1.08-.07L1 7.65M18.28 22.5V17c0-.55-.45-1-1-1H16c-.55 0-1 .45-1 1v5.5m-12.93 0V6.63M1 22.5h22m-1.07 0V6.63M12 6v16.5m-6.28-13h2a1 1 0 0 1 1 1V12a1 1 0 0 1-1 1h-2a1 1 0 0 1-1-1v-1.5a1 1 0 0 1 1-1M18.29 13h-2a1 1 0 0 1-1-1v-1.5a1 1 0 0 1 1-1h2a1 1 0 0 1 1 1V12a1 1 0 0 1-1 1" stroke="#8897A6" stroke-linecap="round" stroke-linejoin="round"/></svg>