<svg viewBox="0 0 24 24" fill="none" xmlns="http://www.w3.org/2000/svg"><path d="M1 8h1c.51 0 .93.41.93.93v1.15c0 .51-.41.93-.93.93H1M23 8h-1c-.51 0-.93.41-.93.93v1.15c0 .51.41.93.93.93h1M10 22.5v-7.63c0-.55.45-1 1-1h2c.55 0 1 .45 1 1v7.63M1 13.87h1c.55 0 1 .45 1 1v7.63m3.5-16v16m0-16L1 2m5.5 4.5 5.5-5 5.5 5m5.5 7.37h-1c-.55 0-1 .45-1 1v7.63m-3.5-16v16m0-16L23 2M1 22.5h22M10.93 8h2.14a.93.93 0 0 1 .93.93v1.14a.93.93 0 0 1-.93.93h-2.14a.93.93 0 0 1-.93-.93V8.93a.93.93 0 0 1 .93-.93" stroke="#8897A6" stroke-linecap="round" stroke-linejoin="round"/></svg>