<svg viewBox="0 0 24 24" fill="none" xmlns="http://www.w3.org/2000/svg"><path d="M21.844 22.781a5.033 5.033 0 0 0-8.438 0m-2.812 0a5.032 5.032 0 0 0-8.438 0M16.22 11.063a5.033 5.033 0 0 0-8.438 0m1.64-8.344a5.06 5.06 0 0 0 5.646 1.134M3.796 14.438a5.06 5.06 0 0 0 5.646 1.134m5.604-1.134a5.06 5.06 0 0 0 5.646 1.134M9 4.266a3.047 3.047 0 1 0 6.094 0 3.047 3.047 0 0 0-6.094 0M3.375 15.984a3.047 3.047 0 1 0 6.093 0 3.047 3.047 0 0 0-6.093 0m11.25 0a3.047 3.047 0 1 0 6.093 0 3.047 3.047 0 0 0-6.093 0" stroke="#8897A6" stroke-linecap="round" stroke-linejoin="round"/></svg>