<svg viewBox="0 0 24 24" fill="none" xmlns="http://www.w3.org/2000/svg"><path d="M15.296 1.219v1.875m-4.218 0h10.78a.937.937 0 0 1 .938.937v8.438a.94.94 0 0 1-.937.937h-9.375m-.469-4.564.99-.989a.47.47 0 0 1 .662 0l.656.657a.47.47 0 0 0 .663 0l1.486-1.479a.47.47 0 0 1 .663 0l1.154 1.154a.47.47 0 0 0 .663 0l1.98-1.98m-5.636 7.201v4.466M12.953 19.5l2.311-1.65 2.311 1.65m-9.779 3.281.469-5.625h2.344v-3.281a4.688 4.688 0 0 0-9.375 0v3.281h2.344l.468 5.625zM2.64 4.5a3.281 3.281 0 1 0 6.563 0 3.281 3.281 0 0 0-6.563 0" stroke="#8897A6" stroke-linecap="round" stroke-linejoin="round"/></svg>