<svg viewBox="0 0 24 24" fill="none" xmlns="http://www.w3.org/2000/svg"><path d="M2.156 10.594v11.719a.47.47 0 0 0 .469.468h18.75a.47.47 0 0 0 .469-.468v-11.72m-11.25 12.188V19.5a1.406 1.406 0 0 1 2.812 0v3.281m-5.6-12.187a.47.47 0 0 0 .47-.416 3.75 3.75 0 0 1 7.454 0 .47.47 0 0 0 .469.416h5.895a.468.468 0 0 0 .436-.643l-3.375-8.438a.47.47 0 0 0-.442-.294H5.287a.47.47 0 0 0-.436.294L1.476 9.951a.47.47 0 0 0 .436.643zm5.6.469a1.406 1.406 0 1 0-2.812 0v2.812a.47.47 0 0 0 .469.469h1.874a.47.47 0 0 0 .47-.469zm3.281 6.093H19.5s.469 0 .469.469V19.5s0 .469-.469.469h-2.812s-.47 0-.47-.469v-1.875s0-.469.47-.469m0-4.687H19.5s.469 0 .469.469v1.874s0 .47-.469.47h-2.812s-.47 0-.47-.47v-1.874s0-.47.47-.47M4.5 17.156h2.812s.47 0 .47.469V19.5s0 .469-.47.469H4.5s-.469 0-.469-.469v-1.875s0-.469.469-.469m0-4.687h2.812s.47 0 .47.469v1.874s0 .47-.47.47H4.5s-.469 0-.469-.47v-1.874s0-.47.469-.47" stroke="#8897A6" stroke-linecap="round" stroke-linejoin="round"/></svg>