<svg viewBox="0 0 24 24" fill="none" xmlns="http://www.w3.org/2000/svg"><path d="M10.594 22.781V19.5a1.406 1.406 0 1 1 2.812 0v3.281m-9.33-18.75h15.849M8.719 16.22H5.906v-2.813a1.406 1.406 0 1 1 2.813 0zm0-6.094H5.906V7.313a1.406 1.406 0 0 1 2.813 0zm4.687 6.094h-2.812v-2.813a1.406 1.406 0 1 1 2.812 0zm0-6.094h-2.812V7.313a1.406 1.406 0 1 1 2.812 0zm4.688 6.094H15.28v-2.813a1.406 1.406 0 1 1 2.813 0zm0-6.094H15.28V7.313a1.406 1.406 0 1 1 2.813 0zm1.875-5.812a.94.94 0 0 0-.158-.52l-1.436-2.157a.94.94 0 0 0-.783-.417H6.408a.94.94 0 0 0-.783.417L4.186 3.792a.94.94 0 0 0-.155.52v17.532a.937.937 0 0 0 .938.937H19.03a.94.94 0 0 0 .938-.937z" stroke="#8897A6" stroke-linecap="round" stroke-linejoin="round"/></svg>