<svg viewBox="0 0 24 24" fill="none" xmlns="http://www.w3.org/2000/svg"><path d="M17.156 3.094c0-1.875-1.875-1.875-1.875-1.875H8.72c-1.875 0-1.875 1.875-1.875 1.875m10.312 0v17.812m0-17.812h3.556a.469.469 0 0 1 .331.8l-3.887 3.887m0 13.125s0 1.875-1.875 1.875H8.72s-1.875 0-1.875-1.875m10.312 0 3.887-3.887a.468.468 0 0 0-.33-.8h-3.557M6.844 20.906V3.094m0 17.812L2.957 17.02a.469.469 0 0 1 .33-.8h3.557m0-13.125H3.288a.469.469 0 0 0-.331.8l3.887 3.887m0 1.875H3.288a.469.469 0 0 0-.331.8l3.887 3.888m10.312-4.688h3.556a.469.469 0 0 1 .331.8l-3.887 3.888M9.656 12a2.344 2.344 0 1 0 4.688 0 2.344 2.344 0 0 0-4.688 0m0 6.563a2.344 2.344 0 1 0 4.688 0 2.344 2.344 0 0 0-4.688 0m0-13.125a2.344 2.344 0 1 0 4.688 0 2.344 2.344 0 0 0-4.688 0" stroke="#8897A6" stroke-linecap="round" stroke-linejoin="round"/></svg>