<svg viewBox="0 0 24 24" fill="none" xmlns="http://www.w3.org/2000/svg"><path d="M12.938 16.922v4.687a.94.94 0 0 0 .937.938h1.875m-9.375-5.625H4.781a1.22 1.22 0 0 0-1.075 1.798c.095.178.233.33.4.443l1.725 1.143a1.23 1.23 0 0 1 .544 1.069 1.22 1.22 0 0 1-1.219 1.219H3.563m.468-13.96v6.413m-2.812-3.75 10.144-9.61a.937.937 0 0 1 1.265 0l10.153 9.61M19.97 8.634v6.413m-2.344 1.875a2.813 2.813 0 1 1 0 5.625zm-6.562 4.219a1.406 1.406 0 0 1-2.813 0v-2.813a1.406 1.406 0 0 1 2.813 0zm0-15h1.874s.47 0 .47.468v1.875s0 .47-.47.47h-1.874s-.47 0-.47-.47V6.61s0-.468.47-.468" stroke="#8897A6" stroke-linecap="round" stroke-linejoin="round"/></svg>