<svg viewBox="0 0 24 24" fill="none" xmlns="http://www.w3.org/2000/svg"><path d="m6.225 8.895 5.034-5.033a1.05 1.05 0 0 1 1.484 0l5.032 5.033m-4.725 3.15v4.2c0 .58.47 1.05 1.05 1.05h1.05m-8.4-5.25H5.7c-.58 0-1.05.47-1.05 1.05 0 1.575 2.1 1.575 2.1 3.15 0 .58-.47 1.05-1.05 1.05H4.65m-1.05-8.4h16.8s2.1 0 2.1 2.1v7.35s0 2.1-2.1 2.1H3.6s-2.1 0-2.1-2.1v-7.35s0-2.1 2.1-2.1m6.3 3.15c-.58 0-1.05.47-1.05 1.05v3.15a1.05 1.05 0 1 0 2.1 0v-3.15c0-.58-.47-1.05-1.05-1.05m7.35 5.25a2.1 2.1 0 0 0 2.1-2.1v-1.05a2.1 2.1 0 0 0-2.1-2.1z" stroke="#8897A6" stroke-linecap="round" stroke-linejoin="round"/></svg>