<svg viewBox="0 0 24 24" fill="none" xmlns="http://www.w3.org/2000/svg"><path d="m3.563 15.282-1.407 7.5m18.281-7.5 1.407 7.5m-6.81-20.626a2.59 2.59 0 0 1 2.591 2.592v5.846m0 0a1.875 1.875 0 0 0-1.875 1.875h3.75a1.875 1.875 0 0 0-1.875-1.875m-7.969-.938H4.97m4.687 0v2.813H4.97a1.406 1.406 0 1 1 0-2.813m4.687 0 .938.001m-.938 0V6.844M4.97 9.656a1.406 1.406 0 0 1 0-2.812h4.687m.938 0h-.938m12.295 8.119a.47.47 0 0 1-.445.32H2.494a.47.47 0 0 1-.445-.32l-.625-1.875a.47.47 0 0 1 .445-.618h20.262a.468.468 0 0 1 .445.617zM10.949 2.043a2.813 2.813 0 0 1 3.977 3.979z" stroke="#8897A6" stroke-linecap="round" stroke-linejoin="round"/></svg>