<svg viewBox="0 0 24 24" fill="none" xmlns="http://www.w3.org/2000/svg"><path d="M19.86 5.533c-1.881-1.515-4.859-1.771-4.986-1.78a.47.47 0 0 0-.467.276c-.008.011-.072.161-.145.394 1.245.21 2.775.633 4.158 1.492a.473.473 0 1 1-.499.804c-2.378-1.476-5.348-1.55-5.921-1.55s-3.544.074-5.921 1.55a.473.473 0 0 1-.499-.803c1.383-.858 2.913-1.283 4.157-1.491-.072-.235-.136-.383-.142-.396a.47.47 0 0 0-.469-.277c-.127.01-3.105.266-5.013 1.801-.995.922-2.988 6.308-2.988 10.964q0 .125.063.234c1.374 2.416 5.125 3.048 5.98 3.076h.015a.47.47 0 0 0 .382-.194l.865-1.19c-2.333-.602-3.524-1.625-3.593-1.686a.473.473 0 0 1 .626-.71c.028.026 2.222 1.888 6.537 1.888 4.322 0 6.516-1.869 6.538-1.887a.473.473 0 0 1 .625.709c-.069.06-1.26 1.084-3.593 1.686l.865 1.19c.088.122.23.194.382.194h.015c.855-.028 4.606-.66 5.98-3.076a.5.5 0 0 0 .063-.234c0-4.656-1.993-10.042-3.014-10.984M8.928 14.626c-.915 0-1.655-.846-1.655-1.892s.74-1.891 1.655-1.891c.914 0 1.655.846 1.655 1.891 0 1.046-.741 1.892-1.655 1.892m6.146 0c-.914 0-1.655-.846-1.655-1.892s.741-1.891 1.655-1.891c.915 0 1.655.846 1.655 1.891 0 1.046-.74 1.892-1.655 1.892" fill="#3A3D40"/></svg>