<svg viewBox="0 0 24 24" fill="none" xmlns="http://www.w3.org/2000/svg"><path d="M12 2.25c-5.376 0-9.75 4.374-9.75 9.75a9.74 9.74 0 0 0 1.256 4.786l-1.24 4.426a.423.423 0 0 0 .51.526l4.619-1.145A9.76 9.76 0 0 0 12 21.75c5.376 0 9.75-4.374 9.75-9.75S17.376 2.25 12 2.25m4.905 13.19c-.209.578-1.21 1.105-1.69 1.176-.432.063-.978.09-1.577-.098-.363-.115-.83-.267-1.427-.521-2.51-1.071-4.15-3.568-4.276-3.732s-1.022-1.34-1.022-2.557.647-1.814.876-2.062c.23-.247.501-.31.668-.31s.334.003.48.01c.154.007.36-.058.563.424.209.495.71 1.712.771 1.836.063.123.105.268.021.433s-.124.268-.25.412c-.125.145-.262.323-.375.434-.126.123-.256.257-.11.504.146.248.648 1.057 1.393 1.712.956.842 1.762 1.103 2.012 1.227s.397.103.543-.062c.145-.165.625-.722.792-.969.166-.247.333-.206.563-.124.23.083 1.46.68 1.71.804s.418.186.48.289c.063.102.063.598-.145 1.174" fill="#3A3D40"/></svg>