<svg viewBox="0 0 24 24" fill="none" xmlns="http://www.w3.org/2000/svg"><path d="M8.293 3C5.387 3 3 5.384 3 8.293v7.414C3 18.613 5.384 21 8.293 21h7.414C18.613 21 21 18.616 21 15.707V8.293C21 5.387 18.616 3 15.707 3zm0 1.636h7.414a3.65 3.65 0 0 1 3.657 3.657v7.414a3.65 3.65 0 0 1-3.657 3.657H8.293a3.65 3.65 0 0 1-3.657-3.657V8.293a3.65 3.65 0 0 1 3.657-3.657m8.54 1.79a.74.74 0 0 0-.742.742c0 .412.33.741.741.741.413 0 .742-.33.742-.741a.74.74 0 0 0-.742-.742M12 7.091C9.3 7.09 7.09 9.299 7.09 12S9.3 16.91 12 16.91s4.91-2.21 4.91-4.91S14.7 7.09 12 7.09m0 1.636A3.26 3.26 0 0 1 15.273 12 3.26 3.26 0 0 1 12 15.273 3.26 3.26 0 0 1 8.727 12 3.26 3.26 0 0 1 12 8.727" fill="#3A3D40"/></svg>