<svg viewBox="0 0 24 24" fill="none" xmlns="http://www.w3.org/2000/svg"><path d="M1.222 22.781h21.563M4.423 8.8l2.505-2.505M4.423 8.8a1.875 1.875 0 1 1-2.65 2.652A1.875 1.875 0 0 1 4.422 8.8m2.505-2.505a1.875 1.875 0 1 1 2.65-2.651 1.875 1.875 0 0 1-2.65 2.651m2.946-.38 2.385 1.391m3.094-.214 3.614-2.838M4.969 19.5a.47.47 0 0 0-.469-.469H2.625a.47.47 0 0 0-.469.469v3.281H4.97zm5.625-4.687a.47.47 0 0 0-.469-.47H8.25a.47.47 0 0 0-.469.47v7.968h2.813zm5.625 2.812a.47.47 0 0 0-.469-.469h-1.875a.47.47 0 0 0-.469.469v5.156h2.813zm5.625-7.5a.47.47 0 0 0-.469-.469H19.5a.47.47 0 0 0-.469.469v12.656h2.813zm-3.278-7.031a1.875 1.875 0 1 0 3.75 0 1.875 1.875 0 0 0-3.75 0M12.004 8.25a1.875 1.875 0 1 0 3.75 0 1.875 1.875 0 0 0-3.75 0" stroke="#fff" stroke-linecap="round" stroke-linejoin="round"/></svg>