<svg viewBox="0 0 24 24" fill="none" xmlns="http://www.w3.org/2000/svg"><path d="M4.723 14.265 1.75 19.398a.469.469 0 0 0 .484.697l2.625-.444.914 2.512a.468.468 0 0 0 .844.08l2.553-4.32m10.107-3.658 2.973 5.133a.469.469 0 0 1-.484.697l-2.625-.444-.914 2.512a.469.469 0 0 1-.844.08l-2.553-4.32M3.548 9.966a8.438 8.438 0 1 0 16.875 0 8.438 8.438 0 0 0-16.875 0m8.988-4.351 1.202 2.478h2.344a.575.575 0 0 1 .4 1l-2.03 2.002 1.125 2.589a.613.613 0 0 1-.873.767l-2.719-1.532-2.719 1.532a.613.613 0 0 1-.873-.767l1.125-2.589-2.03-2.001a.574.574 0 0 1 .402-1.002h2.344l1.204-2.477a.62.62 0 0 1 1.098 0" stroke="#fff" stroke-linecap="round" stroke-linejoin="round"/></svg>