<svg viewBox="0 0 24 24" fill="none" xmlns="http://www.w3.org/2000/svg"><path d="M9.656 3.673A16.8 16.8 0 0 0 1.712 1.22a.47.47 0 0 0-.493.469V13.95a.47.47 0 0 0 .446.469c2.828.132 5.577.977 7.991 2.456a18.7 18.7 0 0 0-7.172-.41.468.468 0 0 1-.534-.47v-1.557M9.656 3.672a16.8 16.8 0 0 1 7.945-2.454.47.47 0 0 1 .493.469v9.843M9.656 3.673V16.88m10.313-2.067h.468a2.344 2.344 0 0 1 0 4.687h-.527M9.656 22.781h13.125m-9.843-9.375H19.5a.47.47 0 0 1 .469.469v5.156a1.875 1.875 0 0 1-1.875 1.875h-3.75a1.875 1.875 0 0 1-1.875-1.875v-5.156a.47.47 0 0 1 .469-.469" stroke="#fff" stroke-linecap="round" stroke-linejoin="round"/></svg>