<svg viewBox="0 0 24 24" fill="none" xmlns="http://www.w3.org/2000/svg"><path d="m2.156 1.219 6.91 6.906a.937.937 0 0 0 1.25.07l3.358-2.687a.937.937 0 0 1 1.266.089l7.373 7.81m-6.56 0h6.563V7.312M2.16 11.53h7.5s.469 0 .469.469v1.875s0 .469-.469.469h-7.5s-.469 0-.469-.469V12s0-.469.469-.469m.938 2.813h7.5s.468 0 .468.469v1.874s0 .47-.469.47h-7.5s-.468 0-.468-.47v-1.875s0-.468.469-.468m-.938 2.812h7.5s.469 0 .469.469V19.5s0 .469-.469.469h-7.5s-.469 0-.469-.469v-1.875s0-.469.469-.469m.938 2.813h7.5s.468 0 .468.468v1.875s0 .47-.469.47h-7.5s-.468 0-.468-.47v-1.875s0-.468.469-.468m11.25-2.813h7.5s.468 0 .468.469V19.5s0 .469-.468.469h-7.5s-.47 0-.47-.469v-1.875s0-.469.47-.469m-.938 2.813h7.5s.469 0 .469.468v1.875s0 .47-.469.47h-7.5s-.469 0-.469-.47v-1.875s0-.468.469-.468" stroke="#fff" stroke-linecap="round" stroke-linejoin="round"/></svg>