<svg viewBox="0 0 24 24" fill="none" xmlns="http://www.w3.org/2000/svg"><path d="M2.16 2.156h7.5s.469 0 .469.469V4.5s0 .469-.469.469h-7.5s-.469 0-.469-.469V2.625s0-.469.469-.469M4.035 4.969h7.5s.469 0 .469.468v1.875s0 .47-.469.47h-7.5s-.469 0-.469-.47V5.438s0-.468.469-.468" stroke="#fff" stroke-linecap="round" stroke-linejoin="round"/><path d="M3.097 7.781h7.5s.47 0 .47.469v1.875s0 .469-.47.469h-7.5s-.468 0-.468-.469V8.25s0-.469.468-.469" stroke="#fff" stroke-linecap="round" stroke-linejoin="round"/><path d="M2.16 10.594h7.5s.469 0 .469.469v1.874s0 .47-.469.47h-7.5s-.469 0-.469-.47v-1.874s0-.47.469-.47" stroke="#fff" stroke-linecap="round" stroke-linejoin="round"/><path d="M3.097 13.406h7.5s.47 0 .47.469v1.875s0 .469-.47.469h-7.5s-.468 0-.468-.469v-1.875s0-.469.468-.469M2.16 16.219h7.5s.469 0 .469.468v1.875s0 .47-.469.47h-7.5s-.469 0-.469-.47v-1.875s0-.468.469-.468" stroke="#fff" stroke-linecap="round" stroke-linejoin="round"/><path d="M3.097 19.031h7.5s.47 0 .47.469v1.875s0 .469-.47.469h-7.5s-.468 0-.468-.469V19.5s0-.469.468-.469M13.41 13.406h7.5s.469 0 .469.469v1.875s0 .469-.469.469h-7.5s-.469 0-.469-.469v-1.875s0-.469.469-.469M14.348 16.219h7.5s.468 0 .468.468v1.875s0 .47-.468.47h-7.5s-.47 0-.47-.47v-1.875s0-.468.47-.468" stroke="#fff" stroke-linecap="round" stroke-linejoin="round"/><path d="M13.41 19.031h7.5s.469 0 .469.469v1.875s0 .469-.469.469h-7.5s-.469 0-.469-.469V19.5s0-.469.469-.469" stroke="#fff" stroke-linecap="round" stroke-linejoin="round"/></svg>