<svg viewBox="0 0 24 24" fill="none" xmlns="http://www.w3.org/2000/svg"><path d="M4.969 8.719h8.906M4.969 11.53h5.625M4.969 5.906h6.562M4.97 14.344h3.75m-3.75 2.812h3.75m1.875 5.625H2.156a.937.937 0 0 1-.937-.937V2.156a.937.937 0 0 1 .937-.937h12.462c.25 0 .487.099.663.274l3.476 3.476a.94.94 0 0 1 .274.663v3.087m-3.633 7.07a1.757 1.757 0 1 1 1.758 1.758v.938m.002 1.875a.24.24 0 0 0-.236.25.25.25 0 0 0 .25.24h.004a.24.24 0 0 0 .236-.25.25.25 0 0 0-.245-.24h-.005m-.006 2.421a5.625 5.625 0 1 0 0-11.25 5.625 5.625 0 0 0 0 11.25" stroke="#fff" stroke-linecap="round" stroke-linejoin="round"/></svg>