<svg viewBox="0 0 24 24" fill="none" xmlns="http://www.w3.org/2000/svg"><path d="M10.594 8.719a3.281 3.281 0 1 1-3.281-3.281m3.28 3.28a3.28 3.28 0 0 0-3.28-3.28m3.28 3.28h-3.28v-3.28m1.875 16.406a6.54 6.54 0 0 0 1.406-3.75m4.219 3.75a6.54 6.54 0 0 1-1.407-3.75m-5.626 3.75h8.438m-15-6.563h21.563m-9.375-7.969 1.406-1.875 2.813 2.344 2.344-2.812m-.938 7.5v-1.406m-1.875 1.406v-1.875m-1.875 1.875V9.656m-1.875 2.813v-1.406M2.156 2.156h19.688s.937 0 .937.938v14.062s0 .938-.937.938H2.156s-.937 0-.937-.938V3.094s0-.938.937-.938" stroke="#fff" stroke-linecap="round" stroke-linejoin="round"/></svg>