<svg viewBox="0 0 24 24" fill="none" xmlns="http://www.w3.org/2000/svg"><path d="M3.094 16.219H7.78m-4.687 1.875h3.75m7.031-1.707a1.875 1.875 0 1 1 0 2.476 1.875 1.875 0 1 1 0-2.476m0 0c.218.237.367.53.431.844m6.6-2.887a1.875 1.875 0 0 0 1.875-1.875V4.03a1.875 1.875 0 0 0-1.875-1.875H6.844a1.875 1.875 0 0 0-1.875 1.875v2.813m0-.938H22.78M3.094 8.72h14.062s1.875 0 1.875 1.875v9.375s0 1.875-1.875 1.875H3.094s-1.875 0-1.875-1.875v-9.375s0-1.875 1.875-1.875m.469 1.875h1.874s.47 0 .47.469v1.874s0 .47-.47.47H3.563s-.468 0-.468-.47v-1.874s0-.47.469-.47" stroke="#fff" stroke-linecap="round" stroke-linejoin="round"/></svg>