<svg viewBox="0 0 24 24" fill="none" xmlns="http://www.w3.org/2000/svg"><path d="M5.981 4.969a1.38 1.38 0 0 1 1.332-.938h14.062a1.444 1.444 0 0 1 1.406 1.49v11.082a1.443 1.443 0 0 1-1.406 1.49H8.719m1.406 1.876h8.438m-4.22-1.875v1.875m-.937-4.688h9.375M4.031 9.656V7.781a.937.937 0 0 1 .938-.937h5.625a.94.94 0 0 1 .937.937v7.5a.94.94 0 0 1-.937.938H8.719m0-1.875h2.812M1.22 18.094h5.625M2.156 11.53h3.75s.938 0 .938.938v6.562s0 .938-.938.938h-3.75s-.937 0-.937-.938V12.47s0-.938.937-.938" stroke="#fff" stroke-linecap="round" stroke-linejoin="round"/></svg>