<svg viewBox="0 0 24 24" fill="none" xmlns="http://www.w3.org/2000/svg"><path d="M18.094 12.938c1.875 0 1.875-1.876 1.875-1.876v-7.5c0-1.874-1.875-1.874-1.875-1.874H5.906c-1.875 0-1.875 1.875-1.875 1.875v7.5c0 1.874 1.875 1.874 1.875 1.874m12.188 0H5.906m12.188 0a2.65 2.65 0 0 1 2.498 1.769l2.12 6.006a1.2 1.2 0 0 1-1.132 1.6H2.42a1.2 1.2 0 0 1-1.133-1.6l2.12-6.006a2.65 2.65 0 0 1 2.5-1.768m-.005 2.812h.937m1.875 0h.938m4.687 0h.938m1.875 0h.937m-6.562 0h.937m-7.5 1.875h.938m1.875 0h8.437m1.875 0h.938m-3.746 4.688H8.72l.937-2.813h4.688z" stroke="#fff" stroke-linecap="round" stroke-linejoin="round"/></svg>