<svg viewBox="0 0 24 24" fill="none" xmlns="http://www.w3.org/2000/svg"><path d="M10.584 22.794H2.147a.94.94 0 0 1-.938-.937V2.169a.937.937 0 0 1 .938-.937h12.462c.249 0 .487.099.663.275l3.478 3.475a.94.94 0 0 1 .275.663v3.087M4.022 15.294h5.625m.937-2.812V8.263a.47.47 0 0 0-.468-.469h-.938a.47.47 0 0 0-.469.47v7.03M18.688 14c-2.605 0-3.646 1.042-3.646 3.125s1.041 3.125 3.646 3.125M14 16.232h4.167M14 18.196h4.167m-12.739-7.59h.938a.47.47 0 0 1 .468.47v4.218H4.96v-4.218a.47.47 0 0 1 .47-.47m6.094 6.563a5.625 5.625 0 1 0 11.25 0 5.625 5.625 0 0 0-11.25 0" stroke="#fff" stroke-linecap="round" stroke-linejoin="round"/></svg>