<svg viewBox="0 0 24 24" fill="none" xmlns="http://www.w3.org/2000/svg"><path d="M4.969 8.719h8.906M4.969 11.53h7.5m-7.5-5.625h6.562M4.97 14.344h4.687M4.97 17.156H7.78m.938 5.625H2.156a.937.937 0 0 1-.937-.937V2.156a.937.937 0 0 1 .937-.937h12.462c.25 0 .487.099.663.274l3.476 3.476a.94.94 0 0 1 .274.663v4.962m-6.562 5.445v5.805a.94.94 0 0 0 .937.937h6.563a.94.94 0 0 0 .937-.937v-5.805m-10.312 1.586 5.488-4.643a.94.94 0 0 1 1.211 0l5.488 4.643m-4.687 5.156H15.28V19.97a1.406 1.406 0 0 1 2.813 0z" stroke="#fff" stroke-linecap="round" stroke-linejoin="round"/></svg>