<svg viewBox="0 0 24 24" fill="none" xmlns="http://www.w3.org/2000/svg"><path d="M7.49 13.927a3.281 3.281 0 0 0-6.271 1.354v2.813h1.406l.469 4.687h2.812l.469-4.687h.938m9.197-4.167a3.281 3.281 0 0 1 6.271 1.354v2.813h-1.406l-.469 4.687h-2.812l-.469-4.687h-.937M9.89 10.359a2.11 2.11 0 1 0 4.219 0 2.11 2.11 0 0 0-4.22 0M12 13.406a2.813 2.813 0 0 0-2.812 2.813v2.343h1.406l.469 4.22h1.874l.47-4.22h1.406V16.22A2.81 2.81 0 0 0 12 13.406M1.922 8.483a2.578 2.578 0 1 0 5.156 0 2.578 2.578 0 0 0-5.156 0m15 0a2.578 2.578 0 1 0 5.156 0 2.578 2.578 0 0 0-5.156 0m-4.584-2.93a.47.47 0 0 1-.676 0L9.717 3.525a1.35 1.35 0 0 1 1.908-1.91l.375.374.375-.375a1.35 1.35 0 1 1 1.91 1.911z" stroke="#fff" stroke-linecap="round" stroke-linejoin="round"/></svg>