<svg viewBox="0 0 24 24" fill="none" xmlns="http://www.w3.org/2000/svg"><path d="M4.031 21.844a.94.94 0 0 0 .938.937h16.875a.94.94 0 0 0 .937-.937V4.969a.937.937 0 0 0-.937-.938M9.656 16.22h5.156a.47.47 0 0 0 .47-.469V7.602a.47.47 0 0 0-.26-.419L10.336 4.84a.47.47 0 0 0-.679.42zm0 0H5.437a.47.47 0 0 1-.468-.469V9.188a.47.47 0 0 1 .468-.47h6.094m2.813-1.874V4.5m-9.375 6.094h1.875m-1.875 1.875h1.875m2.812-1.875h3.281m-1.406 5.625v-1.407a.47.47 0 0 1 .469-.468h.938a.47.47 0 0 1 .468.469v1.406m-11.25-15h16.875s.938 0 .938.937v16.875s0 .938-.938.938H2.156s-.937 0-.937-.938V2.156s0-.937.937-.937" stroke="#fff" stroke-linecap="round" stroke-linejoin="round"/></svg>