<svg viewBox="0 0 24 24" fill="none" xmlns="http://www.w3.org/2000/svg"><path d="M19.031 22.781v-1.406M4.97 22.781v-1.404m3.515-10.314v7.5m-3.515-7.5v7.5m7.031-7.5v7.5m3.516-7.5v7.5m3.515-7.5v7.5M11.985 1.218c-.878 2.181.938 2.812 0 5.141m3.75-5.141c-.878 2.181.938 2.812 0 5.141m-7.5-5.141c-.878 2.181.938 2.812 0 5.141m13.609 1.89H2.156a.94.94 0 0 0-.937.938v11.25c0 .517.42.937.937.937h19.688c.517 0 .937-.42.937-.937V9.188a.937.937 0 0 0-.937-.938" stroke="#fff" stroke-linecap="round" stroke-linejoin="round"/></svg>