<svg viewBox="0 0 24 24" fill="none" xmlns="http://www.w3.org/2000/svg"><path d="M4.031 12.51v9.374m0 0H19.97m-15.938 0H2.156m17.813 0v-8.906m0 8.906h1.875M1.219 12.04 11.337 1.922a.937.937 0 0 1 1.326 0L22.78 12.04M15.75 2.197h2.813a.47.47 0 0 1 .468.468v2.813m-9.14 3.984a2.11 2.11 0 1 0 4.22 0 2.11 2.11 0 0 0-4.22 0M12 12.508a2.813 2.813 0 0 0-2.812 2.813v2.343h1.406l.469 4.22h1.874l.47-4.22h1.406v-2.343A2.81 2.81 0 0 0 12 12.508" stroke="#fff" stroke-linecap="round" stroke-linejoin="round"/></svg>