<svg viewBox="0 0 24 24" fill="none" xmlns="http://www.w3.org/2000/svg"><path d="M17.344 19.922V16.64a.47.47 0 0 0-.469-.47h-.937m0 3.75h2.812M4.969 7.239V19.03a.47.47 0 0 0 .468.469h4.22M19.03 7.238v2.418m-17.812.938 10.247-9.169a.806.806 0 0 1 1.068 0l10.247 9.169m-5.687 3.703v-.5m.25.25h-.5m.312 8.734a5.625 5.625 0 1 0 0-11.25 5.625 5.625 0 0 0 0 11.25M12.938 5.906h-1.876a.47.47 0 0 0-.468.469V8.25a.47.47 0 0 0 .469.469h1.874a.47.47 0 0 0 .47-.469V6.375a.47.47 0 0 0-.47-.469" stroke="#fff" stroke-linecap="round" stroke-linejoin="round"/></svg>