<svg viewBox="0 0 24 24" fill="none" xmlns="http://www.w3.org/2000/svg"><path d="M12 6V2m0 4a6 6 0 0 1 4.243 1.757M12 6a6 6 0 0 0-4.243 1.757m0 0L4.93 4.93m2.828 2.828A6 6 0 0 0 6 12m0 0H2m4 0a6 6 0 0 0 1.757 4.243m0 0L4.93 19.07m2.828-2.828A6 6 0 0 0 12 18m0 0v4m0-4a6 6 0 0 0 4.243-1.757m0 0 2.828 2.828m-2.828-2.828A6 6 0 0 0 18 12m0 0h4m-4 0a6 6 0 0 0-1.757-4.243m0 0L19.07 4.93m-3.738 9.738A6.002 6.002 0 0 1 9.764 6.43a6 6 0 1 0 7.805 7.805 6 6 0 0 1-2.236.43" stroke="#fff" stroke-linecap="round" stroke-linejoin="round"/></svg>