<svg viewBox="0 0 24 24" fill="none" xmlns="http://www.w3.org/2000/svg"><path d="M18.563 4.969h1.603a.937.937 0 0 1 .937.843l1.669 15.938a.937.937 0 0 1-.928 1.031H2.156a.937.937 0 0 1-.928-1.031L2.897 5.813a.94.94 0 0 1 .937-.844h1.603m-3.73 12.187h20.587m-4.669-6.562H21.6m-19.2 0h3.975m.937 12.187.638-9.843m8.906 9.843-.637-9.843m-4.135-11.72a4.69 4.69 0 0 1 4.772 4.848c0 2.4-3.29 7.5-4.406 9.018a.442.442 0 0 1-.731 0c-1.116-1.528-4.407-6.618-4.407-9.018a4.69 4.69 0 0 1 4.772-4.847m1.791 4.773a1.79 1.79 0 1 1-1.79-1.791 1.8 1.8 0 0 1 1.79 1.79" stroke="#fff" stroke-linecap="round" stroke-linejoin="round"/></svg>