<svg viewBox="0 0 24 24" fill="none" xmlns="http://www.w3.org/2000/svg"><path d="M18.094 2.156h2.812a.94.94 0 0 1 .938.938v17.812a.94.94 0 0 1-.938.938h-6.562m-2.813.937v-4.687h-3.75v-5.625h2.813V7.78h2.812V1.22m0 0L10.594 4.03m2.812-2.812L16.19 4.03M4.969 2.156v4.688M2.156 9.656h5.625v-3.75m1.875 9.375h4.688v3.75M4.969 12.47v7.5h3.75v1.875H3.094a.94.94 0 0 1-.938-.938V3.094a.937.937 0 0 1 .938-.938h5.625m8.437 19.688v-8.438h1.875m2.813 5.625h-1.875m1.875-2.812h-1.875m1.875-5.625h-8.438v1.875m2.813-1.875V5.906h2.812v1.875" stroke="#fff" stroke-linecap="round" stroke-linejoin="round"/></svg>