<svg viewBox="0 0 24 24" fill="none" xmlns="http://www.w3.org/2000/svg"><path d="m1.5 9.5 9.72-7.87c.43-.35 1.13-.35 1.55 0l9.72 7.87m-8.99 13v-6c0-.55.45-1 1-1h2c.55 0 1 .45 1 1v6m-14 0V7.86m17 0V22.5M1 22.5h22M7.5 9.22h2a1 1 0 0 1 1 1v1.5a1 1 0 0 1-1 1h-2a1 1 0 0 1-1-1v-1.5a1 1 0 0 1 1-1m0 6.78h2a1 1 0 0 1 1 1v1.5a1 1 0 0 1-1 1h-2a1 1 0 0 1-1-1V17a1 1 0 0 1 1-1m7-6.78h2a1 1 0 0 1 1 1v1.5a1 1 0 0 1-1 1h-2a1 1 0 0 1-1-1v-1.5a1 1 0 0 1 1-1" stroke="#fff" stroke-linecap="round" stroke-linejoin="round"/></svg>