<svg viewBox="0 0 24 24" fill="none" xmlns="http://www.w3.org/2000/svg"><path d="M6.375 6.844v5.625a5.625 5.625 0 0 0 11.25 0V6.844m-11.25 0A5.625 5.625 0 0 1 12 1.219M6.375 6.844h3.75M12 1.219a5.625 5.625 0 0 1 5.625 5.625M12 1.219V4.03m5.625 2.813h-3.75M4.5 10.594v1.875m0 0a7.434 7.434 0 0 0 7.5 7.5m-7.5-7.5h15m-7.5 7.5a7.435 7.435 0 0 0 7.5-7.5m-7.5 7.5v2.812m7.5-10.312v-1.875m-5.624-9.055-.001 2.492m-3.75-2.492v2.492M6.375 8.72h3.75m7.5 0h-3.75m-7.5 1.875h3.75m7.5 0h-3.75" stroke="#fff" stroke-linecap="round" stroke-linejoin="round"/></svg>