<svg viewBox="0 0 24 24" fill="none" xmlns="http://www.w3.org/2000/svg"><path d="M20.725 15.798v2.297a3.215 3.215 0 0 1-3.215 3.215H3.272a1.84 1.84 0 0 1-1.838-1.837V7.53a1.837 1.837 0 0 1 1.838-1.837H17.51a3.216 3.216 0 0 1 3.215 3.215v2.296m-2.862-5.493-.582-2.326a.92.92 0 0 0-1.13-.664L5.11 5.694m-.915 2.755H6.03m1.837 0h1.837m1.838 0h1.837m1.837 0h1.837M4.194 18.554H6.03m1.837 0h1.837m1.838 0h1.837m1.837 0h1.837m3.675-7.349h-3.675a1.837 1.837 0 0 0-1.837 1.837v.919c0 1.015.822 1.837 1.837 1.837h3.675a1.837 1.837 0 0 0 1.837-1.837v-.919a1.837 1.837 0 0 0-1.837-1.837" stroke="#fff" stroke-linecap="round" stroke-linejoin="round"/></svg>