<svg viewBox="0 0 24 24" fill="none" xmlns="http://www.w3.org/2000/svg"><path d="M18.094 18.563v3.28a.94.94 0 0 1-.938.938h-15a.94.94 0 0 1-.937-.937V4.969a.937.937 0 0 1 .937-.938H4.97m0 0v.938a.937.937 0 0 0 .937.937h7.5a.94.94 0 0 0 .938-.937V4.03m-9.375 0a.937.937 0 0 1 .937-.937H8.33m6.014.937h2.812a.94.94 0 0 1 .938.938V8.25m-3.75-4.219a.94.94 0 0 0-.938-.937h-2.423M4.03 9.655h11.25m-11.25 3.75h8.875m-8.875 3.75h7.484M8.25 2.625a1.406 1.406 0 1 0 2.812 0 1.406 1.406 0 0 0-2.812 0m8.438 14.531-3.282.938.938-3.282 5.608-5.608a1.658 1.658 0 0 1 2.344 2.344z" stroke="#fff" stroke-linecap="round" stroke-linejoin="round"/></svg>