<svg viewBox="0 0 24 24" fill="none" xmlns="http://www.w3.org/2000/svg"><path d="M22.785 22.313H1.222m17.81 0v-4.22a.47.47 0 0 1 .468-.468h1.875a.47.47 0 0 1 .469.469v4.218m-8.438 0v-8.906a.47.47 0 0 1 .469-.469h1.875a.47.47 0 0 1 .469.47v8.906m-8.438 0V15.28a.47.47 0 0 1 .469-.469h1.875a.47.47 0 0 1 .469.47v7.03m-8.438 0V8.72a.47.47 0 0 1 .469-.469H4.5a.47.47 0 0 1 .469.469v13.594m17.344-11.25-5.27-5.678a1.88 1.88 0 0 0-1.968-.503l-3.487 1.163a1.88 1.88 0 0 1-1.793-.338l-4.826-4.02m13.597 9.376h3.75v-3.75" stroke="#fff" stroke-linecap="round" stroke-linejoin="round"/></svg>