<svg viewBox="0 0 24 24" fill="none" xmlns="http://www.w3.org/2000/svg"><path d="M1.222 22.547h21.563m-17.816 0v-2.344a.47.47 0 0 0-.469-.469H2.625a.47.47 0 0 0-.469.47v2.343m8.438 0v-6.094a.47.47 0 0 0-.469-.469H8.25a.47.47 0 0 0-.469.47v6.093m8.438 0v-9.844a.47.47 0 0 0-.469-.469h-1.875a.47.47 0 0 0-.469.47v9.843m8.438 0V8.953a.47.47 0 0 0-.469-.469H19.5a.47.47 0 0 0-.469.47v13.593M3.566 13.172l16.875-11.25m0 0-.468 3.75m.468-3.75-3.75-.469" stroke="#fff" stroke-linecap="round" stroke-linejoin="round"/></svg>