<svg viewBox="0 0 24 24" fill="none" xmlns="http://www.w3.org/2000/svg"><path d="M7.781 19.03h8.438M7.78 16.218h8.438m-10.313 0H3.094a1.88 1.88 0 0 1-1.875-1.874V8.719a1.88 1.88 0 0 1 1.875-1.875h17.812a1.88 1.88 0 0 1 1.875 1.875v5.625a1.88 1.88 0 0 1-1.875 1.875h-2.812M5.906 4.969v-3.75h8.987c.249 0 .487.099.663.274l2.263 2.264a.94.94 0 0 1 .275.662v.55l-3.75-.001v-3.75m3.75 20.626a.94.94 0 0 1-.938.937H6.844a.937.937 0 0 1-.938-.937v-8.438h12.188zM3.674 10.028a.75.75 0 1 0 1.5 0 .75.75 0 0 0-1.5 0" stroke="#fff" stroke-linecap="round" stroke-linejoin="round"/></svg>