<svg viewBox="0 0 24 24" fill="none" xmlns="http://www.w3.org/2000/svg"><path d="M19.031 1.219H6.844A2.344 2.344 0 0 0 4.5 3.563v15.596a4.43 4.43 0 0 1-1.773 3.545l-.102.077h12.188l.102-.077a4.43 4.43 0 0 0 1.773-3.545V3.697a2.437 2.437 0 0 1 2.101-2.466 2.344 2.344 0 0 1 2.586 2.332v3.28a.94.94 0 0 1-.937.938h-3.75M6.844 4.97h2.343M8.72 7.78h5.156m-7.031 2.813h7.031m-7.031 2.812h7.031m-2.812 2.813h-4.22 7.032M6.844 19.03h4.219" stroke="#fff" stroke-linecap="round" stroke-linejoin="round"/></svg>