<svg viewBox="0 0 24 24" fill="none" xmlns="http://www.w3.org/2000/svg"><path d="M7.313 5.965h3.75m-3.75 2.813h5.156M7.313 11.59h5.625m-5.626 2.813h4.22m4.671-8.188v-.5m.25.25h-.5m.25 3.063v-.5m.25.25h-.5m.25 3.062v-.5m.25.25h-.5m.25 3.063v-.5m.25.25h-.5m3.078 7.417a.468.468 0 0 1-.773.357l-2.508-2.15-3.469 2.601a.47.47 0 0 1-.562 0l-3.469-2.6-2.508 2.149a.47.47 0 0 1-.773-.357V2.215a.937.937 0 0 1 .937-.937h12.188a.94.94 0 0 1 .937.937z" stroke="#fff" stroke-linecap="round" stroke-linejoin="round"/></svg>