<svg viewBox="0 0 24 24" fill="none" xmlns="http://www.w3.org/2000/svg"><path d="M11.531 17.156c-.161-2.068-.132-4.727.817-6.234m5.724-4.078A7.969 7.969 0 0 0 4.032 12v2.344m0 0 2.812-3.75m-2.813 3.75-2.812-3.75m4.709 6.567A7.969 7.969 0 0 0 19.968 12V9.656m0 0-2.812 3.75m2.813-3.75 2.812 3.75m-14.115-.604c-.381 1.599.13 2.99 2.813 2.364 2.11 1.773 3.156.932 3.58-.834.383-1.604-.63-4.641-2.172-6.144a.47.47 0 0 0-.737.107c-1.067 1.91-3.042 2.666-3.484 4.508" stroke="#fff" stroke-linecap="round" stroke-linejoin="round"/></svg>