<svg viewBox="0 0 24 24" fill="none" xmlns="http://www.w3.org/2000/svg"><path d="M12 6.865a6.98 6.98 0 0 1 4.667 1.385m6.067 1.416a1.867 1.867 0 0 1-1.866 1.867m0 0c0 4.124-3.97 7.468-8.868 7.468a8.99 8.99 0 0 1-8.214-4.669H2.199a.934.934 0 0 1-.933-.932v-1.868a.934.934 0 0 1 .933-.933h1.006a7.3 7.3 0 0 1 3.37-4.959.47.47 0 0 0 .197-.505 3.26 3.26 0 0 0-.925-1.573.467.467 0 0 1 .203-.792 3.27 3.27 0 0 1 3.663 1.557h0c5.74-1.287 11.155 2.383 11.155 7.206M7.804 18.11l-.934 3.224m9.334-3.224.933 3.224M6.304 10.087a.75.75 0 1 0 1.5 0 .75.75 0 0 0-1.5 0" stroke="#fff" stroke-linecap="round" stroke-linejoin="round"/></svg>