<svg viewBox="0 0 24 24" fill="none" xmlns="http://www.w3.org/2000/svg"><path d="M15.75 11.55v4.669h5.625V11.53m-7.031 1.406 3.6-3.487a.94.94 0 0 1 1.237 0l3.6 3.488M12 4.968v17.813m-2.738 0h5.447m6.666-13.406-2.812-7.772-2.813 7.772m-2.475-6.572 6.947-1.584-7.05 1.603M2.597 12.29l2.84-7.707 2.654 7.191M6.75 13.25c-1.945 0-2.723.778-2.723 2.333s.778 2.334 2.722 2.334M3.25 15.5h3.111m4.252-12.087L3.778 4.969m9.619-1.407a1.397 1.397 0 1 1-2.794.019 1.397 1.397 0 0 1 2.794-.018M1.219 15.517a4.453 4.453 0 1 0 8.907 0 4.453 4.453 0 0 0-8.907 0" stroke="#fff" stroke-linecap="round" stroke-linejoin="round"/></svg>