<svg viewBox="0 0 24 24" fill="none" xmlns="http://www.w3.org/2000/svg"><path d="M14.798 5.445a3.05 3.05 0 0 0-.987-1.752A2.8 2.8 0 0 0 11.988 3a2.8 2.8 0 0 0-1.815.69 3.04 3.04 0 0 0-.988 1.74M17.38 7.8H6.62a1.03 1.03 0 0 0-.712.246c-.202.17-.337.412-.382.679l-1.524 11.13q-.012.233.067.45c.052.142.133.272.236.38q.158.162.364.245a1 1 0 0 0 .428.068h13.807a1 1 0 0 0 .427-.068 1 1 0 0 0 .364-.246c.104-.107.184-.237.236-.38.053-.143.075-.295.067-.448L18.474 8.725a1.13 1.13 0 0 0-.382-.679 1.03 1.03 0 0 0-.712-.247" stroke="#fff" stroke-linecap="round" stroke-linejoin="round"/></svg>