<svg viewBox="0 0 24 24" fill="none" xmlns="http://www.w3.org/2000/svg"><path d="M22.781 22.781V2.156a.937.937 0 0 0-.937-.937H2.097m13.184 3.75v-3.75M4.97 4.969v-3.75m6.562 7.5v3.75a.94.94 0 0 0 .938.937h.937m-7.5-4.687H4.97a.937.937 0 0 0-.938.937c0 1.406 1.875 1.406 1.875 2.813a.94.94 0 0 1-.937.937H4.03M2.156 4.97h16.875s.938 0 .938.937V16.22s0 .937-.938.937H2.156s-.937 0-.937-.937V5.906s0-.937.937-.937m6.563 3.75a.937.937 0 0 0-.938.937v2.813a.938.938 0 0 0 1.875 0V9.656a.937.937 0 0 0-.937-.937m6.562 4.687a1.875 1.875 0 0 0 1.875-1.875v-.937a1.875 1.875 0 0 0-1.875-1.875z" stroke="#fff" stroke-linecap="round" stroke-linejoin="round"/></svg>