<svg viewBox="0 0 24 24" fill="none" xmlns="http://www.w3.org/2000/svg"><path d="m6.225 8.895 5.034-5.033a1.05 1.05 0 0 1 1.484 0l5.032 5.033m-4.725 3.15v4.2c0 .58.47 1.05 1.05 1.05h1.05m-8.4-5.25H5.7c-.58 0-1.05.47-1.05 1.05 0 1.575 2.1 1.575 2.1 3.15 0 .58-.47 1.05-1.05 1.05H4.65m4.2 0v-4.2a1.05 1.05 0 0 1 2.1 0v4.2m-2.099-2.1h2.1m8.399 2.1H18.3c-.58 0-1.05-.47-1.05-1.05v-3.15c0-.58.47-1.05 1.05-1.05h1.05m-2.099 3.15h2.1M3.6 8.895h16.8s2.1 0 2.1 2.1v7.35s0 2.1-2.1 2.1H3.6s-2.1 0-2.1-2.1v-7.35s0-2.1 2.1-2.1" stroke="#fff" stroke-linecap="round" stroke-linejoin="round"/></svg>