<svg viewBox="0 0 24 24" fill="none" xmlns="http://www.w3.org/2000/svg"><path d="M1.688 14.813h1.875s.468 0 .468.468v4.688s0 .468-.468.468H1.687s-.468 0-.468-.468V15.28s0-.469.468-.469M6.375 12H8.25s.469 0 .469.469v7.5s0 .468-.469.468H6.375s-.469 0-.469-.468v-7.5s0-.469.469-.469M11.063 9.188h1.874s.47 0 .47.468V19.97s0 .468-.47.468h-1.874s-.47 0-.47-.468V9.656s0-.469.47-.469M15.75 6.375h1.875s.469 0 .469.469v13.125s0 .468-.469.468H15.75s-.469 0-.469-.468V6.844s0-.469.469-.469M20.438 3.563h1.875s.468 0 .468.468V19.97s0 .468-.468.468h-1.875s-.47 0-.47-.468V4.03s0-.468.47-.468" stroke="#fff" stroke-linecap="round" stroke-linejoin="round"/></svg>