<svg viewBox="0 0 24 24" fill="none" xmlns="http://www.w3.org/2000/svg"><path d="M9.656 4.031h6.534M9.656 6.844h6.534M8.408 17.878a4.343 4.343 0 0 0-7.19 2.09h5.626m8.748-2.09a4.343 4.343 0 0 1 7.19 2.09h-5.626M6.844 8.719a.937.937 0 0 0 .937.938h.938l2.412 2.412a.234.234 0 0 0 .4-.162v-2.25h6.563a.94.94 0 0 0 .937-.937V2.156a.937.937 0 0 0-.937-.937H7.78a.937.937 0 0 0-.937.937zm-3.516 4.923a2.11 2.11 0 1 0 4.219 0 2.11 2.11 0 0 0-4.219 0m13.125 0a2.11 2.11 0 1 0 4.22 0 2.11 2.11 0 0 0-4.22 0m-6.562 2.812a2.11 2.11 0 1 0 4.22 0 2.11 2.11 0 0 0-4.22 0m6.328 6.328a4.354 4.354 0 0 0-8.438 0z" stroke="#fff" stroke-linecap="round" stroke-linejoin="round"/></svg>