<svg viewBox="0 0 24 24" fill="none" xmlns="http://www.w3.org/2000/svg"><path d="M19.006 4.969h1.9m0 0 1.875 11.25m-1.875-11.25V2.625A1.406 1.406 0 0 0 19.5 1.219h-15a1.406 1.406 0 0 0-1.406 1.406v2.344m19.687 11.25H1.22m21.562 0v4.218a1.406 1.406 0 0 1-1.406 1.407H2.625a1.406 1.406 0 0 1-1.406-1.407V16.22m0 0 1.875-11.25m0 0h2.135m-2.76 3.75h19.063m-17.5 13.125v.937m15.937-.937v.937M10.692 5.076h2.852m-2.902 1.308a.47.47 0 0 1-.468.46H5.507a.47.47 0 0 1-.469-.534l.26-1.875a.47.47 0 0 1 .47-.404h4.445a.47.47 0 0 1 .469.478zm2.952 0a.47.47 0 0 0 .469.46h4.665a.47.47 0 0 0 .47-.534l-.261-1.875a.47.47 0 0 0-.468-.404h-4.447a.47.47 0 0 0-.469.478z" stroke="#3A3D40" stroke-linecap="round" stroke-linejoin="round"/></svg>