<svg viewBox="0 0 24 24" fill="none" xmlns="http://www.w3.org/2000/svg"><path d="M10.622 17.082a4.6 4.6 0 0 1-2.297 3.978c-3.063 1.768-6.89-.442-6.89-3.978 0-1.641.875-3.158 2.296-3.979 3.063-1.768 6.89.443 6.89 3.979m0 0V8.487m0-1.97V2.84a2.096 2.096 0 0 0-2.756 0L6.487 6.516 5.11 7.894l-2.756 6.432m11.025 2.756c0 3.536 3.828 5.746 6.89 3.978a4.6 4.6 0 0 0 2.298-3.978c0-3.536-3.828-5.747-6.891-3.979a4.6 4.6 0 0 0-2.297 3.979m0 0V8.487m0-1.97V2.898c.79-.689 1.967-.689 2.756 0l1.378 3.617 1.379 1.378 2.756 6.432M8.325 10.19c0-1.01 1.645-1.837 3.675-1.837s3.675.822 3.675 1.837" stroke="#3A3D40" stroke-linecap="round" stroke-linejoin="round"/></svg>