<svg viewBox="0 0 24 24" fill="none" xmlns="http://www.w3.org/2000/svg"><path d="M16.219 22.781v-4.687a.94.94 0 0 1 .937-.938h4.688m-5.625 5.625H3.094a.937.937 0 0 1-.938-.937V4.03a.937.937 0 0 1 .938-.937h17.812a.94.94 0 0 1 .938.937v13.125m-5.625 5.625 5.625-5.625M4.969 1.22v4.219m4.687-4.22v4.22m4.688-4.22v4.22m4.687-4.22v4.22M9.656 7.78l-2.812 2.813-1.407-1.406m4.22 3.75L6.843 15.75l-1.407-1.406m6.094-4.688h6.094m-6.094 4.688h6.094" stroke="#3A3D40" stroke-linecap="round" stroke-linejoin="round"/></svg>