<svg viewBox="0 0 24 24" fill="none" xmlns="http://www.w3.org/2000/svg"><path d="M8.25 6.522a1.875 1.875 0 0 1 0-2.652 1.875 1.875 0 0 0 0-2.651M12 6.522a1.873 1.873 0 0 1 0-2.652 1.875 1.875 0 0 0 0-2.651m3.75 5.303a1.873 1.873 0 0 1 0-2.652 1.875 1.875 0 0 0 0-2.651M5.906 11.57c0 .745.642 1.46 1.785 1.988s2.693.824 4.309.824 3.166-.296 4.309-.824c1.143-.527 1.785-1.242 1.785-1.988m-12.188 0c0-.746.642-1.462 1.785-1.99 1.143-.527 2.693-.823 4.309-.823s3.166.296 4.309.824c1.143.527 1.785 1.243 1.785 1.989m-12.188 0c-.022 2.1.35 4.185 1.097 6.148.107.274.277.52.497.715a6.68 6.68 0 0 0 4.5 1.574 6.68 6.68 0 0 0 4.505-1.574c.22-.196.39-.441.497-.715a16.8 16.8 0 0 0 1.092-6.148m-.264 3.135c1.607.857 2.608 2.056 2.608 3.388 0 2.588-3.778 4.687-8.438 4.687s-8.437-2.099-8.437-4.687c0-1.332 1-2.532 2.606-3.388m1.637-1.095c-.269-1.127 1.712-2.08 4.194-2.08s4.462.953 4.194 2.08" stroke="#3A3D40" stroke-linecap="round" stroke-linejoin="round"/></svg>