<svg viewBox="0 0 24 24" fill="none" xmlns="http://www.w3.org/2000/svg"><path d="M13.75 2.425c4.47.56 8.269 4.325 8.269 8.886a8.93 8.93 0 0 1-3.675 7.223v4.032M4.561 15.675v-.46H2.439a.46.46 0 0 1-.435-.6C3.758 9.18 5.02 3.336 10.994 2.464m-1.838 20.1v-1.837H7.318c-.284 0-.566-.043-.836-.129m7.24-11.59c3.008 1.04 3.763 4.946 1.359 7.032-2.404 2.085-6.164.786-6.769-2.339a4.135 4.135 0 0 1 2.71-4.692M5.48 18.662c0-1.149-1.148-1.149-1.148-1.149h-.46c-1.148 0-1.148 1.149-1.148 1.149 0 1.148 1.149 1.148 1.149 1.148h.459c1.148 0 1.148-1.148 1.148-1.148m0 0c2.222 0 4.89-1.898 6.473-4.43m-.041-12.798h.919s.918 0 .918.92v6.43s0 .92-.918.92h-.919s-.919 0-.919-.92v-6.43s0-.92.919-.92m-.919 11.485a1.378 1.378 0 1 0 2.756 0 1.378 1.378 0 0 0-2.756 0" stroke="#3A3D40" stroke-linecap="round" stroke-linejoin="round"/></svg>