<svg viewBox="0 0 24 24" fill="none" xmlns="http://www.w3.org/2000/svg"><path d="M4.969 8.719h8.906M4.969 11.53h8.906M4.969 5.906h6.562M4.97 14.344H12m-7.031 2.812h3.75m0 5.625H2.156a.937.937 0 0 1-.937-.937V2.156a.937.937 0 0 1 .937-.937h12.462c.25 0 .487.099.663.274l3.476 3.476a.94.94 0 0 1 .274.663v3.087M15.47 21.656l-3.938 1.125 1.125-3.937m2.813 2.812 6.73-6.73a1.989 1.989 0 0 0-2.812-2.813l-6.73 6.73m2.812 2.813-2.813-2.812m5.887-5.887 2.812 2.813" stroke="#3A3D40" stroke-linecap="round" stroke-linejoin="round"/></svg>