<svg viewBox="0 0 24 24" fill="none" xmlns="http://www.w3.org/2000/svg"><path d="M9.656 22.781h-7.5a.937.937 0 0 1-.937-.937V2.156a.937.937 0 0 1 .937-.937h12.46a.94.94 0 0 1 .665.281l3.469 3.469a.94.94 0 0 1 .275.663v3.087M4.969 13.793l2.77-2.77a.81.81 0 0 1 1.021-.101l1.306.87a.81.81 0 0 0 1.04-.12l2.564-2.738M4.966 6.847v9.375h3.75m3.753-.18v5.802a.94.94 0 0 0 .937.937h6.563a.94.94 0 0 0 .937-.937v-5.802m-10.312 1.583 5.488-4.643a.94.94 0 0 1 1.211 0l5.488 4.643m-4.687 5.156H15.28V19.97a1.406 1.406 0 0 1 2.813 0z" stroke="#3A3D40" stroke-linecap="round" stroke-linejoin="round"/></svg>