<svg viewBox="0 0 24 24" fill="none" xmlns="http://www.w3.org/2000/svg"><path d="M18.757 10.953a2.578 2.578 0 1 0-1.428-3.86m1.314 5.019a3.3 3.3 0 0 1 2.113.138 3.28 3.28 0 0 1 2.025 3.031v2.813h-1.484l-.39 4.687h-2.813l-.188-2.25M5.243 10.953a2.578 2.578 0 1 1 1.428-3.86m-1.314 5.019a3.3 3.3 0 0 0-2.113.138A3.28 3.28 0 0 0 1.22 15.28v2.813h1.484l.39 4.687h2.813l.1-1.197m8.807-8.178A2.813 2.813 0 0 0 12 16.22v2.343h1.406l.469 4.22h1.875l.469-4.22h1.406V16.22a2.81 2.81 0 0 0-2.812-2.813m-2.475-7.853a.47.47 0 0 1-.676 0L9.717 3.525a1.35 1.35 0 0 1 1.908-1.91l.375.374.375-.375a1.35 1.35 0 1 1 1.91 1.911zm-3.15 8.79A2.81 2.81 0 0 1 12 17.157V19.5h-1.406l-.469 3.281H8.25L7.781 19.5H6.375v-2.344a2.813 2.813 0 0 1 2.813-2.812m-1.876-2.812a1.875 1.875 0 1 0 3.75 0 1.875 1.875 0 0 0-3.75 0m5.626-.937a1.875 1.875 0 1 0 3.749 0 1.875 1.875 0 0 0-3.75 0" stroke="#3A3D40" stroke-linecap="round" stroke-linejoin="round"/></svg>