<svg viewBox="0 0 24 24" fill="none" xmlns="http://www.w3.org/2000/svg"><path d="m1.219 6.844 10.347-5.52a.94.94 0 0 1 .868 0l10.347 5.52M17.86 10.36a2.11 2.11 0 1 0 4.22 0 2.11 2.11 0 0 0-4.22 0m2.11 3.046a2.813 2.813 0 0 0-2.813 2.813v2.343h1.407l.468 4.22h1.875l.469-4.22h1.406V16.22a2.813 2.813 0 0 0-2.812-2.813M1.922 10.36a2.11 2.11 0 1 0 4.219 0 2.11 2.11 0 0 0-4.22 0m2.11 3.046a2.813 2.813 0 0 0-2.813 2.813v2.343h1.406l.469 4.22h1.875l.468-4.22h1.407V16.22a2.813 2.813 0 0 0-2.813-2.813m5.39-4.922a2.578 2.578 0 1 0 5.156 0 2.578 2.578 0 0 0-5.156 0m5.86 6.797a3.282 3.282 0 0 0-6.563 0v2.813h1.484l.39 4.687h2.813l.391-4.687h1.484z" stroke="#3A3D40" stroke-linecap="round" stroke-linejoin="round"/></svg>