<svg viewBox="0 0 24 24" fill="none" xmlns="http://www.w3.org/2000/svg"><path d="M14.344 8.484 11 9.584a1.113 1.113 0 0 1-.844-2.053l3.239-1.62a2.28 2.28 0 0 1 1.791-.099l4.782 1.735m0 0v6.562m0-6.562a.937.937 0 0 1 .937-.938h1.875m-2.812 7.5-5.63 1.07m5.63-1.07a.937.937 0 0 0 .937.938h1.875m-18.75-.938h2.344l3.366 3.773a1.286 1.286 0 0 0 2.259-.84v-.589M4.031 14.11V7.547a.937.937 0 0 0-.937-.938H1.219m2.812 7.5a.937.937 0 0 1-.937.938H1.219M12 16.453l.168.068a1.588 1.588 0 0 0 2.176-1.474M12 16.453l-.937-.937m3.28-.47h.47a1.406 1.406 0 0 0 1.124-2.25l-3-3.843m1.407 6.094-1.406-1.406m-2.296-6.358-.343-.28a2.01 2.01 0 0 0-1.94-.253L4.03 8.484" stroke="#3A3D40" stroke-linecap="round" stroke-linejoin="round"/></svg>