<svg viewBox="0 0 24 24" fill="none" xmlns="http://www.w3.org/2000/svg"><path d="M21.375 14.813c.583.643.916 1.475.938 2.343 0 3.107-4.618 5.625-10.313 5.625S1.688 20.263 1.688 17.156c.021-.868.354-1.7.937-2.343M7.6 2.624a4.66 4.66 0 0 0-1.513 3.024c0 1.89 1.513 3.78 1.513 5.671a4.66 4.66 0 0 1-1.513 3.024M17.913 2.625A4.67 4.67 0 0 0 16.4 5.649c0 1.89 1.513 3.781 1.513 5.671a4.67 4.67 0 0 1-1.513 3.024M12.938 1.219a5.78 5.78 0 0 0-1.876 3.75c0 2.343 1.876 4.687 1.876 7.031a5.79 5.79 0 0 1-1.876 3.75" stroke="#3A3D40" stroke-linecap="round" stroke-linejoin="round"/></svg>