<svg viewBox="0 0 24 24" fill="none" xmlns="http://www.w3.org/2000/svg"><path d="M13.406 17.156v-2.343a1.407 1.407 0 0 1 2.813 0v2.343m-4.688-5.454v4.986a.47.47 0 0 0 .469.468h5.625a.47.47 0 0 0 .469-.468v-4.986m-8.438 1.704 4.842-4.4a.47.47 0 0 1 .63 0l4.84 4.4M1.219 19.5A3.28 3.28 0 0 0 4.5 22.781M1.219 19.5a3.281 3.281 0 0 1 6.562 0m-6.562 0v-15a3.281 3.281 0 1 1 6.562 0v15M4.5 22.781A3.28 3.28 0 0 0 7.781 19.5M4.5 22.781h17.344a.94.94 0 0 0 .937-.937V4.969a.937.937 0 0 0-.937-.938H10.125M3.094 19.5a1.406 1.406 0 1 0 2.813 0 1.406 1.406 0 0 0-2.813 0" stroke="#3A3D40" stroke-linecap="round" stroke-linejoin="round"/></svg>