<svg viewBox="0 0 24 24" fill="none" xmlns="http://www.w3.org/2000/svg"><path d="M9.656 17.156v5.157a.47.47 0 0 0 .469.468H19.5a.47.47 0 0 0 .469-.468v-5.157m-13.125-.468 7.306-7.306a.937.937 0 0 1 1.325 0l7.306 7.306M3.094 22.78V5.906m0 16.875-1.875-1.875m1.875 1.875 1.875-1.875m-1.875-15 1.875 1.875M3.094 5.906 1.219 7.781m4.687-4.687h16.875m-16.875 0 1.875-1.875M5.906 3.094l1.875 1.875m15-1.875-1.875 1.875m1.875-1.875-1.875-1.875m-7.031 12.187h1.875s.469 0 .469.469v1.875s0 .469-.469.469h-1.875s-.469 0-.469-.469v-1.875s0-.469.469-.469" stroke="#3A3D40" stroke-linecap="round" stroke-linejoin="round"/></svg>