<svg viewBox="0 0 24 24" fill="none" xmlns="http://www.w3.org/2000/svg"><path d="M4.969 7.238V19.03a.47.47 0 0 0 .468.469h4.22M19.03 7.238v2.418m-17.812.938 10.247-9.169a.806.806 0 0 1 1.068 0l10.247 9.169M18.688 14c-2.605 0-3.646 1.042-3.646 3.125s1.041 3.125 3.646 3.125M14 16.232h4.167M14 18.196h4.167m-6.636-1.04a5.625 5.625 0 1 0 11.25 0 5.625 5.625 0 0 0-11.25 0m-.469-11.25h1.876s.468 0 .468.469V8.25s0 .469-.469.469h-1.874s-.47 0-.47-.469V6.375s0-.469.47-.469" stroke="#3A3D40" stroke-linecap="round" stroke-linejoin="round"/></svg>