<svg viewBox="0 0 24 24" fill="none" xmlns="http://www.w3.org/2000/svg"><path d="M13.406 15.593v6.72a.47.47 0 0 0 .469.468h6.563a.47.47 0 0 0 .468-.468v-6.72m-9.375 1.563 5.625-4.687 5.625 4.687M6.623 4.99a5.392 5.392 0 0 1 10.533 1.62v8.671m0 0a1.406 1.406 0 1 1 0 2.813 1.406 1.406 0 0 1 0-2.813M11.531 8.25a5.156 5.156 0 1 0-6.562 4.957v1.137l-.772.771a.234.234 0 0 0 0 .332l.772.772v.937l-.772.772a.234.234 0 0 0 0 .332l.772.771v1.407l1.24 1.24a.24.24 0 0 0 .256.05.2.2 0 0 0 .076-.05l1.24-1.24v-7.231a5.156 5.156 0 0 0 3.75-4.957M4.97 6.375a1.406 1.406 0 1 0 2.812 0 1.406 1.406 0 0 0-2.812 0" stroke="#3A3D40" stroke-linecap="round" stroke-linejoin="round"/></svg>