<svg viewBox="0 0 24 24" fill="none" xmlns="http://www.w3.org/2000/svg"><path d="M13.406 21.084c3.994 2.053 3.281 1.67 6.244 1.67 1.228 0 1.875-.798 2.203-1.95l.89-2.448a.94.94 0 0 0-.14-.815.94.94 0 0 0-.75-.375h-2.278a.94.94 0 0 1-.74-.366 1.26 1.26 0 0 1-.16-.937l.412-1.875a.797.797 0 0 0-1.424-.657l-2.27 3.488a.94.94 0 0 1-.759.393h-1.228M4.97 7.238V19.03a.47.47 0 0 0 .468.469H8.72M19.03 7.238v3.824M1.22 10.595l10.247-9.169a.806.806 0 0 1 1.068 0l10.247 9.169m-11.718 5.625h1.874s.47 0 .47.468v5.625s0 .47-.47.47h-1.874s-.47 0-.47-.47v-5.625s0-.468.47-.468m0-10.313h1.874s.47 0 .47.469V8.25s0 .469-.47.469h-1.874s-.47 0-.47-.469V6.375s0-.469.47-.469" stroke="#3A3D40" stroke-linecap="round" stroke-linejoin="round"/></svg>