<svg viewBox="0 0 24 24" fill="none" xmlns="http://www.w3.org/2000/svg"><path d="m19.031 8.953 3.75 2.578m0 0v9.844a1.406 1.406 0 0 1-1.406 1.406H2.625a1.406 1.406 0 0 1-1.406-1.406v-9.844m21.562 0-5.625 3.75M1.22 11.531l3.75-2.578m-3.75 2.578 5.625 3.75M4.03 19.97l4.688-3.75h6.562l4.688 3.75m-.938-5.937V2.156a.937.937 0 0 0-.937-.937H5.906a.937.937 0 0 0-.937.937v11.876M14.375 4c-3.542 0-4.958 1.417-4.958 4.25s1.416 4.25 4.958 4.25M8 7.25h5.667M8 9.5h5.667" stroke="#3A3D40" stroke-linecap="round" stroke-linejoin="round"/></svg>