<svg viewBox="0 0 24 24" fill="none" xmlns="http://www.w3.org/2000/svg"><path d="M9.188 8.062a2.813 2.813 0 1 1 3.937 2.58A1.88 1.88 0 0 0 12 12.36v.39m-.004 2.52a.246.246 0 0 0-.241.255.255.255 0 0 0 .254.245h.005a.246.246 0 0 0 .24-.255.255.255 0 0 0-.25-.245H12m0-13.582c-5.959 0-10.781 3.987-10.781 8.906a8.2 8.2 0 0 0 3.187 6.32l-2.25 5.398L8.13 18.9A12.8 12.8 0 0 0 12 19.5c5.954 0 10.781-3.987 10.781-8.906S17.954 1.688 12 1.688" stroke="#3A3D40" stroke-linecap="round" stroke-linejoin="round"/></svg>