<svg viewBox="0 0 24 24" fill="none" xmlns="http://www.w3.org/2000/svg"><path d="M9.422 8.484a2.578 2.578 0 1 0 5.156 0 2.578 2.578 0 0 0-5.156 0M15.281 15.281a3.281 3.281 0 0 0-6.562 0v2.813h1.484l.39 4.687h2.813l.391-4.687h1.484zM1.922 3.328a2.11 2.11 0 1 0 4.219 0 2.11 2.11 0 0 0-4.22 0M4.031 6.375A2.813 2.813 0 0 0 1.22 9.188v2.343h1.406l.469 4.219h1.875l.468-4.219h1.407V9.187A2.813 2.813 0 0 0 4.03 6.376M17.86 3.328a2.11 2.11 0 1 0 4.218 0 2.11 2.11 0 0 0-4.219 0M19.969 6.375a2.813 2.813 0 0 0-2.813 2.813v2.343h1.407l.468 4.219h1.875l.469-4.219h1.406V9.187a2.813 2.813 0 0 0-2.812-2.812" stroke="#3A3D40" stroke-linecap="round" stroke-linejoin="round"/></svg>