<svg viewBox="0 0 24 24" fill="none" xmlns="http://www.w3.org/2000/svg"><path d="M22.785 22.313H1.222m17.81 0v-2.344a.47.47 0 0 1 .468-.469h1.875a.47.47 0 0 1 .469.469v2.343m-8.438 0V16.22a.47.47 0 0 1 .469-.469h1.875a.47.47 0 0 1 .469.469v6.093m-8.438 0V12.47A.47.47 0 0 1 8.25 12h1.875a.47.47 0 0 1 .469.469v9.844m-8.438 0V8.719a.47.47 0 0 1 .469-.469H4.5a.47.47 0 0 1 .469.469v13.594m15.472-9.375L3.566 1.688m16.875 11.25-.468-3.75m.468 3.75-3.75.468" stroke="#3A3D40" stroke-linecap="round" stroke-linejoin="round"/></svg>