<svg viewBox="0 0 24 24" fill="none" xmlns="http://www.w3.org/2000/svg"><path d="m8.767 20.203-.001 2.344m6.563-2.344v2.344M6.422 12.234v-3.99a2.8 2.8 0 0 1 .824-1.99l.927-.926m-2.689 6.906H7.36M1.268 17.86H22.74M9.975 5.43a1.297 1.297 0 0 1-1.698-1.96l1.961-1.698a1.297 1.297 0 0 1 1.697 1.961zM22.677 17.47c.07.181.083.38.036.567l-.22 1.455a.94.94 0 0 1-.909.71H2.424a.94.94 0 0 1-.91-.71l-.22-1.455a.94.94 0 0 1 .036-.567l2.982-7.451a.94.94 0 0 1 .874-.598h13.72a.94.94 0 0 1 .874.598zm-4.647-2.047a.47.47 0 0 1-.46.562h-5.42a.467.467 0 0 1-.459-.562l.75-3.75a.47.47 0 0 1 .46-.375h3.919a.47.47 0 0 1 .46.375z" stroke="#3A3D40" stroke-linecap="round" stroke-linejoin="round"/></svg>