<svg viewBox="0 0 24 24" fill="none" xmlns="http://www.w3.org/2000/svg"><path d="M1.219 20.615H22.78M4.031 11.24v9.375m15.938 0V11.24m0-2.071V5.146a.47.47 0 0 0-.469-.469h-1.875a.47.47 0 0 0-.469.469v1.948M10.594 18.74V14.52a.47.47 0 0 0-.469-.469H7.313a.47.47 0 0 0-.47.469v4.219m-.937 1.875v-1.406a.47.47 0 0 1 .469-.47h4.688a.47.47 0 0 1 .468.47v1.406m.75-17.138a.47.47 0 0 0-.557 0l-9.361 6.917a.469.469 0 0 0 .28.844h18.715a.469.469 0 0 0 .281-.844zm1.594 10.575h3.75s.469 0 .469.469v2.813s0 .468-.469.468h-3.75s-.469 0-.469-.468V14.52s0-.469.469-.469" stroke="#3A3D40" stroke-linecap="round" stroke-linejoin="round"/></svg>