<svg viewBox="0 0 24 24" fill="none" xmlns="http://www.w3.org/2000/svg"><path d="M19.969 20.906a1.406 1.406 0 0 0 1.406-1.406c0-.776-1.406-5.625-1.406-5.625s-1.407 4.849-1.407 5.625a1.407 1.407 0 0 0 1.407 1.406m0 0v1.875M15.28 5.906v16.875m-11.25 0V5.906M12.47 1.22v.937m-3.75 20.625V19.97a.938.938 0 0 1 1.875 0v2.812M5.906 8.72h.938m-.938 2.812h.938m-.938 2.813h.938m-.938 2.812h.938m-.938 2.813h.938m5.625 0h.937M8.72 8.719h1.875M8.719 11.53h1.875m-1.875 2.813h1.875m-1.875 2.812h1.875m1.875-8.437h.937m-.937 2.812h.937m-.937 2.813h.937m-.937 2.812h.937M1.22 22.781H22.78M16.688 5.906H2.624l1.178-3.141a.94.94 0 0 1 .878-.609h9.95a.94.94 0 0 1 .878.609z" stroke="#3A3D40" stroke-linecap="round" stroke-linejoin="round"/></svg>