<svg viewBox="0 0 24 24" fill="none" xmlns="http://www.w3.org/2000/svg"><path d="M1.219 20.906H22.78m-21.562-7.5 9.375-3.75m-7.5 3.018v8.232M9.188 3.094 22.78 11.53m-1.875-1.143v10.518M18.094 8.632V5.438a.47.47 0 0 1 .468-.47h.938a.47.47 0 0 1 .469.47v4.35m-1.407 11.118a.47.47 0 0 0 .47-.468v-2.813a.47.47 0 0 0-.47-.469h-5.625a.47.47 0 0 0-.468.469v2.813a.47.47 0 0 0 .469.468m3.28-3.75v3.75m-7.968 0a.47.47 0 0 0 .469-.468v-3.75a.47.47 0 0 0-.469-.47H5.438a.47.47 0 0 0-.47.47v3.75a.47.47 0 0 0 .47.468m5.156-16.919v16.92m2.813-9.376a1.406 1.406 0 1 0 2.812 0 1.406 1.406 0 0 0-2.812 0" stroke="#3A3D40" stroke-linecap="round" stroke-linejoin="round"/></svg>