<svg viewBox="0 0 24 24" fill="none" xmlns="http://www.w3.org/2000/svg"><path d="M4.969 12.469v6.562a.94.94 0 0 0 .937.938h12.188a.94.94 0 0 0 .937-.938V12.47m-14.062 0 .468-5.625a1.875 1.875 0 0 1 1.875-1.875h9.375a1.875 1.875 0 0 1 1.875 1.875l.47 5.625m-14.063 0H19.03m-8.906-7.5v-3.75m3.75 3.75v-3.75m-6.094 0h8.438m-9.375 18.75L2.156 22.78m15-2.812 4.688 2.812M7.312 16.22a1.406 1.406 0 1 0 2.813 0 1.406 1.406 0 0 0-2.812 0m6.563 0a1.406 1.406 0 1 0 2.813 0 1.406 1.406 0 0 0-2.813 0" stroke="#3A3D40" stroke-linecap="round" stroke-linejoin="round"/></svg>