<svg viewBox="0 0 24 24" fill="none" xmlns="http://www.w3.org/2000/svg"><path d="M19.031 22.781v-15a3.75 3.75 0 0 0-3.75-3.75H8.72a3.75 3.75 0 0 0-3.75 3.75v15m14.062 0H4.97m14.062 0h.938a1.875 1.875 0 0 0 1.875-1.875V16.22a1.875 1.875 0 0 0-1.875-1.875h-.938M4.97 22.78H4.03a1.875 1.875 0 0 1-1.875-1.875V16.22a1.875 1.875 0 0 1 1.875-1.875h.938M9.188 4.03a2.812 2.812 0 1 1 5.624 0M6.845 16.22h10.312m-2.812 0v1.406m-12.188-.469H4.97m14.062 0h2.813m-13.125-3.75h6.562s1.875 0 1.875 1.875v3.75s0 1.875-1.875 1.875H8.72s-1.875 0-1.875-1.875v-3.75s0-1.875 1.875-1.875" stroke="#3A3D40" stroke-linecap="round" stroke-linejoin="round"/></svg>