<svg viewBox="0 0 24 24" fill="none" xmlns="http://www.w3.org/2000/svg"><path d="M4.263 10.516H1.688a.47.47 0 0 0-.47.469v1.875a.47.47 0 0 0 .47.468h2.574c.191.95.507 1.871.937 2.739L3.382 17.89a.47.47 0 0 0 0 .664l1.989 1.989a.47.47 0 0 0 .663 0l1.82-1.822c.868.431 1.79.746 2.74.937v2.575a.47.47 0 0 0 .469.469h1.874a.47.47 0 0 0 .47-.47v-2.57c.949-.191 1.87-.506 2.737-.937l1.822 1.821a.47.47 0 0 0 .663 0l1.988-1.99a.47.47 0 0 0 0-.662l-1.82-1.825c.43-.868.746-1.789.937-2.739h2.578a.47.47 0 0 0 .47-.468v-1.875a.47.47 0 0 0-.47-.47h-2.575M7.781 4.8v7.125a.47.47 0 0 0 .469.469h7.5a.47.47 0 0 0 .469-.469V4.8M4.969 7.237l6.724-5.83a.47.47 0 0 1 .614 0l6.724 5.83m-5.625 5.156v-2.344a1.406 1.406 0 1 0-2.812 0v2.344m4.55 2.345a4.22 4.22 0 0 1-6.29 0" stroke="#3A3D40" stroke-linecap="round" stroke-linejoin="round"/></svg>