<svg viewBox="0 0 24 24" fill="none" xmlns="http://www.w3.org/2000/svg"><path d="M12.938 7.538H1.688a.47.47 0 0 1-.47-.47V4.257a.47.47 0 0 1 .47-.468h11.25m6.983 3.701a2.981 2.981 0 1 1-4.217-4.216 2.981 2.981 0 0 1 4.217 4.216m0 0 2.86 2.861M4.97 15.975H15.28M4.97 11.288H15.28M4.97 20.663H15.28M1.22 15.975a.937.937 0 1 0 1.874 0 .937.937 0 0 0-1.874 0m0 4.688a.937.937 0 1 0 1.874 0 .937.937 0 0 0-1.874 0m0-9.375a.937.937 0 1 0 1.874 0 .937.937 0 0 0-1.874 0" stroke="#3A3D40" stroke-linecap="round" stroke-linejoin="round"/></svg>