<svg viewBox="0 0 24 24" fill="none" xmlns="http://www.w3.org/2000/svg"><path d="M11.943 10.069 8.387 6.514a3.75 3.75 0 0 0-4.961-4.962l2.011 2.01v1.876H3.562L1.551 3.427a3.75 3.75 0 0 0 4.96 4.962l3.557 3.555m1.99 1.99 3.555 3.555a3.75 3.75 0 0 0 4.961 4.962l-2.012-2.014v-1.875h1.875l2.012 2.013a3.75 3.75 0 0 0-4.96-4.962l-3.557-3.556m1.292-5.27L1.63 20.382a1.407 1.407 0 1 0 1.99 1.99L17.213 8.777m.646-5.917c-.994.995-2.85.9-4.453-.703L12 3.563l7.5 7.5 3.281-3.282z" stroke="#3A3D40" stroke-linecap="round" stroke-linejoin="round"/></svg>