<svg viewBox="0 0 24 24" fill="none" xmlns="http://www.w3.org/2000/svg"><path d="m6.797 13.228 3.975 3.975m7.331-11.287-9.319 9.3m4.153-4.153L8.392 6.516a3.9 3.9 0 0 0 .328-1.547 3.75 3.75 0 0 0-3.75-3.75q-.388 0-.769.075a.469.469 0 0 0-.234.797l1.33 1.33a.46.46 0 0 1 .141.338v1.21a.47.47 0 0 1-.468.468h-1.21a.46.46 0 0 1-.337-.14L2.09 3.966a.48.48 0 0 0-.47-.122.49.49 0 0 0-.327.356q-.074.38-.075.769a3.75 3.75 0 0 0 3.75 3.75 3.9 3.9 0 0 0 1.547-.328l4.547 4.547m3.337-.413 3.084 3.084a3.9 3.9 0 0 1 1.547-.328 3.75 3.75 0 0 1 3.75 3.75q0 .388-.075.769a.47.47 0 0 1-.579.36.5.5 0 0 1-.218-.126l-1.33-1.33a.46.46 0 0 0-.338-.142h-1.21a.47.47 0 0 0-.468.47v1.209a.46.46 0 0 0 .14.337l1.331 1.331a.48.48 0 0 1 .122.47.49.49 0 0 1-.356.327q-.38.075-.769.075a3.75 3.75 0 0 1-3.75-3.75c.002-.532.114-1.06.328-1.547l-3.093-3.093m-8.897 7.978A1.406 1.406 0 0 1 1.63 20.38l6.16-6.16 1.987 1.988zm16.547-15.9a.94.94 0 0 1-.685.365.94.94 0 0 1-.731-.271L17.428 5.24a.94.94 0 0 1-.272-.741.94.94 0 0 1 .403-.684l3.647-2.513a.47.47 0 0 1 .6.056l.835.835a.47.47 0 0 1 0 .619z" stroke="#3A3D40" stroke-linecap="round" stroke-linejoin="round"/></svg>