<?xml version="1.0" encoding="UTF-8"?>
<svg id="a" data-name="Layer 1" xmlns="http://www.w3.org/2000/svg" viewBox="0 0 460 125">
  <g>
    <path d="M205.31,86.36c-2.72,0-4.99-2.3-4.99-5.06v-25.04c0-4.79-1.27-8.56-7.35-8.56-4.26,0-7.25,2.03-8.98,4.88.09.83.18,1.66.18,2.49v26.24c0,2.76-2.27,5.06-5.08,5.06s-4.99-2.3-4.99-5.06v-25.04c0-4.79-1.36-8.56-7.35-8.56-4.17,0-7.16,1.84-8.89,4.51v29.1c0,2.76-2.27,5.06-5.08,5.06s-5.08-2.3-5.08-5.06v-29.74c0-3.41-1.09-4.33-2.72-5.43-.91-.74-1.63-1.75-1.63-3.13,0-3.04,2.18-4.33,5.08-4.33,1.63,0,3.63.64,5.26,1.93.82.74,1.54,1.57,1.99,2.49,3.18-3.13,7.62-4.97,13.51-4.97,6.26,0,9.98,2.12,12.15,5.62,3.17-3.59,7.8-5.62,14.15-5.62,11.34,0,14.87,7,14.87,16.94v26.24c0,2.76-2.27,5.06-5.08,5.06Z" fill="#1a8cff" stroke-width="0"/>
    <path d="M219.55,102.65c-3.54.28-5.53-2.39-5.53-4.97,0-2.3,1.45-4.7,4.53-4.97,4.35-.18,8.25-1.66,11.79-8.1-5.62-14.18-11.43-30.11-14.6-40.33-1.09-3.78,1.81-6.17,4.81-6.17,1.81,0,3.63,1.11,4.26,3.41,2.54,8.1,6.17,18.88,10.34,30.39l9.8-30.39c.73-2.49,2.72-3.41,4.62-3.41,3.17,0,6.08,2.76,4.63,6.81l-11.79,34.25c-5.44,15.38-11.52,22.74-22.86,23.48Z" fill="#1a8cff" stroke-width="0"/>
  </g>
  <g>
    <path d="M293.36,86.36c-2.81,0-5.08-2.3-5.08-5.06v-25.04c0-4.79-1.27-8.47-7.44-8.47-4.17,0-7.44,1.84-9.25,4.79v28.73c0,2.76-2.27,5.06-5.08,5.06s-5.08-2.3-5.08-5.06V26.73c0-2.76,2.36-5.06,5.08-5.06s5.08,2.3,5.08,5.06v15.06c2.81-2.39,6.71-3.68,11.7-3.68,11.52,0,15.15,7.09,15.15,17.03v26.15c0,2.76-2.27,5.06-5.08,5.06Z" fill="#3a3d40" stroke-width="0"/>
    <path d="M324.76,86.36c-13.24,0-18.86-8.75-18.86-19.24v-9.67c0-10.59,5.62-19.34,18.86-19.34s18.87,8.75,18.87,19.34v9.67c0,10.5-5.71,19.24-18.87,19.24ZM324.76,77.06c6.08,0,8.8-3.77,8.8-10.04v-9.58c0-6.26-2.72-10.04-8.8-10.04s-8.8,3.78-8.8,10.04v9.58c0,6.26,2.63,10.04,8.8,10.04Z" fill="#3a3d40" stroke-width="0"/>
    <path d="M409.51,86.36c-2.72,0-4.99-2.3-4.99-5.06v-25.04c0-4.79-1.27-8.56-7.35-8.56-4.26,0-7.25,2.03-8.98,4.88.09.83.18,1.66.18,2.49v26.24c0,2.76-2.27,5.06-5.08,5.06s-4.99-2.3-4.99-5.06v-25.04c0-4.79-1.36-8.56-7.35-8.56-4.17,0-7.16,1.84-8.89,4.51v29.1c0,2.76-2.27,5.06-5.08,5.06s-5.08-2.3-5.08-5.06v-29.74c0-3.41-1.09-4.33-2.72-5.43-.91-.74-1.63-1.75-1.63-3.13,0-3.04,2.18-4.33,5.08-4.33,1.63,0,3.63.64,5.26,1.93.82.74,1.54,1.57,2,2.49,3.17-3.13,7.62-4.97,13.51-4.97,6.26,0,9.98,2.12,12.15,5.62,3.18-3.59,7.8-5.62,14.15-5.62,11.34,0,14.87,7,14.87,16.94v26.24c0,2.76-2.27,5.06-5.08,5.06Z" fill="#3a3d40" stroke-width="0"/>
    <path d="M454.94,65.36h-23.22v2.12c0,6.35,2.72,10.5,8.98,10.5,3.63,0,5.9-.55,7.53-1.11,2-.83,3.17-1.57,4.81-1.57,2.27,0,3.63,1.66,3.63,3.96s-2.09,3.96-4.99,5.16c-3.36,1.29-7.71,1.93-11.61,1.93-13.6,0-18.41-9.21-18.41-19.89v-8.56c0-10.59,5.44-19.8,18.5-19.8s18.32,8.84,18.32,19.7v3.78c0,2.21-1.63,3.78-3.54,3.78ZM448.77,57.54v-1.38c0-6.26-2.36-9.94-8.43-9.94s-8.62,3.78-8.62,9.94v1.38h17.05Z" fill="#3a3d40" stroke-width="0"/>
  </g>
  <path d="M113.99,17.98c-8.95-10.2-22.53-13.59-37.26-9.29-.05.02-.1.03-.15.05-5.44,1.79-9.99,4.58-14.07,7.84-4.08-3.25-8.63-6.05-14.07-7.84-.05-.02-.1-.03-.15-.05-14.73-4.3-28.31-.92-37.26,9.29C-.07,30.61-2.2,51.16,5.67,69.03c4.79,11.45,18.25,33.48,54.57,52.48.71.37,1.49.56,2.26.56s1.55-.19,2.26-.56c36.32-19,49.78-41.04,54.53-52.4,7.9-17.95,5.77-38.5-5.31-51.13ZM62.5,29.67c1.17,1.15,2.36,2.33,3.57,3.55,1.76,1.76,3.57,3.59,5.44,5.36,1.75,1.69,3.68,3.4,5.71,5.08v31.78h-29.45v-31.78c2.02-1.68,3.94-3.37,5.68-5.05,1.9-1.8,3.72-3.63,5.48-5.39,1.21-1.22,2.4-2.41,3.57-3.55ZM110.32,65.26c-3.37,8.06-14.72,28.44-47.82,46.4-33.11-17.95-44.45-38.34-47.86-46.48-6.3-14.32-4.78-31.08,3.71-40.76,4.56-5.2,10.52-7.83,17.53-7.83,3.01,0,6.21.48,9.57,1.46,3.61,1.19,6.74,2.98,9.68,5.17-1.05,1.04-2.09,2.08-3.13,3.12-1.71,1.71-3.47,3.49-5.3,5.22-5.42,5.24-12.94,10.89-20.1,15.13-2.32,1.37-3.09,4.37-1.72,6.69,1.37,2.32,4.37,3.09,6.69,1.72,2.15-1.27,4.31-2.65,6.44-4.1v29.33c0,2.7,2.19,4.88,4.88,4.88h39.21c2.7,0,4.88-2.19,4.88-4.88v-29.33c2.13,1.44,4.28,2.82,6.44,4.1,2.32,1.37,5.32.6,6.69-1.72,1.37-2.32.6-5.32-1.72-6.69-7.17-4.24-14.68-9.89-20.14-15.16-1.8-1.7-3.56-3.48-5.27-5.19-1.03-1.04-2.07-2.08-3.13-3.12,2.94-2.19,6.07-3.97,9.68-5.17,11.22-3.25,20.59-1.05,27.1,6.37,8.49,9.68,10.02,26.44,3.68,40.84Z" fill="#1a8cff" stroke-width="0"/>
</svg>