<svg xmlns="http://www.w3.org/2000/svg" viewBox="-0.75 -0.75 24 24"><desc>Alarm Bell Ring Streamline Icon: https://streamlinehq.com</desc><path d="M17.344 18.281v-4.218a6.09 6.09 0 0 0-3.75-5.626 2.344 2.344 0 0 0-4.688 0 6.09 6.09 0 0 0-3.75 5.626v4.218a1.875 1.875 0 0 1-1.875 1.875H19.22a1.875 1.875 0 0 1-1.875-1.875M13.125 20.156a1.875 1.875 0 1 1-3.75 0M3.281 8.438A5.156 5.156 0 0 1 8.437 3.28" fill="none" stroke="currentColor" vector-effect="non-scaling-stroke" stroke-linecap="round" stroke-linejoin="round" stroke-width="1.5"/><path d="M.469 8.438A7.97 7.97 0 0 1 8.438.468M19.219 8.438a5.156 5.156 0 0 0-5.157-5.157" fill="none" stroke="currentColor" vector-effect="non-scaling-stroke" stroke-linecap="round" stroke-linejoin="round" stroke-width="1.5"/><path d="M22.031 8.438a7.97 7.97 0 0 0-7.968-7.97" fill="none" stroke="currentColor" vector-effect="non-scaling-stroke" stroke-linecap="round" stroke-linejoin="round" stroke-width="1.5"/></svg>