<svg viewBox="0 0 24 24" fill="none" xmlns="http://www.w3.org/2000/svg"><path d="M3.094 4.969a2.344 2.344 0 1 0 4.687 0 2.344 2.344 0 0 0-4.687 0M15.281 12.938h7.012a.47.47 0 0 1 .474.489 8.437 8.437 0 0 1-8.423 7.948H9.656a8.437 8.437 0 0 1-8.423-7.948.47.47 0 0 1 .474-.49h4.668" stroke="currentColor" vector-effect="non-scaling-stroke" stroke-width="1.5" stroke-linecap="round" stroke-linejoin="round"/><path d="M4.031 12.938v-2.344a1.406 1.406 0 0 1 2.187-1.17l2.603 1.732a1.415 1.415 0 0 0 1.594-.025l1.044-.75a1.408 1.408 0 0 1 2.188.827 1.41 1.41 0 0 1-.553 1.462l-1.045.75a4.245 4.245 0 0 1-4.792.077l-.882-.56" stroke="currentColor" vector-effect="non-scaling-stroke" stroke-width="1.5" stroke-linecap="round" stroke-linejoin="round"/></svg>