<svg viewBox="0 0 24 24" fill="none" xmlns="http://www.w3.org/2000/svg"><g clip-path="url(#a)" stroke="currentColor" stroke-width="1.5" stroke-linecap="round" stroke-linejoin="round"><path d="M13.406 14.132H22.3a.47.47 0 0 1 .47.497 8.44 8.44 0 0 1-8.424 7.94H9.657a8.44 8.44 0 0 1-8.424-7.944.47.47 0 0 1 .469-.497h5.142" vector-effect="non-scaling-stroke"/><path d="m16.94 2.753.844-.844a1.875 1.875 0 0 1 3.121 1.406v10.817" vector-effect="non-scaling-stroke"/><path d="M16.94 5.895A2.222 2.222 0 1 0 13.8 2.753l-.192.192a.47.47 0 0 0 0 .663l2.479 2.48a.47.47 0 0 0 .663 0zM11.445 3.896l-1.702.785M15.65 8.114l-.737 1.724M13.135 6.442 11.802 7.76M13.406 13.194a.937.937 0 0 0-.937-.937H7.78a.94.94 0 0 0-.937.937v5.157a.47.47 0 0 0 .468.468h5.626a.47.47 0 0 0 .468-.468z" vector-effect="non-scaling-stroke"/></g><defs><clipPath id="a"><path d="M0 0h24v24H0z"/></clipPath></defs></svg>