<svg viewBox="0 0 24 24" fill="none" xmlns="http://www.w3.org/2000/svg"><g clip-path="url(#a)" stroke="currentColor" stroke-width="1.5" stroke-linecap="round" stroke-linejoin="round"><path d="M1.219 6.85H22.78M19.969 6.844v14.062a1.875 1.875 0 0 1-1.875 1.875H5.906a1.875 1.875 0 0 1-1.875-1.875V6.844M3.094 6.844v-.938a1.875 1.875 0 0 1 1.875-1.875H19.03a1.875 1.875 0 0 1 1.875 1.875v.938M9.188 4.031a2.812 2.812 0 1 1 5.624 0M12 10.125v8.906M16.219 10.125v8.906M7.781 10.125v8.906" vector-effect="non-scaling-stroke"/></g><defs><clipPath id="a"><path d="M0 0h24v24H0z"/></clipPath></defs></svg>