<svg viewBox="0 0 24 24" fill="none" xmlns="http://www.w3.org/2000/svg"><path d="M1.434 17.082c0 3.536 3.828 5.746 6.89 3.978a4.6 4.6 0 0 0 2.298-3.978c0-3.536-3.828-5.747-6.89-3.979a4.6 4.6 0 0 0-2.298 3.979" stroke="currentColor" vector-effect="non-scaling-stroke" stroke-width="1.5" stroke-linecap="round" stroke-linejoin="round"/><path d="M10.622 6.516V2.841a2.096 2.096 0 0 0-2.756 0L6.488 6.516 5.109 7.894l-2.756 6.432M13.378 17.082c0 3.536 3.828 5.746 6.89 3.978a4.6 4.6 0 0 0 2.298-3.978c0-3.536-3.828-5.747-6.891-3.979a4.6 4.6 0 0 0-2.297 3.979" stroke="currentColor" vector-effect="non-scaling-stroke" stroke-width="1.5" stroke-linecap="round" stroke-linejoin="round"/><path d="M13.378 6.516V2.9c.79-.689 1.967-.689 2.756 0l1.378 3.617 1.379 1.378 2.756 6.432M8.325 10.191c0-1.01 1.645-1.837 3.675-1.837s3.675.822 3.675 1.837M10.622 17.082V8.487M13.378 17.082V8.487" stroke="currentColor" vector-effect="non-scaling-stroke" stroke-width="1.5" stroke-linecap="round" stroke-linejoin="round"/></svg>