<svg viewBox="0 0 24 24" fill="none" xmlns="http://www.w3.org/2000/svg"><path d="M4.969 9.188H19.03a3.75 3.75 0 0 1 3.75 3.75v4.687a.937.937 0 0 1-.937.938H2.156a.94.94 0 0 1-.937-.938v-4.687a3.75 3.75 0 0 1 3.75-3.75" stroke="currentColor" vector-effect="non-scaling-stroke" stroke-width="1.5" stroke-linecap="round" stroke-linejoin="round"/><path d="M4.5 9.188 5.184 5.1a1.875 1.875 0 0 1 1.838-1.537h9.956a1.875 1.875 0 0 1 1.875 1.565l.647 4.06M19.5 9.188l1.406-1.876h1.407a.48.48 0 0 1 .468.47v.937a.48.48 0 0 1-.468.469zM4.5 9.188 3.094 7.312H1.688a.47.47 0 0 0-.47.47v.937a.47.47 0 0 0 .47.469zM5.906 18.563v.937a.937.937 0 0 1-.937.938H3.094a.94.94 0 0 1-.938-.938v-.937M21.844 18.563v.937a.94.94 0 0 1-.938.938h-1.875a.94.94 0 0 1-.937-.938v-.937M22.66 13h-4.097l-.47 1.875h2.813a2.12 2.12 0 0 0 1.875-1.106M1.34 13h4.098l.468 1.875H3.094a2.14 2.14 0 0 1-1.875-1.106M5.438 13h13.125" stroke="currentColor" vector-effect="non-scaling-stroke" stroke-width="1.5" stroke-linecap="round" stroke-linejoin="round"/></svg>