<svg viewBox="0 0 24 24" fill="none" xmlns="http://www.w3.org/2000/svg"><g clip-path="url(#a)" stroke="currentColor" stroke-width="1.5" stroke-linecap="round" stroke-linejoin="round"><path d="M1.691 13.973h2.813s.469 0 .469.47v6.562s0 .468-.47.468H1.692s-.468 0-.468-.468v-6.563s0-.469.468-.469" vector-effect="non-scaling-stroke"/><path d="M4.969 20.028c9.843 3.281 6.562 3.281 17.812-2.344a2.585 2.585 0 0 0-2.812-.937l-4.125 1.37" vector-effect="non-scaling-stroke"/><path d="M4.969 14.91H7.78A6.18 6.18 0 0 1 12 16.787h2.813a.954.954 0 1 1 0 1.875H9.656M14.348 4.56a2.813 2.813 0 1 0 5.625-.001 2.813 2.813 0 0 0-5.625 0M9.66 11.122a2.812 2.812 0 1 0 5.625 0 2.812 2.812 0 0 0-5.625 0M12.473 10.184v1.875M17.16 3.622v1.875" vector-effect="non-scaling-stroke"/></g><defs><clipPath id="a"><path d="M0 0h24v24H0z"/></clipPath></defs></svg>