<svg xmlns="http://www.w3.org/2000/svg" viewBox="-0.75 -0.75 24 24"><desc>Common File Home Streamline Icon: https://streamlinehq.com</desc><path d="M11.719 15.289v5.805a.94.94 0 0 0 .937.937h6.563a.94.94 0 0 0 .937-.937v-5.805" fill="none" stroke="currentColor" vector-effect="non-scaling-stroke" stroke-linecap="round" stroke-linejoin="round" stroke-width="1.5"/><path d="m9.844 16.875 5.488-4.643a.94.94 0 0 1 1.211 0l5.488 4.643M17.344 22.031H14.53V19.22a1.406 1.406 0 0 1 2.813 0Z" fill="none" stroke="currentColor" vector-effect="non-scaling-stroke" stroke-linecap="round" stroke-linejoin="round" stroke-width="1.5"/><path d="M7.969 22.031H1.406a.94.94 0 0 1-.937-.937V1.406A.94.94 0 0 1 1.406.47h12.462a.94.94 0 0 1 .663.274l3.476 3.476a.94.94 0 0 1 .274.663v4.024" fill="none" stroke="currentColor" vector-effect="non-scaling-stroke" stroke-linecap="round" stroke-linejoin="round" stroke-width="1.5"/></svg>