<svg xmlns="http://www.w3.org/2000/svg" viewBox="-0.75 -0.75 24 24"><desc>Common File Edit Streamline Icon: https://streamlinehq.com</desc><path d="m21.45 14.175-7.153 7.153-3.516.703.703-3.515 7.154-7.153a1.98 1.98 0 0 1 2.804 0l.008.007a1.98 1.98 0 0 1 0 2.805M7.969 22.031H1.406a.94.94 0 0 1-.937-.937V1.406A.94.94 0 0 1 1.406.47h12.462a.94.94 0 0 1 .663.274l3.476 3.476a.94.94 0 0 1 .274.663v3.087" fill="none" stroke="currentColor" vector-effect="non-scaling-stroke" stroke-linecap="round" stroke-linejoin="round" stroke-width="1.5"/></svg>