<svg viewBox="0 0 24 24" fill="none" xmlns="http://www.w3.org/2000/svg"><path d="M3.094 8.719h14.062s1.875 0 1.875 1.875v9.375s0 1.875-1.875 1.875H3.094s-1.875 0-1.875-1.875v-9.375s0-1.875 1.875-1.875" stroke="currentColor" vector-effect="non-scaling-stroke" stroke-width="1.5" stroke-linecap="round" stroke-linejoin="round"/><path d="M3.563 10.594h1.874s.47 0 .47.469v1.874s0 .47-.47.47H3.563s-.468 0-.468-.47v-1.874s0-.47.469-.47M3.094 16.219H7.78M3.094 18.094h3.75M15.281 15.75a1.87 1.87 0 0 0-1.406.637 1.875 1.875 0 1 0 0 2.476 1.875 1.875 0 1 0 1.406-3.113" stroke="currentColor" vector-effect="non-scaling-stroke" stroke-width="1.5" stroke-linecap="round" stroke-linejoin="round"/><path d="M13.875 16.388c.218.236.367.528.431.843M20.906 14.344a1.875 1.875 0 0 0 1.875-1.875V4.03a1.875 1.875 0 0 0-1.875-1.875H6.844a1.875 1.875 0 0 0-1.875 1.875v2.813M4.969 5.906H22.78" stroke="currentColor" vector-effect="non-scaling-stroke" stroke-width="1.5" stroke-linecap="round" stroke-linejoin="round"/></svg>