<svg viewBox="0 0 24 24" fill="none" xmlns="http://www.w3.org/2000/svg"><g clip-path="url(#a)" stroke="currentColor" stroke-width="1.5" stroke-linecap="round" stroke-linejoin="round"><path d="m17.223 17.223 5.558 5.558M1.219 10.594a9.375 9.375 0 1 0 18.75 0 9.375 9.375 0 0 0-18.75 0" vector-effect="non-scaling-stroke"/><path d="M10.932 14.473a.47.47 0 0 1-.677 0l-3.542-3.692a2.295 2.295 0 1 1 3.245-3.25l.634.634.634-.634a2.296 2.296 0 0 1 3.892 1.992 2.3 2.3 0 0 1-.643 1.258z" vector-effect="non-scaling-stroke"/></g><defs><clipPath id="a"><path d="M0 0h24v24H0z"/></clipPath></defs></svg>