<svg xmlns="http://www.w3.org/2000/svg" viewBox="-0.75 -0.75 24 24"><desc>Email Action Read Document Streamline Icon: https://streamlinehq.com</desc><path d="m18.281 8.203 3.75 2.578v9.844a1.406 1.406 0 0 1-1.406 1.406H1.875a1.406 1.406 0 0 1-1.406-1.406v-9.844l3.75-2.578" fill="none" stroke="currentColor" vector-effect="non-scaling-stroke" stroke-linecap="round" stroke-linejoin="round" stroke-width="1.5"/><path d="m3.281 19.219 4.688-3.75h6.562l4.688 3.75M22.031 10.781l-5.625 3.75M.469 10.781l5.625 3.75M18.281 13.125V1.406a.94.94 0 0 0-.937-.937H5.156a.94.94 0 0 0-.937.937v11.719M7.031 3.281h1.875M8.906 6.094h6.563M7.031 8.906h8.438M7.031 11.719h8.438" fill="none" stroke="currentColor" vector-effect="non-scaling-stroke" stroke-linecap="round" stroke-linejoin="round" stroke-width="1.5"/></svg>