<svg viewBox="0 0 24 24" fill="none" xmlns="http://www.w3.org/2000/svg"><g clip-path="url(#a)" stroke="currentColor" stroke-width="1.5" stroke-linecap="round" stroke-linejoin="round"><path d="M17.86 10.36a2.11 2.11 0 1 0 4.218 0 2.11 2.11 0 0 0-4.219 0M19.969 13.406a2.813 2.813 0 0 0-2.813 2.813v2.343h1.407l.468 4.22h1.875l.469-4.22h1.406V16.22a2.813 2.813 0 0 0-2.812-2.813M1.922 10.36a2.11 2.11 0 1 0 4.219 0 2.11 2.11 0 0 0-4.22 0M4.031 13.406A2.813 2.813 0 0 0 1.22 16.22v2.343h1.406l.469 4.22h1.875l.468-4.22h1.407V16.22a2.81 2.81 0 0 0-2.813-2.813M9.422 8.484a2.578 2.578 0 1 0 5.156 0 2.578 2.578 0 0 0-5.156 0M15.281 15.281a3.281 3.281 0 0 0-6.562 0v2.813h1.484l.39 4.687h2.813l.391-4.687h1.484z" vector-effect="non-scaling-stroke"/><path d="m1.219 6.844 10.347-5.52a.94.94 0 0 1 .868 0l10.347 5.52" vector-effect="non-scaling-stroke"/></g><defs><clipPath id="a"><path d="M0 0h24v24H0z"/></clipPath></defs></svg>