<svg xmlns="http://www.w3.org/2000/svg" viewBox="-0.75 -0.75 24 24"><desc>Fireworks People Watch Streamline Icon: https://streamlinehq.com</desc><path d="M2.578 15.703a2.11 2.11 0 1 0 4.219 0 2.11 2.11 0 1 0-4.219 0M8.906 22.031a4.354 4.354 0 0 0-8.437 0M15.703 15.703a2.11 2.11 0 1 0 4.219 0 2.11 2.11 0 1 0-4.219 0M13.594 22.031a4.354 4.354 0 0 1 8.437 0M9.14 14.766a2.11 2.11 0 1 0 4.22 0 2.11 2.11 0 1 0-4.22 0" fill="none" stroke="currentColor" vector-effect="non-scaling-stroke" stroke-linecap="round" stroke-linejoin="round" stroke-width="1.5"/><path d="M14.92 19.868a4.313 4.313 0 0 0-7.34 0M7.031.469 5.625 1.875M5.625.469l1.406 1.406M16.406 1.406 15 2.813M15 1.406l1.406 1.407M21.094 5.156l-1.407 1.407M19.688 5.156l1.406 1.407M2.813 3.75 1.406 5.156M1.406 3.75l1.407 1.406M14.381 10.339a8.27 8.27 0 0 1 3.98-4.326M8.438 1.875l.369.188a7.06 7.06 0 0 1 3.85 5.437h0M4.688 4.688a8.5 8.5 0 0 1 6.321 5.43l.241.663" fill="none" stroke="currentColor" vector-effect="non-scaling-stroke" stroke-linecap="round" stroke-linejoin="round" stroke-width="1.5"/></svg>