<svg viewBox="0 0 24 24" fill="none" xmlns="http://www.w3.org/2000/svg"><g clip-path="url(#a)" stroke="currentColor" stroke-width="1.5" stroke-linecap="round" stroke-linejoin="round"><path d="M5.906 5.906H1.22v15.938a.94.94 0 0 0 .937.937h3.75zM22.781 5.906v-3.75a.937.937 0 0 0-.937-.937H5.906v4.687z" vector-effect="non-scaling-stroke"/><path d="M1.219 2.156a.937.937 0 0 1 .937-.937h3.75v4.687H1.22z" vector-effect="non-scaling-stroke"/><path d="M18.288 22.118a2.6 2.6 0 0 1-1.6.663H5.906V5.906h16.875v10.782a2.6 2.6 0 0 1-.663 1.6z" vector-effect="non-scaling-stroke"/><path d="M17.156 22.717v-4.623a.94.94 0 0 1 .938-.938h4.623M8.719 5.906V3.094M12.469 5.906V4.031M16.219 5.906V4.031M19.969 5.906V3.094M5.906 19.969H3.094M5.906 16.219H4.031M5.906 12.469H4.031M5.906 8.719H3.094" vector-effect="non-scaling-stroke"/></g><defs><clipPath id="a"><path d="M0 0h24v24H0z"/></clipPath></defs></svg>