<svg viewBox="0 0 24 24" fill="none" xmlns="http://www.w3.org/2000/svg"><g clip-path="url(#a)" stroke="currentColor" stroke-width="1.5" stroke-linecap="round" stroke-linejoin="round"><path d="M17.86 2.86c-.995.995-2.85.9-4.454-.703L12 3.563l7.5 7.5 3.281-3.282zM11.943 10.069 8.387 6.514a3.75 3.75 0 0 0-4.961-4.962l2.012 2.01v1.876H3.563L1.55 3.427a3.75 3.75 0 0 0 4.96 4.962l3.557 3.555M12.057 13.933l3.556 3.556a3.75 3.75 0 0 0 4.961 4.962l-2.012-2.014v-1.875h1.875l2.012 2.013a3.75 3.75 0 0 0-4.96-4.962l-3.557-3.556" vector-effect="non-scaling-stroke"/><path d="M15.224 6.788 1.63 20.38a1.407 1.407 0 0 0 1.99 1.99L17.213 8.777" vector-effect="non-scaling-stroke"/></g><defs><clipPath id="a"><path d="M0 0h24v24H0z"/></clipPath></defs></svg>