<svg viewBox="0 0 24 24" fill="none" xmlns="http://www.w3.org/2000/svg"><g clip-path="url(#a)" stroke="currentColor" stroke-width="1.5"><path d="M21.844 8.25H2.156a.94.94 0 0 0-.937.938v11.25c0 .517.42.937.937.937h19.688c.517 0 .937-.42.937-.937V9.188a.937.937 0 0 0-.937-.938M19.031 22.781v-1.406M4.969 22.781v-1.404M7.781 11.063v7.5M11.531 11.063v7.5M15.281 11.063v7.5M19.031 11.063v7.5M13.185 1.219c-.879 2.181.938 2.812 0 5.141M16.935 1.219c-.878 2.181.938 2.812 0 5.141M9.435 1.219c-.878 2.181.938 2.812 0 5.141" vector-effect="non-scaling-stroke" stroke-linecap="round" stroke-linejoin="round"/><path d="M3.563 11.766a.234.234 0 1 1 0-.47M3.563 11.766a.234.234 0 1 0 0-.47M3.563 14.578a.234.234 0 1 1 0-.469M3.563 14.578a.234.234 0 1 0 0-.469" vector-effect="non-scaling-stroke"/></g><defs><clipPath id="a"><path d="M0 0h24v24H0z"/></clipPath></defs></svg>