<svg viewBox="0 0 24 24" fill="none" xmlns="http://www.w3.org/2000/svg"><g clip-path="url(#a)" stroke="currentColor" stroke-width="1.5" stroke-linecap="round" stroke-linejoin="round"><path d="M16.55 4.969h2.481l3.75 11.25H1.22l3.75-11.25h2.5M22.781 16.219v4.218a1.406 1.406 0 0 1-1.406 1.407H2.625a1.406 1.406 0 0 1-1.406-1.407V16.22M3.718 8.719h16.563" vector-effect="non-scaling-stroke"/><path d="M16.95 6.227a.468.468 0 0 1-.444.617H7.5a.47.47 0 0 1-.445-.617L7.78 4.03h8.1a.47.47 0 0 1 .445.32z" vector-effect="non-scaling-stroke"/><path d="M4.969 4.969V2.625a1.406 1.406 0 0 1 1.406-1.406h11.25a1.406 1.406 0 0 1 1.406 1.406v2.344M4.031 21.844v.937M19.969 21.844v.937" vector-effect="non-scaling-stroke"/></g><defs><clipPath id="a"><path d="M0 0h24v24H0z"/></clipPath></defs></svg>