<svg viewBox="0 0 24 24" fill="none" xmlns="http://www.w3.org/2000/svg"><g clip-path="url(#a)" stroke="currentColor" stroke-width="1.5" stroke-linecap="round" stroke-linejoin="round"><path d="M11.702 8.321a.469.469 0 0 1 .562.704 3.766 3.766 0 0 0 .52 5.007 4.3 4.3 0 0 0 1.126-1.925.468.468 0 0 1 .698-.266 6.07 6.07 0 0 1 2.764 5.106 5.834 5.834 0 0 1-11.668 0 9.51 9.51 0 0 1 5.998-8.626" vector-effect="non-scaling-stroke"/><path d="M1.219 11.063 12 1.219l10.781 9.844" vector-effect="non-scaling-stroke"/></g><defs><clipPath id="a"><path d="M0 0h24v24H0z"/></clipPath></defs></svg>