<svg viewBox="0 0 24 24" fill="none" xmlns="http://www.w3.org/2000/svg"><path d="M12 6V2M7.757 7.757 4.93 4.93M6 12H2M7.757 16.243 4.93 19.07M12 18v4M16.243 16.243l2.828 2.828M18 12h4M16.243 7.757 19.07 4.93M6 12a6 6 0 1 0 12 0 6 6 0 0 0-12 0" stroke="currentColor" vector-effect="non-scaling-stroke" stroke-width="1.5" stroke-linecap="round" stroke-linejoin="round"/><path d="M15.333 14.667A6.002 6.002 0 0 1 9.764 6.43a6 6 0 1 0 7.805 7.805 6 6 0 0 1-2.236.43" stroke="currentColor" vector-effect="non-scaling-stroke" stroke-width="1.5" stroke-linecap="round" stroke-linejoin="round"/></svg>