<svg viewBox="0 0 24 24" fill="none" xmlns="http://www.w3.org/2000/svg"><g clip-path="url(#a)" stroke="currentColor" stroke-width="1.5" stroke-linecap="round" stroke-linejoin="round"><path d="M18.563 11.531a4.21 4.21 0 0 1 4.218 4.219c0 1.875-2.737 5.512-3.75 6.853a.55.55 0 0 1-.412.197.52.52 0 0 1-.413-.197c-1.06-1.34-3.75-4.978-3.75-6.853a4.21 4.21 0 0 1 4.107-4.219" vector-effect="non-scaling-stroke"/><path d="M16.922 15.75a1.64 1.64 0 1 0 3.281 0 1.64 1.64 0 0 0-3.281 0M7.781 5.803v15M14.344 10.594V1.219M12.44 17.625l-4.387 3.084a.45.45 0 0 1-.544 0l-6.093-4.35a.48.48 0 0 1-.197-.384V1.688a.45.45 0 0 1 .253-.413.46.46 0 0 1 .487 0l5.822 4.528 6.29-4.5a.48.48 0 0 1 .545 0l6.093 4.36a.46.46 0 0 1 .197.374v4.088" vector-effect="non-scaling-stroke"/></g><defs><clipPath id="a"><path d="M0 0h24v24H0z"/></clipPath></defs></svg>