<svg viewBox="0 0 24 24" fill="none" xmlns="http://www.w3.org/2000/svg"><g clip-path="url(#a)" stroke="currentColor" stroke-width="1.5" stroke-linecap="round" stroke-linejoin="round"><path d="M7.781 5.803v15M14.344 10.594V1.219M10.594 18.9l-2.54 1.81a.45.45 0 0 1-.545 0l-6.093-4.35a.48.48 0 0 1-.197-.385V1.688a.45.45 0 0 1 .253-.413.46.46 0 0 1 .487 0l5.822 4.528 6.29-4.5a.48.48 0 0 1 .545 0l6.093 4.36a.46.46 0 0 1 .197.374v5.494" vector-effect="non-scaling-stroke"/><path d="M20.906 16.688a4.22 4.22 0 1 1-8.438 0 4.22 4.22 0 0 1 8.438 0M19.669 19.669l3.112 3.112" vector-effect="non-scaling-stroke"/></g><defs><clipPath id="a"><path d="M0 0h24v24H0z"/></clipPath></defs></svg>