<svg viewBox="0 0 24 24" fill="none" xmlns="http://www.w3.org/2000/svg"><g clip-path="url(#a)" stroke="currentColor" stroke-width="1.5" stroke-linecap="round" stroke-linejoin="round"><path d="M12.084 1.219a4.69 4.69 0 0 1 4.772 4.847c0 2.4-3.29 7.5-4.406 9.018a.442.442 0 0 1-.731 0c-1.116-1.528-4.406-6.618-4.406-9.018a4.69 4.69 0 0 1 4.771-4.847" vector-effect="non-scaling-stroke"/><path d="M13.875 5.99a1.79 1.79 0 1 1-1.79-1.79 1.8 1.8 0 0 1 1.79 1.79" vector-effect="non-scaling-stroke"/><path d="M18.563 4.969h1.603a.937.937 0 0 1 .937.843l1.669 15.938a.937.937 0 0 1-.928 1.031H2.156a.94.94 0 0 1-.887-.645.9.9 0 0 1-.04-.386L2.896 5.813a.937.937 0 0 1 .937-.844h1.604M1.706 17.156h20.588M17.625 10.594H21.6M2.4 10.594h3.975M7.313 22.781l.637-9.843M16.856 22.781l-.637-9.843" vector-effect="non-scaling-stroke"/></g><defs><clipPath id="a"><path d="M0 0h24v24H0z"/></clipPath></defs></svg>