<svg viewBox="0 0 24 24" fill="none" xmlns="http://www.w3.org/2000/svg"><path d="M20.725 15.798v2.297a3.215 3.215 0 0 1-3.215 3.215H3.272a1.84 1.84 0 0 1-1.838-1.837V7.53a1.837 1.837 0 0 1 1.838-1.837H17.51a3.216 3.216 0 0 1 3.215 3.215v2.296" stroke="currentColor" vector-effect="non-scaling-stroke" stroke-width="1.5" stroke-linecap="round" stroke-linejoin="round"/><path d="m17.863 5.712-.582-2.326a.92.92 0 0 0-1.13-.664L5.11 5.694M4.194 8.45H6.03M7.868 8.45h1.837M11.543 8.45h1.837M15.217 8.45h1.837M4.194 18.554H6.03M7.868 18.554h1.837M11.543 18.554h1.837M15.217 18.554h1.837M20.728 11.205h-3.674a1.837 1.837 0 0 0-1.837 1.837v.919c0 1.015.822 1.837 1.837 1.837h3.674a1.837 1.837 0 0 0 1.838-1.837v-.919a1.837 1.837 0 0 0-1.838-1.837" stroke="currentColor" vector-effect="non-scaling-stroke" stroke-width="1.5" stroke-linecap="round" stroke-linejoin="round"/><path d="M17.97 13.731a.23.23 0 1 1 0-.459M17.97 13.731a.23.23 0 1 0 0-.459" stroke="currentColor" vector-effect="non-scaling-stroke" stroke-width="1.5"/></svg>