<svg viewBox="0 0 24 24" fill="none" xmlns="http://www.w3.org/2000/svg"><g clip-path="url(#a)" stroke="currentColor" stroke-width="1.5" stroke-linecap="round" stroke-linejoin="round"><path d="m7.781 22.781.469-5.625h2.344v-3.281a4.688 4.688 0 0 0-9.375 0v3.281h2.343l.47 5.625zM2.625 4.5a3.281 3.281 0 1 0 6.562 0 3.281 3.281 0 0 0-6.562 0M17.1 10.472a4.69 4.69 0 0 0-5.214-.844M11.063 4.969a2.812 2.812 0 1 0 5.624 0 2.812 2.812 0 0 0-5.625 0M14.344 15.281h7.5s.937 0 .937.938v5.625s0 .937-.937.937h-7.5s-.938 0-.938-.937v-5.625s0-.938.938-.938M13.406 18.094h9.375M20.906 20.906h-1.875" vector-effect="non-scaling-stroke"/></g><defs><clipPath id="a"><path d="M0 0h24v24H0z"/></clipPath></defs></svg>