<svg viewBox="0 0 24 24" fill="none" xmlns="http://www.w3.org/2000/svg"><path d="M20.906 22.781V4.031a2.813 2.813 0 0 0-2.812-2.812H5.906A2.813 2.813 0 0 0 3.094 4.03v18.75" stroke="currentColor" vector-effect="non-scaling-stroke" stroke-width="1.5" stroke-linecap="round" stroke-linejoin="round"/><path d="M4.969 4.5a1.406 1.406 0 1 0 2.812 0 1.406 1.406 0 0 0-2.812 0M9.656 4.5a1.406 1.406 0 1 0 2.813 0 1.406 1.406 0 0 0-2.813 0" stroke="currentColor" vector-effect="non-scaling-stroke" stroke-width="1.5" stroke-linecap="round" stroke-linejoin="round"/><path d="M5.906 1.219h8.438v3.75A2.813 2.813 0 0 1 11.53 7.78H3.094v-3.75A2.813 2.813 0 0 1 5.906 1.22" stroke="currentColor" vector-effect="non-scaling-stroke" stroke-width="1.5" stroke-linecap="round" stroke-linejoin="round"/></svg>