<svg viewBox="0 0 24 24" fill="none" xmlns="http://www.w3.org/2000/svg"><g clip-path="url(#a)" stroke="currentColor" stroke-width="1.5" stroke-linecap="round" stroke-linejoin="round"><path d="m6.89 9.816 7.294 7.293a4.1 4.1 0 0 0 .835-4.172l5.625-5.624c.684.684 1.369.628 1.819.168a1.173 1.173 0 0 0 0-1.66L18.13 1.567a1.17 1.17 0 0 0-1.66 0 1.19 1.19 0 0 0 .216 1.818L11.063 9.01a4.12 4.12 0 0 0-4.171.807M10.538 13.463l-9.32 9.318" vector-effect="non-scaling-stroke"/></g><defs><clipPath id="a"><path d="M0 0h24v24H0z"/></clipPath></defs></svg>