<svg viewBox="0 0 24 24" fill="none" xmlns="http://www.w3.org/2000/svg"><g clip-path="url(#a)" stroke="currentColor" stroke-width="1.5" stroke-linecap="round" stroke-linejoin="round"><path d="M7.781 19.03h8.438M7.781 16.218h8.438M5.906 16.219H3.094a1.88 1.88 0 0 1-1.875-1.875V8.719a1.88 1.88 0 0 1 1.875-1.875h17.812a1.88 1.88 0 0 1 1.875 1.875v5.625a1.88 1.88 0 0 1-1.875 1.875h-2.812M5.906 4.969v-3.75h8.987c.249 0 .487.099.663.274l2.263 2.264a.94.94 0 0 1 .275.662v.55" vector-effect="non-scaling-stroke"/><path d="M18.094 21.844a.94.94 0 0 1-.938.937H6.844a.937.937 0 0 1-.938-.937v-8.438h12.188zM3.094 9.655a.937.937 0 1 0 1.875 0 .937.937 0 0 0-1.875 0M14.344 1.218v3.75h3.75" vector-effect="non-scaling-stroke"/></g><defs><clipPath id="a"><path d="M0 0h24v24H0z"/></clipPath></defs></svg>