<svg viewBox="0 0 24 24" fill="none" xmlns="http://www.w3.org/2000/svg"><path d="M10.125 13.64V5.495S8.306 2.68 2.278 2.39a.937.937 0 0 0-1.06.937v11.869a.94.94 0 0 0 .938.937c6.094.263 7.969 3.132 7.969 3.132v-2.344M10.125 5.494s1.819-2.813 7.847-3.103a.938.938 0 0 1 1.06.937v7.031M11.063 15.488l5.268-3.966a.94.94 0 0 1 1.181 0l5.27 3.966M20.906 16.453v4.688a.47.47 0 0 1-.468.468h-7.032a.47.47 0 0 1-.469-.468v-4.688" stroke="currentColor" vector-effect="non-scaling-stroke" stroke-width="1.5" stroke-linecap="round" stroke-linejoin="round"/><path d="M15.281 21.581v-3.75a.47.47 0 0 1 .469-.468h2.344a.47.47 0 0 1 .468.468v3.75" stroke="currentColor" vector-effect="non-scaling-stroke" stroke-width="1.5" stroke-linecap="round" stroke-linejoin="round"/></svg>