<svg viewBox="0 0 24 24" fill="none" xmlns="http://www.w3.org/2000/svg"><g clip-path="url(#a)" stroke="currentColor" stroke-width="1.5" stroke-linecap="round" stroke-linejoin="round"><path d="M9.656 17.156v5.157a.47.47 0 0 0 .469.468H19.5a.47.47 0 0 0 .469-.468v-5.157M6.844 16.688l7.306-7.306a.937.937 0 0 1 1.325 0l7.306 7.306" vector-effect="non-scaling-stroke"/><path d="M13.875 13.406h1.875s.469 0 .469.469v1.875s0 .469-.469.469h-1.875s-.469 0-.469-.469v-1.875s0-.469.469-.469M3.094 22.781V5.906M1.219 20.906l1.875 1.875 1.875-1.875M4.969 7.781 3.094 5.906 1.219 7.781M5.906 3.094h16.875M7.781 1.219 5.906 3.094l1.875 1.875M20.906 4.969l1.875-1.875-1.875-1.875" vector-effect="non-scaling-stroke"/></g><defs><clipPath id="a"><path d="M0 0h24v24H0z"/></clipPath></defs></svg>