<svg viewBox="0 0 24 24" fill="none" xmlns="http://www.w3.org/2000/svg"><g clip-path="url(#a)" stroke="currentColor" stroke-width="1.5" stroke-linecap="round" stroke-linejoin="round"><path d="M3.094 17.325v5.456h6.562v-5.456" vector-effect="non-scaling-stroke"/><path d="m1.219 19.031 4.528-4.115a.937.937 0 0 1 1.256 0l4.528 4.115M5.906 12.469H1.22V7.78M12.469 1.219l-11.25 11.25M22.781 22.781H9.656M10.594 14.813V8.718a.47.47 0 0 1 .469-.469h3.75a.47.47 0 0 1 .468.469V22.78M18.094 22.781V2.625a.47.47 0 0 1 .468-.469h3.75a.47.47 0 0 1 .47.469v20.156" vector-effect="non-scaling-stroke"/></g><defs><clipPath id="a"><path d="M0 0h24v24H0z"/></clipPath></defs></svg>