<svg viewBox="0 0 24 24" fill="none" xmlns="http://www.w3.org/2000/svg"><g clip-path="url(#a)" stroke="currentColor" stroke-width="1.5" stroke-linecap="round" stroke-linejoin="round"><path d="M2.156 1.219h16.875s.938 0 .938.937v16.875s0 .938-.938.938H2.156s-.937 0-.937-.938V2.156s0-.937.937-.937" vector-effect="non-scaling-stroke"/><path d="M4.031 21.844a.94.94 0 0 0 .938.937h16.875a.94.94 0 0 0 .937-.937V4.969a.937.937 0 0 0-.937-.938" vector-effect="non-scaling-stroke"/><path d="M15.281 15.75a.47.47 0 0 1-.469.469H9.657V5.259a.47.47 0 0 1 .679-.42l4.688 2.344a.47.47 0 0 1 .258.42zM14.344 6.844V4.5M9.656 8.719h1.875M4.969 10.594h1.875M4.969 12.469h1.875M9.656 10.594h3.281M9.656 8.719H5.437a.47.47 0 0 0-.468.469v6.562a.47.47 0 0 0 .468.469h4.22" vector-effect="non-scaling-stroke"/><path d="M11.531 16.219v-1.407a.47.47 0 0 1 .469-.468h.938a.47.47 0 0 1 .468.469v1.406" vector-effect="non-scaling-stroke"/></g><defs><clipPath id="a"><path d="M0 0h24v24H0z"/></clipPath></defs></svg>