<svg viewBox="0 0 24 24" fill="none" xmlns="http://www.w3.org/2000/svg"><path d="M3.6 8.895h16.8s2.1 0 2.1 2.1v7.35s0 2.1-2.1 2.1H3.6s-2.1 0-2.1-2.1v-7.35s0-2.1 2.1-2.1M6.225 8.895l5.034-5.033a1.05 1.05 0 0 1 1.484 0l5.032 5.033M18.301 17.295v-5.25M17.251 12.045h2.1M4.651 17.295v-5.25" stroke="currentColor" vector-effect="non-scaling-stroke" stroke-width="1.5" stroke-linecap="round" stroke-linejoin="round"/><path d="M4.65 12.045h.788a1.313 1.313 0 0 1 0 2.625H4.65M6.751 17.295 5.176 14.67M13.051 17.295v-5.25l2.1 5.25v-5.25M10.95 17.295H9.9c-.58 0-1.05-.47-1.05-1.05v-3.15c0-.58.47-1.05 1.05-1.05h1.05M8.851 15.195h2.1" stroke="currentColor" vector-effect="non-scaling-stroke" stroke-width="1.5" stroke-linecap="round" stroke-linejoin="round"/></svg>