<svg viewBox="0 0 24 24" fill="none" xmlns="http://www.w3.org/2000/svg"><path d="M3.6 8.895h16.8s2.1 0 2.1 2.1v7.35s0 2.1-2.1 2.1H3.6s-2.1 0-2.1-2.1v-7.35s0-2.1 2.1-2.1M6.225 8.895l5.034-5.033a1.05 1.05 0 0 1 1.484 0l5.032 5.033" stroke="currentColor" vector-effect="non-scaling-stroke" stroke-width="1.5" stroke-linecap="round" stroke-linejoin="round"/><path d="M13.05 12.045v4.2c0 .58.47 1.05 1.05 1.05h1.05M6.75 12.045H5.7c-.58 0-1.05.47-1.05 1.05 0 1.575 2.1 1.575 2.1 3.15 0 .58-.47 1.05-1.05 1.05H4.65M8.85 17.295v-4.2a1.05 1.05 0 0 1 2.1 0v4.2M8.851 15.195h2.1M19.35 17.295H18.3c-.58 0-1.05-.47-1.05-1.05v-3.15c0-.58.47-1.05 1.05-1.05h1.05M17.251 15.195h2.1" stroke="currentColor" vector-effect="non-scaling-stroke" stroke-width="1.5" stroke-linecap="round" stroke-linejoin="round"/></svg>