<svg viewBox="0 0 24 24" fill="none" xmlns="http://www.w3.org/2000/svg"><path d="m17.156 19.453-3.712.74M13.875 16.022l-1.734.712a1.1 1.1 0 0 1-.863 0 1.116 1.116 0 0 1-.066-2.034l1.726-.825a1.5 1.5 0 0 1 .693-.169q.274.006.535.094l3.168 1.219" stroke="currentColor" vector-effect="non-scaling-stroke" stroke-width="1.5" stroke-linecap="round" stroke-linejoin="round"/><path d="M6.844 20.24h1.312l2.185 1.66a.64.64 0 0 0 .88.075l3.282-2.634a.647.647 0 0 0 .094-.891l-1.8-1.988M11.063 14.813l-.226-.188a1.4 1.4 0 0 0-1.321-.169l-2.672 1.097" stroke="currentColor" vector-effect="non-scaling-stroke" stroke-width="1.5" stroke-linecap="round" stroke-linejoin="round"/><path d="M4.031 20.71a.47.47 0 0 0 .469.468h1.406a.937.937 0 0 0 .938-.937v-4.688a.937.937 0 0 0-.938-.937H4.5a.47.47 0 0 0-.469.468zM19.969 20.71a.47.47 0 0 1-.469.468h-1.406a.937.937 0 0 1-.938-.937v-4.688a.94.94 0 0 1 .938-.937H19.5a.47.47 0 0 1 .469.468zM1.219 12.272 11.334 2.156a.936.936 0 0 1 1.332 0L22.78 12.272M15.75 2.428h2.813a.47.47 0 0 1 .468.469v2.812" stroke="currentColor" vector-effect="non-scaling-stroke" stroke-width="1.5" stroke-linecap="round" stroke-linejoin="round"/></svg>