<svg viewBox="0 0 24 24" fill="none" xmlns="http://www.w3.org/2000/svg"><path d="M4.031 12.773v8.907a.47.47 0 0 0 .469.468h15a.47.47 0 0 0 .469-.468v-8.438M1.219 12.305l10.219-10.22a.79.79 0 0 1 1.119 0l10.219 10.22" stroke="currentColor" vector-effect="non-scaling-stroke" stroke-width="1.5" stroke-linecap="round" stroke-linejoin="round"/><path d="M13.406 20.273V15.27a3.28 3.28 0 0 0 1.72-3.965L14 12.42a1.172 1.172 0 0 1-1.651-1.664l1.299-1.287a3.281 3.281 0 1 0-3.055 5.801v5.003" stroke="currentColor" vector-effect="non-scaling-stroke" stroke-width="1.5" stroke-linecap="round" stroke-linejoin="round"/></svg>