<svg viewBox="0 0 24 24" fill="none" xmlns="http://www.w3.org/2000/svg"><g clip-path="url(#a)" stroke="currentColor" stroke-width="1.5" stroke-linecap="round" stroke-linejoin="round"><path d="M8.719 7.781v5.157a.47.47 0 0 0 .469.468h9.375a.47.47 0 0 0 .468-.469V7.782M6.375 7.163l7.19-5.832a.48.48 0 0 1 .62 0l7.19 5.832M1.688 14.344H4.5s.469 0 .469.469v6.562s0 .469-.469.469H1.688s-.47 0-.47-.469v-6.562s0-.47.47-.47M4.969 20.494c4.219 1.406 6.019 2.287 7.594 2.287 2.25 0 3.75-1.415 10.218-4.631a2.6 2.6 0 0 0-2.812-.937l-4.05 1.284" vector-effect="non-scaling-stroke"/><path d="M4.969 15.281H7.78c2.203 0 3.75 1.875 4.219 1.875h3.281c.938 0 .938 1.875 0 1.875h-5.156" vector-effect="non-scaling-stroke"/></g><defs><clipPath id="a"><path d="M0 0h24v24H0z"/></clipPath></defs></svg>