<svg viewBox="0 0 24 24" fill="none" xmlns="http://www.w3.org/2000/svg"><g clip-path="url(#a)" stroke="currentColor" stroke-width="1.5" stroke-linecap="round" stroke-linejoin="round"><path d="M4.031 8.4v6.413M1.219 11.063l10.144-9.6a.937.937 0 0 1 1.265 0l10.153 9.6" vector-effect="non-scaling-stroke"/><path d="M11.063 5.906h1.874s.47 0 .47.469V8.25s0 .469-.47.469h-1.874s-.47 0-.47-.469V6.375s0-.469.47-.469M19.969 8.4v6.413M8.25 22.781v-4.218a1.406 1.406 0 0 1 2.813 0v4.218M8.25 19.969h2.813M20.438 22.781h-1.875a.937.937 0 0 1-.938-.937v-3.75a.94.94 0 0 1 .938-.938h1.875M17.625 19.969H19.5M12.938 17.156v4.688a.94.94 0 0 0 .937.937h1.875M6.375 17.156H4.781a1.22 1.22 0 0 0-1.075 1.798c.095.178.233.33.4.443l1.725 1.144a1.228 1.228 0 0 1 .187 1.883 1.22 1.22 0 0 1-.862.357H3.563" vector-effect="non-scaling-stroke"/></g><defs><clipPath id="a"><path d="M0 0h24v24H0z"/></clipPath></defs></svg>