<svg viewBox="0 0 24 24" fill="none" xmlns="http://www.w3.org/2000/svg"><path d="M19.031 1.219H6.844A2.344 2.344 0 0 0 4.5 3.562V19.16a4.43 4.43 0 0 1-1.773 3.545l-.102.077h12.188l.102-.077a4.43 4.43 0 0 0 1.773-3.545V3.697a2.437 2.437 0 0 1 2.101-2.466 2.344 2.344 0 0 1 2.586 2.331v3.282a.94.94 0 0 1-.937.937h-3.75M6.844 4.969h2.343M8.719 7.781h5.156M6.844 10.594h7.031M6.844 13.406h7.031M6.844 16.219h4.219M6.844 16.219h7.031M6.844 19.031h4.219" stroke="currentColor" vector-effect="non-scaling-stroke" stroke-width="1.5" stroke-linecap="round" stroke-linejoin="round"/></svg>