<svg viewBox="0 0 24 24" fill="none" xmlns="http://www.w3.org/2000/svg"><path d="M8.666 12.803c-.381 1.598.13 2.988 2.813 2.363 2.11 1.773 3.156.932 3.58-.834.383-1.604-.63-4.641-2.172-6.144a.468.468 0 0 0-.737.107c-1.067 1.91-3.042 2.666-3.484 4.508" stroke="currentColor" vector-effect="non-scaling-stroke" stroke-width="1.5" stroke-linecap="round" stroke-linejoin="round"/><path d="M11.531 17.156c-.161-2.068-.132-4.728.817-6.234M18.072 6.844A7.969 7.969 0 0 0 4.032 12v2.344" stroke="currentColor" vector-effect="non-scaling-stroke" stroke-width="1.5" stroke-linecap="round" stroke-linejoin="round"/><path d="m6.844 10.594-2.813 3.75-2.812-3.75M5.928 17.16A7.968 7.968 0 0 0 19.968 12V9.656" stroke="currentColor" vector-effect="non-scaling-stroke" stroke-width="1.5" stroke-linecap="round" stroke-linejoin="round"/><path d="m17.156 13.406 2.813-3.75 2.812 3.75" stroke="currentColor" vector-effect="non-scaling-stroke" stroke-width="1.5" stroke-linecap="round" stroke-linejoin="round"/></svg>