<svg viewBox="0 0 24 24" fill="none" xmlns="http://www.w3.org/2000/svg"><path d="M8.719 1.219h6.562s1.875 0 1.875 1.875v17.812s0 1.875-1.875 1.875H8.72s-1.875 0-1.875-1.875V3.094s0-1.875 1.875-1.875" stroke="currentColor" vector-effect="non-scaling-stroke" stroke-width="1.5" stroke-linecap="round" stroke-linejoin="round"/><path d="M9.656 12a2.344 2.344 0 1 0 4.688 0 2.344 2.344 0 0 0-4.688 0M9.656 18.563a2.344 2.344 0 1 0 4.688 0 2.344 2.344 0 0 0-4.688 0M9.656 5.438a2.344 2.344 0 1 0 4.688 0 2.344 2.344 0 0 0-4.688 0M6.844 3.094H3.288a.469.469 0 0 0-.331.8l3.887 3.887M6.844 9.656H3.288a.469.469 0 0 0-.331.8l3.887 3.888M6.844 16.219H3.288a.468.468 0 0 0-.331.8l3.887 3.887M17.156 3.094h3.556a.469.469 0 0 1 .331.8l-3.887 3.887M17.156 9.656h3.556a.469.469 0 0 1 .331.8l-3.887 3.888M17.156 16.219h3.556a.468.468 0 0 1 .331.8l-3.887 3.887" stroke="currentColor" vector-effect="non-scaling-stroke" stroke-width="1.5" stroke-linecap="round" stroke-linejoin="round"/></svg>