<svg viewBox="0 0 24 24" fill="none" xmlns="http://www.w3.org/2000/svg"><path d="M7.773 15.263a10.044 10.044 0 0 0 13.494.617.92.92 0 0 0 .062-1.36L8.393 1.7a.92.92 0 0 0-1.36.074 10.04 10.04 0 0 0 .74 13.489M16.626 6.408l-1.734 1.734M16.087 5.11c0 1.414 1.532 2.298 2.757 1.59.568-.328.918-.934.918-1.59 0-1.415-1.53-2.3-2.756-1.592a1.84 1.84 0 0 0-.919 1.591" stroke="currentColor" vector-effect="non-scaling-stroke" stroke-width="1.5" stroke-linecap="round" stroke-linejoin="round"/><path d="m7.702 15.191-5.077 5.853a.919.919 0 0 0 .692 1.522h8.82a.919.919 0 0 0 .69-1.524zM18.384 6.889v4.713M16.145 4.65H11.37" stroke="currentColor" vector-effect="non-scaling-stroke" stroke-width="1.5" stroke-linecap="round" stroke-linejoin="round"/></svg>