<svg xmlns="http://www.w3.org/2000/svg" viewBox="-0.75 -0.75 24 24"><desc>Seo Search Streamline Icon: https://streamlinehq.com</desc><path d="M12.188 6.788H.938a.47.47 0 0 1-.47-.47V3.507a.47.47 0 0 1 .47-.468h11.25M14.081 4.631a2.981 2.981 0 1 0 5.963 0 2.981 2.981 0 1 0-5.963 0M19.17 6.74l2.861 2.86M.469 15.225a.938.938 0 1 0 1.875 0 .938.938 0 1 0-1.875 0M.469 19.912a.938.938 0 1 0 1.875 0 .938.938 0 1 0-1.875 0M4.219 15.225H14.53M.469 10.538a.938.938 0 1 0 1.875 0 .938.938 0 1 0-1.875 0M4.219 10.538H14.53M4.219 19.912H14.53" fill="none" stroke="currentColor" vector-effect="non-scaling-stroke" stroke-linecap="round" stroke-linejoin="round" stroke-width="1.5"/></svg>