<svg viewBox="0 0 24 24" fill="none" xmlns="http://www.w3.org/2000/svg"><path d="M9.642 4.354a2.353 2.353 0 1 0 4.706 0 2.353 2.353 0 0 0-4.706 0M14.346 4.354h7.674M2.02 4.354h7.617M4.936 12a2.353 2.353 0 1 0 4.706.001 2.353 2.353 0 0 0-4.706 0M9.637 12H22.02M2.02 12H4.93M12.309 19.648a2.353 2.353 0 1 0 4.705 0 2.353 2.353 0 0 0-4.705 0M17.01 19.648h5.01M2.02 19.648h10.289" stroke="currentColor" vector-effect="non-scaling-stroke" stroke-width="1.5" stroke-linecap="round" stroke-linejoin="round"/></svg>