<svg xmlns="http://www.w3.org/2000/svg" fill="none" viewBox="-0.75 -0.75 24 24"><desc>Single Neutral Id Card 3 Streamline Icon: https://streamlinehq.com</desc><path stroke="currentColor" vector-effect="non-scaling-stroke" stroke-linecap="round" stroke-linejoin="round" d="M7.388 16.406a2.578 2.578 0 1 0 0-5.156 2.578 2.578 0 0 0 0 5.156M11.573 21.094a4.21 4.21 0 0 0-8.371 0M.469 8.906H22.03" stroke-width="1.5"/><path stroke="currentColor" vector-effect="non-scaling-stroke" stroke-linecap="round" stroke-linejoin="round" d="M13.594 5.156h7.5a.94.94 0 0 1 .937.938v14.062a.94.94 0 0 1-.937.938H1.406a.94.94 0 0 1-.937-.938V6.094a.94.94 0 0 1 .937-.938h7.5" stroke-width="1.5"/><path stroke="currentColor" vector-effect="non-scaling-stroke" d="M11.25 3.75a.234.234 0 1 1 0-.469M11.25 3.75a.234.234 0 1 0 0-.469" stroke-width="1.5"/><path stroke="currentColor" vector-effect="non-scaling-stroke" stroke-linecap="round" stroke-linejoin="round" d="M14.063 13.594h5.624M14.063 16.406h3.28M13.594 6.563a.47.47 0 0 1-.469.468h-3.75a.47.47 0 0 1-.469-.468V3.75a2.344 2.344 0 0 1 4.688 0z" stroke-width="1.5"/></svg>