<svg viewBox="0 0 24 24" fill="none" xmlns="http://www.w3.org/2000/svg"><g clip-path="url(#a)" stroke="currentColor" stroke-width="1.5" stroke-linecap="round" stroke-linejoin="round"><path d="M1.219 12a10.781 10.781 0 1 0 21.562 0A10.781 10.781 0 0 0 1.22 12" vector-effect="non-scaling-stroke"/><path d="M4.462 19.707a24 24 0 0 1 5.074-2.205c.785-.29.87-2.09.308-2.708-.812-.894-1.5-1.94-1.5-4.468A3.573 3.573 0 0 1 12 6.419a3.573 3.573 0 0 1 3.656 3.907c0 2.53-.688 3.574-1.5 4.468-.562.618-.477 2.418.308 2.708a24 24 0 0 1 5.074 2.205" vector-effect="non-scaling-stroke"/></g><defs><clipPath id="a"><path d="M0 0h24v24H0z"/></clipPath></defs></svg>