<svg viewBox="0 0 24 24" fill="none" xmlns="http://www.w3.org/2000/svg"><g clip-path="url(#a)" stroke="currentColor" stroke-width="1.5" stroke-linecap="round" stroke-linejoin="round"><path d="M10.083 20.813c-5.04-.315-8.864-1.846-8.864-3.69 0-1.353 2.062-2.54 5.148-3.2M17.67 13.933c3.067.661 5.111 1.841 5.111 3.188 0 1.96-4.327 3.57-9.843 3.735" vector-effect="non-scaling-stroke"/><path d="m7.796 17.758 2.287 3.055-3.24 1.92M9.422 3.846a2.578 2.578 0 1 0 5.156 0 2.578 2.578 0 0 0-5.156 0M15.281 10.643a3.281 3.281 0 0 0-6.562 0v2.812h1.484l.39 4.687h2.813l.391-4.687h1.484z" vector-effect="non-scaling-stroke"/></g><defs><clipPath id="a"><path d="M0 0h24v24H0z"/></clipPath></defs></svg>