<svg viewBox="0 0 24 24" fill="none" xmlns="http://www.w3.org/2000/svg"><path d="M8 21.966a.937.937 0 0 1-1.326 0l-4.641-4.641a.937.937 0 0 1 0-1.326l5.966-5.968c.444-.4 1.004-.65 1.6-.712l4.424-.233a.828.828 0 0 1 .887.887l-.233 4.425a2.84 2.84 0 0 1-.713 1.6zM4.023 16.663l3.314 3.314" stroke="currentColor" vector-effect="non-scaling-stroke" stroke-width="1.5" stroke-linecap="round" stroke-linejoin="round"/><path d="M10.193 12.315a1.407 1.407 0 1 0 2.813 0 1.407 1.407 0 0 0-2.813 0" stroke="currentColor" vector-effect="non-scaling-stroke" stroke-width="1.5" stroke-linecap="round" stroke-linejoin="round"/><path d="M11.304 9.232a5.625 5.625 0 1 1 1.336 2.127" stroke="currentColor" vector-effect="non-scaling-stroke" stroke-width="1.5" stroke-linecap="round" stroke-linejoin="round"/></svg>