<svg xmlns="http://www.w3.org/2000/svg" viewBox="-0.75 -0.75 24 24"><desc>Task Checklist Write Streamline Icon: https://streamlinehq.com</desc><path d="M8.906 22.031h-7.5a.94.94 0 0 1-.937-.937V3.28a.94.94 0 0 1 .937-.937h1.875M14.531 2.344h1.875a.94.94 0 0 1 .938.937v6.563M10.781 2.344a1.875 1.875 0 0 0-3.75 0H5.156v2.812h7.5V2.344Z" fill="none" stroke="currentColor" vector-effect="non-scaling-stroke" stroke-linecap="round" stroke-linejoin="round" stroke-width="1.5"/><path d="M15.469 9.844V4.688a.47.47 0 0 0-.469-.47h-2.344M5.156 4.219H2.813a.47.47 0 0 0-.47.468v15a.47.47 0 0 0 .47.47h6.093M5.156 7.968h7.5M5.156 10.78h7.5M5.156 13.593h3.75M14.719 20.906l-3.938 1.125 1.125-3.937 6.73-6.73a1.988 1.988 0 0 1 2.813 2.812ZM17.793 12.206l2.812 2.813M11.906 18.093l2.813 2.812" fill="none" stroke="currentColor" vector-effect="non-scaling-stroke" stroke-linecap="round" stroke-linejoin="round" stroke-width="1.5"/></svg>