<svg xmlns="http://www.w3.org/2000/svg" fill="none" viewBox="-0.75 -0.75 24 24"><desc>Ticket Movie Streamline Icon: https://streamlinehq.com</desc><path stroke="currentColor" vector-effect="non-scaling-stroke" stroke-linecap="round" stroke-linejoin="round" d="M21.563 7.969a.47.47 0 0 0 .468-.469V5.156a1.875 1.875 0 0 0-1.875-1.875H2.344A1.875 1.875 0 0 0 .469 5.156V7.5a.47.47 0 0 0 .469.469 3.281 3.281 0 1 1 0 6.562.47.47 0 0 0-.47.469v2.344a1.875 1.875 0 0 0 1.876 1.875h17.812a1.875 1.875 0 0 0 1.875-1.875V15a.47.47 0 0 0-.468-.469 3.281 3.281 0 1 1 0-6.562" stroke-width="1.5"/><path stroke="currentColor" vector-effect="non-scaling-stroke" stroke-linecap="round" stroke-linejoin="round" d="M10.817 8.148a.469.469 0 0 1 .864 0l.778 1.86h1.51a.47.47 0 0 1 .294.833l-1.396 1.125.674 1.798a.469.469 0 0 1-.71.547l-1.581-1.125-1.58 1.125a.469.469 0 0 1-.712-.546l.674-1.798-1.396-1.125a.468.468 0 0 1 .294-.833h1.501z" stroke-width="1.5"/><path stroke="currentColor" vector-effect="non-scaling-stroke" d="M4.219 5.86a.234.234 0 0 1 0-.47M4.219 5.86a.234.234 0 0 0 0-.47M4.219 17.11a.234.234 0 1 1 0-.47M4.219 17.11a.234.234 0 1 0 0-.47M7.031 5.86a.234.234 0 0 1 0-.47M7.031 5.86a.234.234 0 0 0 0-.47M7.031 17.11a.234.234 0 1 1 0-.47M7.031 17.11a.234.234 0 1 0 0-.47M9.844 5.86a.234.234 0 1 1 0-.47M9.844 5.86a.234.234 0 1 0 0-.47M9.844 17.11a.234.234 0 1 1 0-.47M9.844 17.11a.234.234 0 1 0 0-.47" stroke-width="1.5"/><g stroke="currentColor" stroke-width="1.5"><path vector-effect="non-scaling-stroke" d="M12.656 5.86a.234.234 0 1 1 0-.47M12.656 5.86a.234.234 0 1 0 0-.47"/></g><g stroke="currentColor" stroke-width="1.5"><path vector-effect="non-scaling-stroke" d="M12.656 17.11a.234.234 0 1 1 0-.47M12.656 17.11a.234.234 0 1 0 0-.47"/></g><g stroke="currentColor" stroke-width="1.5"><path vector-effect="non-scaling-stroke" d="M15.469 5.86a.234.234 0 1 1 0-.47M15.469 5.86a.234.234 0 1 0 0-.47"/></g><g stroke="currentColor" stroke-width="1.5"><path vector-effect="non-scaling-stroke" d="M15.469 17.11a.234.234 0 1 1 0-.47M15.469 17.11a.234.234 0 1 0 0-.47"/></g><g stroke="currentColor" stroke-width="1.5"><path vector-effect="non-scaling-stroke" d="M18.281 5.86a.234.234 0 1 1 0-.47M18.281 5.86a.234.234 0 1 0 0-.47"/></g><g stroke="currentColor" stroke-width="1.5"><path vector-effect="non-scaling-stroke" d="M18.281 17.11a.234.234 0 1 1 0-.47M18.281 17.11a.234.234 0 1 0 0-.47"/></g></svg>