<svg viewBox="0 0 24 24" fill="none" xmlns="http://www.w3.org/2000/svg"><path d="M22.781 22.781H1.688a.47.47 0 0 1-.47-.468V1.218m7.973 15a1.406 1.406 0 1 1-2.812 0 1.406 1.406 0 0 1 2.812 0m0 0h4.219m3.203-7.674 3.82-4.881M10.067 7.746l4.33 1.545M1.222 11.795 7.522 8.04m8.512 7.478 4.13-2.34m-6.754 3.04a1.406 1.406 0 1 0 2.813 0 1.406 1.406 0 0 0-2.813 0m-12.187 4.22 5.355-3.501m.738-9.625a1.406 1.406 0 1 0 2.813 0 1.406 1.406 0 0 0-2.813 0m7.032 2.344a1.406 1.406 0 1 0 2.812 0 1.406 1.406 0 0 0-2.812 0m5.624-7.031a1.406 1.406 0 1 0 2.813 0 1.406 1.406 0 0 0-2.812 0m0 9.844a1.406 1.406 0 1 0 2.813 0 1.406 1.406 0 0 0-2.812 0" stroke="#1A8CFF" stroke-linecap="round" stroke-linejoin="round"/></svg>