<svg viewBox="0 0 24 24" fill="none" xmlns="http://www.w3.org/2000/svg"><path d="M13.406 14.132H22.3a.47.47 0 0 1 .47.497 8.437 8.437 0 0 1-8.424 7.94H9.657a8.44 8.44 0 0 1-8.424-7.944.47.47 0 0 1 .469-.497h5.142M16.94 2.753l.843-.844a1.875 1.875 0 0 1 3.121 1.406v10.817m-9.46-10.236-1.703.785m5.908 3.433-.737 1.724m-1.778-3.396L11.802 7.76m5.139-1.866a2.222 2.222 0 1 0-3.142-3.142l-.192.192a.47.47 0 0 0 0 .663l2.479 2.48a.47.47 0 0 0 .663 0zm-3.535 7.3a.937.937 0 0 0-.937-.938H7.78a.937.937 0 0 0-.937.937v5.157a.47.47 0 0 0 .468.468h5.626a.47.47 0 0 0 .468-.468z" stroke="#1A8CFF" stroke-linecap="round" stroke-linejoin="round"/></svg>