<svg viewBox="0 0 24 24" fill="none" xmlns="http://www.w3.org/2000/svg"><path d="M15.281 12.938h7.012a.47.47 0 0 1 .474.489 8.437 8.437 0 0 1-8.423 7.948H9.656a8.437 8.437 0 0 1-8.423-7.948.47.47 0 0 1 .474-.49h4.668l.882.56a4.24 4.24 0 0 0 4.792-.077l1.045-.75a1.406 1.406 0 0 0-1.635-2.29l-1.044.75a1.41 1.41 0 0 1-1.594.026L6.217 9.424a1.406 1.406 0 0 0-2.186 1.17v2.344m-.937-7.97a2.344 2.344 0 1 0 4.687 0 2.344 2.344 0 0 0-4.687 0" stroke="#1A8CFF" stroke-linecap="round" stroke-linejoin="round"/></svg>