<svg viewBox="0 0 24 24" fill="none" xmlns="http://www.w3.org/2000/svg"><path d="M1.219 13.406v9.375M22.78 15.75v7.031m-4.687-9.375v-7.5m1.875 0v1.875M3.094 15.75a2.344 2.344 0 1 0 4.688 0 2.344 2.344 0 0 0-4.688 0m-1.875 2.344H22.78v2.812H1.22zm8.437 0h11.25a2.4 2.4 0 0 0-1.819-2.33l-5.936-1.484a2.812 2.812 0 0 0-3.495 2.73zM20.334 5.906h-4.48a.47.47 0 0 1-.46-.562l.75-3.75a.47.47 0 0 1 .46-.375h2.98a.47.47 0 0 1 .46.375l.75 3.75a.47.47 0 0 1-.46.562" stroke="#1A8CFF" stroke-linecap="round" stroke-linejoin="round"/></svg>