<svg viewBox="0 0 24 24" fill="none" xmlns="http://www.w3.org/2000/svg"><path d="M21.844 18.563a.94.94 0 0 0 .937-.938v-4.687a3.75 3.75 0 0 0-3.75-3.75H4.97a3.75 3.75 0 0 0-3.75 3.75v4.687a.937.937 0 0 0 .937.938m19.688 0H2.156m19.688 0v.937a.94.94 0 0 1-.938.938h-1.875a.94.94 0 0 1-.937-.938v-.937m-15.938 0v.937a.937.937 0 0 0 .938.938h1.875a.94.94 0 0 0 .937-.938v-.937M4.5 9.187 5.184 5.1a1.875 1.875 0 0 1 1.838-1.538h9.956a1.875 1.875 0 0 1 1.875 1.566l.647 4.06m-15 0L3.094 7.311H1.688a.47.47 0 0 0-.47.47v.937a.47.47 0 0 0 .47.468zm15 0 1.406-1.876h1.407a.48.48 0 0 1 .468.47v.937a.48.48 0 0 1-.468.468zM22.66 13h-4.097m0 0-.47 1.875h2.813a2.12 2.12 0 0 0 1.875-1.106M18.563 13H5.438M1.34 13h4.097m0 0 .468 1.875H3.094a2.14 2.14 0 0 1-1.875-1.106" stroke="#1A8CFF" stroke-linecap="round" stroke-linejoin="round"/></svg>