<svg viewBox="0 0 24 24" fill="none" xmlns="http://www.w3.org/2000/svg"><path d="M5.397 10.125h1.201l.34 3.375a.42.42 0 0 0 .796.139l1.735-3.616m1.7.073-.762 3.808m4.248-3.852s-1.29-.338-1.729.396c-.44.733.25 1.2.703 1.479.454.278.953.703.82 1.2-.131.499-.687 1.232-2.156.719m3.457.058 1.762-3.552a.409.409 0 0 1 .774.148l.281 3.346m-2.256-1.07h2.182M3.097 4.031H20.91s1.875 0 1.875 1.875v12.188s0 1.875-1.875 1.875H3.097s-1.875 0-1.875-1.875V5.906s0-1.875 1.875-1.875" stroke="#1A8CFF" stroke-linecap="round" stroke-linejoin="round"/></svg>