<svg viewBox="0 0 24 24" fill="none" xmlns="http://www.w3.org/2000/svg"><path d="M1.219 10.125V9a.94.94 0 0 1 .403-.75l9.844-6.862a.94.94 0 0 1 1.068 0l9.844 6.862a.94.94 0 0 1 .403.769v1.106M3.478 12a4.69 4.69 0 0 0 3.366 1.406 4.7 4.7 0 0 0 1.875-.384m12.787 3.328a3.7 3.7 0 0 1-.534-2.044v-.834a2.879 2.879 0 0 0-5.756 0v.834q0 .475-.103.938m.103-1.294a3.8 3.8 0 0 0 2.878-1.322 3.8 3.8 0 0 0 2.878 1.322m-5.4-.019a2.53 2.53 0 0 0 5.044 0M7.809 17.56a4.8 4.8 0 0 0-1.875-.403 4.687 4.687 0 0 0-4.687 4.688m14.944-4.285a4.8 4.8 0 0 1 1.875-.403 4.687 4.687 0 0 1 4.687 4.688M8.25 22.78a4.219 4.219 0 0 1 7.556 0M12.45 11.344a.63.63 0 0 1-.937 0L8.7 8.53a1.77 1.77 0 0 1-.356-2.11 1.978 1.978 0 0 1 3.075-.477l.534.506.535-.506a1.978 1.978 0 0 1 3.075.478 1.77 1.77 0 0 1-.357 2.11zm-9.356 2.062a2.812 2.812 0 1 0 5.625 0 2.812 2.812 0 0 0-5.625 0m6.797 3.985a2.11 2.11 0 1 0 4.22 0 2.11 2.11 0 0 0-4.22 0" stroke="#1A8CFF" stroke-linecap="round" stroke-linejoin="round"/></svg>