<svg viewBox="0 0 24 24" fill="none" xmlns="http://www.w3.org/2000/svg"><path d="M12 2.156V1.22m0 .937c-5.954 0-10.781 3.987-10.781 8.907 0-.777 1.154-1.407 2.578-1.407s2.578.63 2.578 1.406c0-.776 1.26-1.406 2.813-1.406S12 10.286 12 11.062m0-8.906c5.954 0 10.781 3.987 10.781 8.907 0-.777-1.154-1.407-2.578-1.407s-2.578.63-2.578 1.406c0-.776-1.26-1.406-2.812-1.406-1.554 0-2.813.63-2.813 1.406m0 0v3.75m-8.048-.49a4.67 4.67 0 0 0 5.21 1.047m11.877 3.329a3.7 3.7 0 0 1-.537-2.045v-.836a2.877 2.877 0 1 0-5.754 0v.836c.024.72-.163 1.43-.537 2.045m.537-2.406a3.8 3.8 0 0 0 2.877-1.32 3.81 3.81 0 0 0 2.877 1.32m-5.403-.017a2.54 2.54 0 0 0 5.053 0m-6.045 6.506a2.85 2.85 0 0 0-4.228 0m-1.856-2.983a4.69 4.69 0 0 0-6.12 2.983m14.074-2.983a4.69 4.69 0 0 1 6.12 2.983M3.564 15.75a2.812 2.812 0 1 0 5.624 0 2.812 2.812 0 0 0-5.624 0m6.328 3.516a2.11 2.11 0 1 0 4.22 0 2.11 2.11 0 0 0-4.22 0" stroke="#1A8CFF" stroke-linecap="round" stroke-linejoin="round"/></svg>