<svg viewBox="0 0 24 24" fill="none" xmlns="http://www.w3.org/2000/svg"><path d="M12 12.938v-7.97m0 7.97a1.875 1.875 0 1 1 0 3.75m0-3.75a1.875 1.875 0 1 0 0 3.75m0 2.343v-2.343M6.844 12v7.031m0-7.031a1.875 1.875 0 1 1 0-3.75m0 3.75a1.875 1.875 0 1 0 0-3.75m0-3.281V8.25M17.156 12v7.031m0-7.031a1.875 1.875 0 0 1 0-3.75m0 3.75a1.875 1.875 0 1 0 0-3.75m0-3.281V8.25m-15-7.031h19.688s.937 0 .937.937v19.688s0 .937-.937.937H2.156s-.937 0-.937-.937V2.156s0-.937.937-.937" stroke="#1A8CFF" stroke-linecap="round" stroke-linejoin="round"/></svg>