<svg viewBox="0 0 24 24" fill="none" xmlns="http://www.w3.org/2000/svg"><path d="m17.156 19.453-3.712.74m.431-4.171-1.734.712a1.1 1.1 0 0 1-.863 0 1.116 1.116 0 0 1-.066-2.034l1.726-.825c.214-.112.452-.17.693-.169q.274.007.535.094l3.168 1.219M6.844 20.24h1.312l2.185 1.659a.64.64 0 0 0 .88.075l3.282-2.634a.647.647 0 0 0 .094-.891l-1.8-1.988m-5.953 3.779a.937.937 0 0 1-.938.937H4.5a.47.47 0 0 1-.469-.469v-5.625a.47.47 0 0 1 .469-.468h1.406a.94.94 0 0 1 .938.937m0 4.688v-4.688m4.219-.74-.226-.188a1.4 1.4 0 0 0-1.321-.169l-2.672 1.097m-5.625-3.281L11.334 2.156a.936.936 0 0 1 1.332 0L22.78 12.272M15.75 2.428h2.813a.47.47 0 0 1 .468.469v2.812m.938 15a.47.47 0 0 1-.469.47h-1.406a.937.937 0 0 1-.938-.938v-4.688a.94.94 0 0 1 .938-.937H19.5a.47.47 0 0 1 .469.468z" stroke="#1A8CFF" stroke-linecap="round" stroke-linejoin="round"/></svg>