<svg viewBox="0 0 24 24" fill="none" xmlns="http://www.w3.org/2000/svg"><path d="M19.5 1.448a2.75 2.75 0 0 0-.606 1.574c0 .982.606 1.968.606 2.947a2.74 2.74 0 0 1-.606 1.573m-2.206-6.094a2.75 2.75 0 0 0-.606 1.574c0 .982.605 1.968.605 2.947a2.74 2.74 0 0 1-.605 1.573m6.23-6.094a2.75 2.75 0 0 0-.605 1.574c0 .982.605 1.968.605 2.947a2.74 2.74 0 0 1-.605 1.573m-3.145 4.304v9.76a.937.937 0 0 1-.937.937H6.375a.94.94 0 0 1-.937-.937v-9.76m9.375 10.697v-8.906a.47.47 0 0 0-.47-.469H9.657a.47.47 0 0 0-.469.469v8.906m3.422-6.562v1.875m9.704-3.283L12 7.073l-10.312 7.5" stroke="#1A8CFF" stroke-linecap="round" stroke-linejoin="round"/></svg>