<svg viewBox="0 0 24 24" fill="none" xmlns="http://www.w3.org/2000/svg"><path d="M1.219 22.781H22.78m-20.625 0V16.22m10.313 0v6.562m-6.563 0v-3.75a.94.94 0 0 1 .938-.937h.937a.937.937 0 0 1 .938.937v3.75m10.312-9.433v9.433m-1.406-6.093 1.406 1.406M1.22 17.156l5.762-5.762a.467.467 0 0 1 .663 0l5.762 5.762m9.375-.468a3.54 3.54 0 0 1-3.75 3.28 3.54 3.54 0 0 1-3.75-3.28c0-1.55 2.739-7.981 3.536-9.82a.233.233 0 0 1 .429 0c.797 1.839 3.535 8.27 3.535 9.82M6.83 3.75a1.875 1.875 0 1 1 1.42 3.094H4.031A2.812 2.812 0 1 1 6.83 3.75" stroke="#1A8CFF" stroke-linecap="round" stroke-linejoin="round"/></svg>