<svg viewBox="0 0 24 24" fill="none" xmlns="http://www.w3.org/2000/svg"><path d="M12.323 21.844a4.21 4.21 0 0 0-8.371 0M1.219 9.656H22.78m-8.437-3.75h7.5a.94.94 0 0 1 .937.938v14.062a.94.94 0 0 1-.937.938H2.156a.94.94 0 0 1-.937-.938V6.844a.937.937 0 0 1 .937-.938h7.5m5.156 8.438h5.626m-5.625 2.812h3.28m-9.955 0a2.578 2.578 0 1 0 0-5.156 2.578 2.578 0 0 0 0 5.156m6.206-9.843a.47.47 0 0 1-.469.468h-3.75a.47.47 0 0 1-.469-.468V4.5a2.344 2.344 0 0 1 4.688 0z" stroke="#1A8CFF" stroke-linecap="round" stroke-linejoin="round"/></svg>