<svg viewBox="0 0 24 24" fill="none" xmlns="http://www.w3.org/2000/svg"><path d="m4.734 22.781 7.97-12.656a1.18 1.18 0 0 1 1.874 0l7.969 12.656zm0 0h-3.28l3.28-5.156a1.26 1.26 0 0 1 .938-.469 1.26 1.26 0 0 1 .937.469l.61 1.219m1.692-2.697 2.197 1.859a.94.94 0 0 0 1.268-.054l.602-.602a.94.94 0 0 1 1.325 0l.602.602a.937.937 0 0 0 1.269.054l2.201-1.858m-4.734-6.492V1.22h5.156a.47.47 0 0 1 .469.468v3.75a.47.47 0 0 1-.47.47h-5.155m5.625-2.813h2.343a.47.47 0 0 1 .47.469v3.75a.47.47 0 0 1-.47.468h-2.812a.47.47 0 0 1-.469-.468V5.906" stroke="#1A8CFF" stroke-linecap="round" stroke-linejoin="round"/></svg>