<svg viewBox="0 0 24 24" fill="none" xmlns="http://www.w3.org/2000/svg"><path d="M9.656 22.781a4.354 4.354 0 0 0-8.437 0m13.125 0a4.354 4.354 0 0 1 8.437 0m-7.11-2.163a4.313 4.313 0 0 0-7.341 0m-.549-19.4L6.375 2.626m0-1.406 1.406 1.406m9.375-.469L15.75 3.562m0-1.406 1.406 1.406m4.688 2.344-1.407 1.407m0-1.407 1.407 1.407M3.563 4.5 2.156 5.906m0-1.406 1.406 1.406m11.57 5.183a8.27 8.27 0 0 1 3.98-4.326M9.188 2.625l.369.188a7.06 7.06 0 0 1 3.85 5.437m-7.97-2.812a8.5 8.5 0 0 1 6.322 5.43l.241.663m-8.672 4.922a2.11 2.11 0 1 0 4.219 0 2.11 2.11 0 0 0-4.219 0m13.125 0a2.11 2.11 0 1 0 4.22 0 2.11 2.11 0 0 0-4.22 0m-6.562-.937a2.11 2.11 0 1 0 4.22 0 2.11 2.11 0 0 0-4.22 0" stroke="#1A8CFF" stroke-linecap="round" stroke-linejoin="round"/></svg>