<svg viewBox="0 0 24 24" fill="none" xmlns="http://www.w3.org/2000/svg"><path d="M17.1 10.472a4.69 4.69 0 0 0-5.214-.844m1.52 8.466h9.375m-1.875 2.812h-1.875m-11.25 1.875.469-5.625h2.344v-3.281a4.688 4.688 0 0 0-9.375 0v3.281h2.343l.47 5.625zM2.625 4.5a3.281 3.281 0 1 0 6.562 0 3.281 3.281 0 0 0-6.562 0m8.438.469a2.812 2.812 0 1 0 5.624 0 2.812 2.812 0 0 0-5.625 0m3.28 10.312h7.5s.938 0 .938.938v5.625s0 .937-.937.937h-7.5s-.938 0-.938-.937v-5.625s0-.938.938-.938" stroke="#1A8CFF" stroke-linecap="round" stroke-linejoin="round"/></svg>