<svg viewBox="0 0 24 24" fill="none" xmlns="http://www.w3.org/2000/svg"><path d="M16.688 19.219c3.607.304 6.093.947 6.093 1.687 0 1.032-4.826 1.875-10.781 1.875s-10.781-.843-10.781-1.875c0-.74 2.47-1.38 6.054-1.687M17.86 5.203a2.11 2.11 0 1 0 4.219 0 2.11 2.11 0 0 0-4.219 0m2.11 3.047a2.813 2.813 0 0 0-2.813 2.813v2.343h1.407l.468 4.219h1.875l.469-4.219h1.406v-2.344A2.813 2.813 0 0 0 19.97 8.25M1.922 5.203a2.11 2.11 0 1 0 4.219 0 2.11 2.11 0 0 0-4.22 0m2.11 3.047a2.813 2.813 0 0 0-2.813 2.813v2.343h1.406l.469 4.219h1.875l.468-4.219h1.407v-2.344A2.813 2.813 0 0 0 4.03 8.25m5.39-4.453a2.578 2.578 0 1 0 5.156 0 2.578 2.578 0 0 0-5.156 0m5.86 6.797a3.281 3.281 0 1 0-6.563 0v2.812h1.484l.39 4.688h2.813l.391-4.688h1.484z" stroke="#1A8CFF" stroke-linecap="round" stroke-linejoin="round"/></svg>