<svg viewBox="0 0 24 24" fill="none" xmlns="http://www.w3.org/2000/svg"><path d="M6.76 10.67c2.25.32 4.01 2.29 4.01 4.62 0 2.66-2.26 4.81-4.96 4.62-2.53-.17-4.36-2.49-4.3-5.03.23-9.55 8.43-10.8 8.51-10.81.32-.05.62.14.72.44s-.02.63-.3.79c-3.22 1.84-3.65 4.29-3.67 5.36zM18.52 10.67c2.25.32 4.01 2.29 4.01 4.62 0 2.66-2.26 4.81-4.96 4.62-2.53-.17-4.36-2.49-4.3-5.03.23-9.55 8.43-10.8 8.51-10.81.32-.05.62.14.72.44s-.02.63-.3.79c-3.22 1.84-3.65 4.29-3.67 5.36z" stroke="#1A8CFF" stroke-linecap="round" stroke-linejoin="round"/></svg>