<svg viewBox="0 0 24 24" fill="none" xmlns="http://www.w3.org/2000/svg"><path d="m16.626 6.408-1.734 1.734m3.492-1.253v4.713M16.145 4.65H11.37M7.773 15.263a10.044 10.044 0 0 0 13.494.617.92.92 0 0 0 .062-1.36L8.393 1.7a.92.92 0 0 0-1.36.074 10.043 10.043 0 0 0 .74 13.489m8.314-10.154c0 1.415 1.532 2.299 2.756 1.591.569-.328.92-.934.92-1.59 0-1.415-1.532-2.3-2.757-1.592a1.84 1.84 0 0 0-.919 1.591M7.702 15.191l-5.077 5.853a.919.919 0 0 0 .692 1.522h8.82a.919.919 0 0 0 .69-1.524z" stroke="#1A8CFF" stroke-linecap="round" stroke-linejoin="round"/></svg>