<svg viewBox="0 0 24 24" fill="none" xmlns="http://www.w3.org/2000/svg"><path d="M17.564 6.435a2.813 2.813 0 0 1 0 3.978l-4.309 4.306a.94.94 0 0 1-1.325 0l-2.656-2.645a.94.94 0 0 1 0-1.326l4.312-4.313a2.813 2.813 0 0 1 3.978 0m0 0 1.657-1.657m0 0a.937.937 0 1 1 1.326-1.326.937.937 0 0 1-1.326 1.326M5.963 20.025a1.407 1.407 0 1 1-1.989-1.988m3.646 3.646a3.75 3.75 0 0 1-5.303-5.304M9.61 7.46l1.477 1.476m5.454 5.456-1.476-1.478m-4.46 5.786A3.75 3.75 0 0 0 5.3 13.396a.47.47 0 0 0 0 .663l4.636 4.64a.47.47 0 0 0 .666 0M6.293 1.493l3.977 3.978s.663.662 0 1.325L8.945 8.122s-.663.663-1.325 0L3.642 4.145s-.663-.663 0-1.326l1.326-1.326s.663-.663 1.326 0m13.56 18.863-3.977-3.977s-.663-.663 0-1.326l1.326-1.326s.663-.663 1.326 0l3.977 3.977s.663.663 0 1.326l-1.326 1.326s-.663.663-1.326 0" stroke="#1A8CFF" stroke-linecap="round" stroke-linejoin="round"/></svg>