<svg viewBox="0 0 24 24" fill="none" xmlns="http://www.w3.org/2000/svg"><path d="M18.094 19.969v2.343m4.687.47a4.687 4.687 0 1 0-9.375 0m-.937-1.754a3.85 3.85 0 0 0-1.64-.356 3.98 3.98 0 0 0-3.517 2.11m4.22-18.75h-7.5m4.687 1.874H4.03m11.24 5.84a5.45 5.45 0 0 0 3.92 1.66 5.5 5.5 0 0 0 2.184-.469M8.438 15.282a4.69 4.69 0 0 0 5.156 1.031M13.406 1.22a.94.94 0 0 1 .938.937v7.5a.94.94 0 0 1-.938.938h-.937v1.875l-2.344-1.875H2.156a.94.94 0 0 1-.937-.938v-7.5a.937.937 0 0 1 .937-.937zm1.406 12.187a3.28 3.28 0 1 0 6.562 0 3.28 3.28 0 0 0-6.561 0m-6.778 3.281a2.793 2.793 0 1 0 5.587 0 2.793 2.793 0 0 0-5.587 0" stroke="#1A8CFF" stroke-linecap="round" stroke-linejoin="round"/></svg>