<svg viewBox="0 0 24 24" fill="none" xmlns="http://www.w3.org/2000/svg"><path d="M19.5 12.938v6.48a1.45 1.45 0 0 1-1.406 1.488H5.906A1.45 1.45 0 0 1 4.5 19.418v-6.48m4.219 9.843h6.562M12 20.906v1.875m-7.5-4.687h15m-5.625-4.688 3.75-3.75m0 0h-2.812m2.812 0v2.813m-7.5.937-3.75-3.75m0 0h2.813m-2.813 0v2.813m12.656-7.5a1.875 1.875 0 1 1 0-3.75 1.875 1.875 0 0 1 0 3.75m0 0c-2.343 0-3.281 1.406-3.281 2.812h6.563c0-1.406-.938-2.812-3.282-2.812m-14.062 0a1.875 1.875 0 1 1 0-3.75 1.875 1.875 0 0 1 0 3.75m0 0c-2.344 0-3.282 1.406-3.282 2.812H8.25c0-1.406-.937-2.812-3.281-2.812" stroke="#1A8CFF" stroke-linecap="round" stroke-linejoin="round"/></svg>