<svg viewBox="0 0 24 24" fill="none" xmlns="http://www.w3.org/2000/svg"><path d="M23.23 15.5a.53.53 0 0 0 .38-.18.56.56 0 0 0 .11-.41l-1.49-8a.5.5 0 0 0-.49-.41H2.26a.5.5 0 0 0-.49.41l-1.49 8a.56.56 0 0 0 .11.41.53.53 0 0 0 .38.18zM.5 16.5a.5.5 0 0 0-.5.5v3.25a2.25 2.25 0 0 0 2.25 2.25.25.25 0 0 1 .25.25v.5a.75.75 0 1 0 1.5 0V23a.5.5 0 0 1 .5-.5h15a.5.5 0 0 1 .5.5v.25a.75.75 0 1 0 1.5 0v-.5a.25.25 0 0 1 .25-.25A2.25 2.25 0 0 0 24 20.25V17a.5.5 0 0 0-.5-.5zM6.11 5.5a.41.41 0 0 0 .4-.33l.33-2a.5.5 0 0 1 .49-.42h9.34a.5.5 0 0 1 .49.42l.33 2a.41.41 0 0 0 .4.33h3.61A.5.5 0 0 0 22 5V2.25A2.25 2.25 0 0 0 19.75 0H4.25A2.25 2.25 0 0 0 2 2.25V5a.5.5 0 0 0 .5.5z" fill="#3A3D40"/></svg>