<svg viewBox="0 0 25 24" fill="none" xmlns="http://www.w3.org/2000/svg"><path d="M24.74 3.16a1 1 0 0 0-.6-.76 1 1 0 0 0-1 .1 13.5 13.5 0 0 1-7.66 2C9.34 4.45 6.76 7 6.71 7a8.11 8.11 0 0 0-3.28 6.49A8 8 0 0 0 4 16.57a.51.51 0 0 1-.1.53L1.27 20a1 1 0 0 0 0 1.42 1 1 0 0 0 1.32.05C4.35 19.9 7.15 15.2 15 11.91a1.008 1.008 0 1 1 .78 1.86 26.2 26.2 0 0 0-8.43 5.54l-.24.25A.51.51 0 0 0 7 20a.5.5 0 0 0 .24.36 8 8 0 0 0 4.26 1.22A12.2 12.2 0 0 0 17.27 20C26 15.17 25.2 5.89 24.74 3.16" fill="#3A3D40"/></svg>