<svg viewBox="0 0 24 24" fill="none" xmlns="http://www.w3.org/2000/svg"><path d="M23.72 11.8 12.72.3a1 1 0 0 0-1.44 0l-11 11.5a1 1 0 0 0-.2 1.09 1 1 0 0 0 .92.6h1.5A.5.5 0 0 1 3 14v8.5A1.5 1.5 0 0 0 4.5 24h15a1.5 1.5 0 0 0 1.5-1.5V14a.5.5 0 0 1 .5-.5H23a1 1 0 0 0 .72-1.7m-8.86 6.51a5.4 5.4 0 0 1-2.69.89 2.36 2.36 0 0 1-1.75-.7.47.47 0 0 1-.14-.37.46.46 0 0 1 .17-.36A22.8 22.8 0 0 1 14 15.19a.75.75 0 1 0-.77-1.29 24.4 24.4 0 0 0-6.84 6 .74.74 0 0 1-1 .2.75.75 0 0 1-.2-1 20.8 20.8 0 0 1 3.25-3.51.5.5 0 0 0 .1-.62 2.86 2.86 0 0 1-.38-1.65 3.78 3.78 0 0 1 2.14-2.72 6.63 6.63 0 0 1 3.9-.64 9 9 0 0 0 3.72-.42.47.47 0 0 1 .43 0 .51.51 0 0 1 .25.35c.4 2.93-1.74 7.22-3.74 8.42" fill="#3A3D40"/></svg>