<svg viewBox="0 0 24 24" fill="none" xmlns="http://www.w3.org/2000/svg"><path d="M8 12a4 4 0 1 0 8 0 4 4 0 0 0-8 0" fill="#fff"/><path d="M23 11h-1.62a.51.51 0 0 1-.5-.42 9 9 0 0 0-7.46-7.46.51.51 0 0 1-.42-.5V1a1 1 0 0 0-2 0v1.62a.51.51 0 0 1-.42.5 9 9 0 0 0-7.46 7.46.51.51 0 0 1-.5.42H1a1 1 0 0 0 0 2h1.62a.51.51 0 0 1 .5.42 9 9 0 0 0 7.46 7.46.51.51 0 0 1 .42.5V23a1 1 0 0 0 2 0v-1.62a.51.51 0 0 1 .42-.5 9 9 0 0 0 7.46-7.46.51.51 0 0 1 .5-.42H23a1 1 0 0 0 0-2m-11 8a7 7 0 1 1 0-14 7 7 0 0 1 0 14" fill="#fff"/></svg>