<svg viewBox="0 0 79 105" fill="none" xmlns="http://www.w3.org/2000/svg"><g clip-path="url(#a)"><path d="M79 40.17c0 26.47-32.12 57.84-38.43 63.74-.6.57-1.53.57-2.14 0C32.12 98.01 0 66.64 0 40.17 0 18.35 17.68.67 39.5.67S79 18.35 79 40.17" fill="#1A8CFF"/><g clip-path="url(#b)"><path d="M61.22 36.035c-4.273-2.528-8.75-5.895-12.004-9.036-1.067-1.014-2.122-2.069-3.135-3.082-1.389-1.395-2.831-2.837-4.316-4.172a2.915 2.915 0 0 0-3.886 0c-1.49 1.335-2.926 2.778-4.315 4.172a142 142 0 0 1-3.153 3.105c-3.23 3.118-7.713 6.491-11.98 9.019a2.914 2.914 0 0 0-1.026 3.987 2.914 2.914 0 0 0 3.988 1.025 71 71 0 0 0 3.838-2.443V56.09A2.91 2.91 0 0 0 28.14 59h23.37a2.91 2.91 0 0 0 2.91-2.909V38.61c1.269.859 2.55 1.681 3.838 2.444a2.91 2.91 0 0 0 3.987-1.025 2.914 2.914 0 0 0-1.025-3.987z" fill="#fff"/></g></g><defs><clipPath id="a"><path fill="#fff" d="M0 .67h79v103.67H0z"/></clipPath><clipPath id="b"><path fill="#fff" d="M17 19h45.65v40H17z"/></clipPath></defs></svg>