<svg width="79" height="105" viewBox="0 0 79 105" fill="none" xmlns="http://www.w3.org/2000/svg">
<g clip-path="url(#clip0_7509_2353)">
<path d="M79 40.17C79 66.64 46.88 98.01 40.57 103.91C39.97 104.48 39.04 104.48 38.43 103.91C32.12 98.01 0 66.64 0 40.17C0 18.35 17.68 0.669998 39.5 0.669998C61.32 0.669998 79 18.35 79 40.17Z" fill="#1A8CFF"/>
<g clip-path="url(#clip1_7509_2353)">
<path d="M61.22 36.0346C56.9465 33.5074 52.4702 30.1398 49.2159 26.9987C48.149 25.9854 47.094 24.9304 46.0807 23.9172C44.692 22.5225 43.2496 21.08 41.7654 19.7449C40.6568 18.7555 38.9819 18.7555 37.8793 19.7449C36.3892 21.08 34.9527 22.5225 33.564 23.9172C32.5507 24.9364 31.5017 25.9914 30.4109 27.0225C27.1804 30.1398 22.6982 33.5134 18.4306 36.0406C17.0478 36.8571 16.5888 38.6452 17.4054 40.028C18.222 41.4108 20.0101 41.8698 21.3929 41.0532C22.6744 40.2963 23.9618 39.4737 25.2314 38.6095V56.0912C25.2314 57.7005 26.5367 58.9999 28.14 58.9999H51.5106C53.1199 58.9999 54.4193 57.6946 54.4193 56.0912V38.6095C55.6888 39.4678 56.9703 40.2903 58.2577 41.0532C58.7227 41.3274 59.2352 41.4585 59.7359 41.4585C60.7313 41.4585 61.7028 40.9459 62.2452 40.028C63.0618 38.6452 62.6029 36.8571 61.22 36.0406V36.0346Z" fill="white"/>
</g>
</g>
<defs>
<clipPath id="clip0_7509_2353">
<rect width="79" height="103.67" fill="white" transform="translate(0 0.669998)"/>
</clipPath>
<clipPath id="clip1_7509_2353">
<rect width="45.6504" height="40" fill="white" transform="translate(17 19)"/>
</clipPath>
</defs>
</svg>
