<svg xmlns="http://www.w3.org/2000/svg" viewBox="0 0 24 24"><desc>Check Square Alternate Streamline Icon: https://streamlinehq.com</desc><g fill="currentColor"><path d="M23.41.4a1.25 1.25 0 0 0-1.76.19L10 15l-4-4a1.25 1.25 0 0 0-1.77 1.77l5 5a1.26 1.26 0 0 0 1.86-.1L23.6 2.16A1.25 1.25 0 0 0 23.41.4"/><path d="M19.12 11.37a1 1 0 0 0-1 1v9.25a.25.25 0 0 1-.25.25H2.37a.25.25 0 0 1-.25-.25V6.12a.26.26 0 0 1 .25-.25h11.25a1 1 0 0 0 0-2H2.12a2 2 0 0 0-2 2v16a2 2 0 0 0 2 2h16a2 2 0 0 0 2-2v-9.5a1 1 0 0 0-1-1"/></g></svg>