<svg xmlns="http://www.w3.org/2000/svg" viewBox="0 0 24 24"><desc>Gift Box Streamline Icon: https://streamlinehq.com</desc><g fill="currentColor"><path d="M12.964 12.19c0 .266.216.482.482.482h8.196a1.697 1.697 0 0 0 1.687-1.688V9.056c0-.932-.755-1.687-1.687-1.687h-8.196a.48.48 0 0 0-.482.482ZM4.045 12.672h6.99a.48.48 0 0 0 .483-.482V7.85a.48.48 0 0 0-.482-.481H2.358c-.932 0-1.687.755-1.687 1.687v1.928c.005.93.757 1.682 1.687 1.688ZM11.518 14.6a.48.48 0 0 0-.482-.482H3.08a.48.48 0 0 0-.482.482v7.473c.005.93.758 1.682 1.687 1.687h6.75a.48.48 0 0 0 .482-.482ZM13.446 14.118a.48.48 0 0 0-.482.482v8.678c0 .266.216.482.482.482h6.268a1.697 1.697 0 0 0 1.687-1.687V14.6a.48.48 0 0 0-.482-.482Z"/><path d="M12.964 7.089a.96.96 0 0 0 .964.28c1.138-.28 3.857-.965 4.715-1.852 1.358-1.765.296-4.337-1.911-4.63-.756-.101-1.521.1-2.129.561-.723.733-1.427 2.97-1.85 4.725a.96.96 0 0 0 .211.916m2.97-4.272a.964.964 0 1 1 1.302 1.302c-.687.4-1.428.703-2.199.897a8.5 8.5 0 0 1 .935-2.198ZM11.73 6.173c-.424-1.755-1.128-3.992-1.851-4.725-1.297-1.81-4.067-1.538-4.986.49a2.89 2.89 0 0 0 .955 3.55c.83.84 3.578 1.572 4.715 1.852a.96.96 0 0 0 .964-.251.96.96 0 0 0 .203-.916M7.179 4.119a.964.964 0 0 1 1.33-1.301c.401.687.703 1.427.897 2.198a8.5 8.5 0 0 1-2.227-.897"/></g></svg>