<svg xmlns="http://www.w3.org/2000/svg" viewBox="0 0 24 24"><desc>Alarm Bell 1 Streamline Icon: https://streamlinehq.com</desc><g fill="#3A3D40"><path d="M14.24 21H9.76a.25.25 0 0 0-.24.22 3 3 0 0 0 0 .28 2.5 2.5 0 0 0 5 0 3 3 0 0 0 0-.28.25.25 0 0 0-.28-.22M21.45 19.28a16.3 16.3 0 0 1-1.75-7.34v-.76a9.11 9.11 0 0 0-3.87-7.63 6.3 6.3 0 0 0-2.33-.91V1.5a1.5 1.5 0 0 0-3 0v1.15a6.7 6.7 0 0 0-2.85 1.28 9.18 9.18 0 0 0-3.35 7.25v.76a16.3 16.3 0 0 1-1.75 7.34.51.51 0 0 0 0 .48A.52.52 0 0 0 3 20h18a.52.52 0 0 0 .43-.24.51.51 0 0 0 .02-.48"/></g></svg>