<svg xmlns="http://www.w3.org/2000/svg" viewBox="0 0 24 24"><desc>Email Action Clock Streamline Icon: https://streamlinehq.com</desc><g fill="#3A3D40"><path d="M17.5 9.5a7.9 7.9 0 0 1 3.15.66.3.3 0 0 0 .24 0 .26.26 0 0 0 .11-.23V1.75a.18.18 0 0 0-.1-.15.15.15 0 0 0-.17 0L12.2 7.93a2.41 2.41 0 0 1-3.4 0L.27 1.64a.15.15 0 0 0-.17 0 .18.18 0 0 0-.1.15v10.5A1.75 1.75 0 0 0 1.75 14h8.41a.25.25 0 0 0 .23-.14A8 8 0 0 1 17.5 9.5"/><path d="M9.73 7a1.08 1.08 0 0 0 1.54 0L19.75.76a.42.42 0 0 0 .1-.45.42.42 0 0 0-.35-.31h-18a.45.45 0 0 0-.36.29.44.44 0 0 0 .11.45ZM17.5 11a6.5 6.5 0 1 0 6.5 6.5 6.51 6.51 0 0 0-6.5-6.5m0 11a4.5 4.5 0 1 1 4.5-4.5 4.51 4.51 0 0 1-4.5 4.5"/><path d="M19.5 16.75h-1a.25.25 0 0 1-.25-.25V15a.75.75 0 0 0-1.5 0v2.5a.76.76 0 0 0 .75.75h2a.75.75 0 0 0 0-1.5"/></g></svg>