<svg xmlns="http://www.w3.org/2000/svg" viewBox="0 0 24 24"><desc>House Heart Streamline Icon: https://streamlinehq.com</desc><g fill="#3A3D40"><path d="M20.07 6.54a.27.27 0 0 0 .27.06.25.25 0 0 0 .16-.24V1.49A.5.5 0 0 0 20 1h-3.5a.5.5 0 0 0-.5.5v.59a.52.52 0 0 0 .14.35ZM23.72 11.8 12.72.3a1 1 0 0 0-1.44 0l-11 11.5a1 1 0 0 0-.2 1.08 1 1 0 0 0 .92.61h1.5A.5.5 0 0 1 3 14v8.5A1.5 1.5 0 0 0 4.5 24h15a1.5 1.5 0 0 0 1.5-1.5V14a.5.5 0 0 1 .5-.5H23a1 1 0 0 0 .92-.6 1 1 0 0 0-.2-1.1m-7.23 4.45-3.77 3.93a1 1 0 0 1-1.44 0L7.5 16.24a2.95 2.95 0 0 1 4.18-4.16l.14.15a.27.27 0 0 0 .36 0l.14-.15a2.95 2.95 0 1 1 4.17 4.17"/></g></svg>