<svg xmlns="http://www.w3.org/2000/svg" viewBox="0 0 24 24"><desc>Maps Pin 1 Streamline Icon: https://streamlinehq.com</desc><g fill="#3A3D40"><path d="M19 11a5 5 0 0 0-5 5c0 3.17 4.46 7.66 4.65 7.85a.48.48 0 0 0 .7 0C19.54 23.66 24 19.17 24 16a5 5 0 0 0-5-5m0 6.75A1.75 1.75 0 1 1 20.75 16 1.75 1.75 0 0 1 19 17.75"/><path d="M14 9a1 1 0 0 0 2 0V3.31a.25.25 0 0 1 .14-.22.27.27 0 0 1 .26 0l4.39 3.14a.51.51 0 0 1 .21.41V9a1 1 0 0 0 2 0V6.14a1.5 1.5 0 0 0-.63-1.22L15.87.28a1.5 1.5 0 0 0-1.74 0L8.32 4.42a.48.48 0 0 1-.59 0L2.43.32A1.52 1.52 0 0 0 .84.15 1.51 1.51 0 0 0 0 1.5v14.89a1.51 1.51 0 0 0 .6 1.2l6.51 4.88a1.5 1.5 0 0 0 .9.3 1.55 1.55 0 0 0 .87-.28l4.37-3.13a1 1 0 0 0 .24-1.36 1 1 0 0 0-1.4-.24l-2.69 1.9a.27.27 0 0 1-.26 0 .24.24 0 0 1-.14-.2V6.66a.51.51 0 0 1 .21-.41l4.39-3.14a.27.27 0 0 1 .26 0 .25.25 0 0 1 .14.22ZM7 19.39a.24.24 0 0 1-.14.22.27.27 0 0 1-.26 0l-4.4-3.3a.51.51 0 0 1-.2-.4V3a.25.25 0 0 1 .4-.2l4.41 3.4a.49.49 0 0 1 .19.42Z"/></g></svg>