<svg xmlns="http://www.w3.org/2000/svg" viewBox="0 0 24 24"><desc>Read Email Circle Streamline Icon: https://streamlinehq.com</desc><path d="M12 0a12 12 0 1 0 12 12A12 12 0 0 0 12 0m6.5 15.5A1.5 1.5 0 0 1 17 17H7a1.5 1.5 0 0 1-1.5-1.5v-4.74a.26.26 0 0 1 .13-.22.27.27 0 0 1 .26 0l4.92 3.08A2.3 2.3 0 0 0 12 14a2.34 2.34 0 0 0 1.2-.34l4.92-3.08a.25.25 0 0 1 .25 0 .26.26 0 0 1 .13.22Zm0-6.94-6.07 3.8a.75.75 0 0 1-.79 0l-6.1-3.8a.07.07 0 0 1 0-.06A1.5 1.5 0 0 1 7 7h10a1.5 1.5 0 0 1 1.5 1.5.06.06 0 0 1-.03.06Z" fill="#3A3D40"/></svg>