<svg viewBox="0 0 24 24" fill="none" xmlns="http://www.w3.org/2000/svg"><path d="M22.875 6.073a8.3 8.3 0 0 1-2.388.654 4.17 4.17 0 0 0 1.828-2.297 8.3 8.3 0 0 1-2.639 1.006 4.14 4.14 0 0 0-3.032-1.311 4.154 4.154 0 0 0-4.046 5.1 11.8 11.8 0 0 1-8.564-4.34 4.14 4.14 0 0 0-.561 2.089c0 1.44.732 2.713 1.848 3.46a4.15 4.15 0 0 1-1.883-.522v.052a4.16 4.16 0 0 0 3.331 4.075 4.16 4.16 0 0 1-1.876.07 4.16 4.16 0 0 0 3.88 2.886 8.33 8.33 0 0 1-5.158 1.777 8 8 0 0 1-.99-.058 11.74 11.74 0 0 0 6.368 1.867c7.642 0 11.82-6.33 11.82-11.82q0-.27-.01-.537a8.5 8.5 0 0 0 2.072-2.151" fill="#3A3D40"/></svg>