<svg viewBox="0 0 24 24" fill="none" xmlns="http://www.w3.org/2000/svg"><path d="M23.248 9.955c-2.247-1.33-4.6-3.1-6.31-4.751a90 90 0 0 1-1.65-1.62c-.73-.734-1.488-1.492-2.268-2.194a1.53 1.53 0 0 0-2.043 0c-.784.702-1.539 1.46-2.269 2.194A75 75 0 0 1 7.05 5.216C5.352 6.856 2.995 8.63.752 9.958a1.53 1.53 0 0 0-.54 2.096c.43.727 1.37.968 2.097.54.674-.399 1.35-.831 2.018-1.286V20.5c0 .847.686 1.53 1.53 1.53h12.287a1.53 1.53 0 0 0 1.529-1.53v-9.19c.667.45 1.341.883 2.018 1.284a1.53 1.53 0 1 0 1.557-2.635z" fill="#1A8CFF"/></svg>